STARTFONT 2.1
COMMENT
COMMENT Converted from OpenType font "gulim.ttc" by "otf2bdf.exe 3.0".
COMMENT
FONT -FreeType-Gulim-Medium-R-Normal--17-120-100-100-P-139-ISO10646-1
SIZE 12 100 100
FONTBOUNDINGBOX 16 16 0 -2
STARTPROPERTIES 19
FOUNDRY "FreeType"
FAMILY_NAME "Gulim"
WEIGHT_NAME "Medium"
SLANT "R"
SETWIDTH_NAME "Normal"
ADD_STYLE_NAME ""
PIXEL_SIZE 17
POINT_SIZE 120
RESOLUTION_X 100
RESOLUTION_Y 100
SPACING "P"
AVERAGE_WIDTH 139
CHARSET_REGISTRY "ISO10646"
CHARSET_ENCODING "1"
FONT_ASCENT 14
FONT_DESCENT 2
COPYRIGHT "(c) Copyright HanYang I&C Co.,LTD. 2000"
_OTF_FONTFILE "gulim.ttc"
_OTF_PSNAME "Gulim"
ENDPROPERTIES
CHARS 20608
STARTCHAR 0001
ENCODING 1
SWIDTH 480 0
DWIDTH 8 0
BBX 4 8 4 6
BITMAP
F0
80
80
80
80
80
80
80
ENDCHAR
STARTCHAR 0002
ENCODING 2
SWIDTH 480 0
DWIDTH 8 0
BBX 5 8 0 6
BITMAP
F8
08
08
08
08
08
08
08
ENDCHAR
STARTCHAR 0003
ENCODING 3
SWIDTH 480 0
DWIDTH 8 0
BBX 4 9 4 -2
BITMAP
80
80
80
80
80
80
80
80
F0
ENDCHAR
STARTCHAR 0004
ENCODING 4
SWIDTH 480 0
DWIDTH 8 0
BBX 5 9 0 -2
BITMAP
08
08
08
08
08
08
08
08
F8
ENDCHAR
STARTCHAR 0005
ENCODING 5
SWIDTH 480 0
DWIDTH 8 0
BBX 1 16 4 -2
BITMAP
80
80
80
80
80
80
80
80
80
80
80
80
80
80
80
80
ENDCHAR
STARTCHAR 0006
ENCODING 6
SWIDTH 480 0
DWIDTH 8 0
BBX 8 1 0 6
BITMAP
FF
ENDCHAR
STARTCHAR 0007
ENCODING 7
SWIDTH 480 0
DWIDTH 8 0
BBX 6 7 1 2
BITMAP
30
78
FC
FC
FC
78
30
ENDCHAR
STARTCHAR 0008
ENCODING 8
SWIDTH 480 0
DWIDTH 8 0
BBX 8 16 0 -2
BITMAP
FF
FF
FF
FF
E7
C3
81
81
81
C3
E7
FF
FF
FF
FF
FF
ENDCHAR
STARTCHAR 0009
ENCODING 9
SWIDTH 480 0
DWIDTH 8 0
BBX 6 7 1 2
BITMAP
30
48
84
84
84
48
30
ENDCHAR
STARTCHAR 000A
ENCODING 10
SWIDTH 480 0
DWIDTH 8 0
BBX 8 16 0 -2
BITMAP
FF
FF
FF
FF
E7
DB
BD
BD
BD
DB
E7
FF
FF
FF
FF
FF
ENDCHAR
STARTCHAR 000B
ENCODING 11
SWIDTH 480 0
DWIDTH 8 0
BBX 7 12 1 0
BITMAP
3E
0A
0A
12
12
20
20
70
88
88
88
70
ENDCHAR
STARTCHAR 000C
ENCODING 12
SWIDTH 480 0
DWIDTH 8 0
BBX 7 12 1 0
BITMAP
38
44
44
44
38
10
10
FE
10
10
10
10
ENDCHAR
STARTCHAR 000D
ENCODING 13
SWIDTH 480 0
DWIDTH 8 0
BBX 7 13 1 -1
BITMAP
20
30
28
24
22
22
22
22
24
60
E0
E0
C0
ENDCHAR
STARTCHAR 000E
ENCODING 14
SWIDTH 480 0
DWIDTH 8 0
BBX 7 13 1 -1
BITMAP
06
3A
22
26
3A
22
22
22
26
2E
6C
E0
C0
ENDCHAR
STARTCHAR 000F
ENCODING 15
SWIDTH 480 0
DWIDTH 8 0
BBX 7 13 1 -1
BITMAP
10
10
BA
44
44
44
C6
44
44
44
BA
10
10
ENDCHAR
STARTCHAR 0010
ENCODING 16
SWIDTH 480 0
DWIDTH 8 0
BBX 8 16 0 -2
BITMAP
08
08
08
08
08
08
08
08
FF
08
08
08
08
08
08
08
ENDCHAR
STARTCHAR 0011
ENCODING 17
SWIDTH 480 0
DWIDTH 8 0
BBX 7 13 1 0
BITMAP
02
06
0E
1E
3E
7E
FE
7E
3E
1E
0E
06
02
ENDCHAR
STARTCHAR 0012
ENCODING 18
SWIDTH 480 0
DWIDTH 8 0
BBX 5 14 2 -1
BITMAP
20
70
A8
20
20
20
20
20
20
20
20
A8
70
20
ENDCHAR
STARTCHAR 0013
ENCODING 19
SWIDTH 480 0
DWIDTH 8 0
BBX 4 13 2 0
BITMAP
90
90
90
90
90
90
90
90
90
00
00
90
90
ENDCHAR
STARTCHAR 0014
ENCODING 20
SWIDTH 480 0
DWIDTH 8 0
BBX 7 12 1 0
BITMAP
3E
4A
8A
8A
8A
4A
3A
0A
0A
0A
0A
0A
ENDCHAR
STARTCHAR 0015
ENCODING 21
SWIDTH 480 0
DWIDTH 8 0
BBX 8 9 0 -2
BITMAP
08
08
08
08
08
08
08
08
FF
ENDCHAR
STARTCHAR 0016
ENCODING 22
SWIDTH 480 0
DWIDTH 8 0
BBX 8 8 0 6
BITMAP
FF
08
08
08
08
08
08
08
ENDCHAR
STARTCHAR 0017
ENCODING 23
SWIDTH 480 0
DWIDTH 8 0
BBX 5 16 0 -2
BITMAP
08
08
08
08
08
08
08
08
F8
08
08
08
08
08
08
08
ENDCHAR
STARTCHAR 0018
ENCODING 24
SWIDTH 480 0
DWIDTH 8 0
BBX 5 14 2 -1
BITMAP
20
70
A8
20
20
20
20
20
20
20
20
20
20
20
ENDCHAR
STARTCHAR 0019
ENCODING 25
SWIDTH 480 0
DWIDTH 8 0
BBX 4 16 4 -2
BITMAP
80
80
80
80
80
80
80
80
F0
80
80
80
80
80
80
80
ENDCHAR
STARTCHAR 001A
ENCODING 26
SWIDTH 480 0
DWIDTH 8 0
BBX 7 5 1 4
BITMAP
08
04
FE
04
08
ENDCHAR
STARTCHAR 001B
ENCODING 27
SWIDTH 480 0
DWIDTH 8 0
BBX 7 5 1 4
BITMAP
20
40
FE
40
20
ENDCHAR
STARTCHAR 001C
ENCODING 28
SWIDTH 480 0
DWIDTH 8 0
BBX 7 10 1 1
BITMAP
80
80
80
80
80
80
80
80
80
FE
ENDCHAR
STARTCHAR 001D
ENCODING 29
SWIDTH 480 0
DWIDTH 8 0
BBX 7 5 1 4
BITMAP
44
82
FE
82
44
ENDCHAR
STARTCHAR 001E
ENCODING 30
SWIDTH 480 0
DWIDTH 8 0
BBX 7 14 1 -1
BITMAP
10
10
10
38
38
38
38
7C
7C
7C
7C
FE
FE
FE
ENDCHAR
STARTCHAR 001F
ENCODING 31
SWIDTH 480 0
DWIDTH 8 0
BBX 7 14 1 -1
BITMAP
FE
FE
FE
7C
7C
7C
7C
38
38
38
38
10
10
10
ENDCHAR
STARTCHAR 0020
ENCODING 32
SWIDTH 300 0
DWIDTH 5 0
BBX 0 0 0 0
BITMAP
ENDCHAR
STARTCHAR 0021
ENCODING 33
SWIDTH 300 0
DWIDTH 5 0
BBX 1 12 2 0
BITMAP
80
80
80
80
80
80
80
80
80
00
80
80
ENDCHAR
STARTCHAR 0022
ENCODING 34
SWIDTH 300 0
DWIDTH 5 0
BBX 3 3 1 9
BITMAP
A0
A0
A0
ENDCHAR
STARTCHAR 0023
ENCODING 35
SWIDTH 660 0
DWIDTH 11 0
BBX 9 12 1 0
BITMAP
0880
0880
0880
1100
7F80
1100
2200
2200
FF00
4400
4400
4400
ENDCHAR
STARTCHAR 0024
ENCODING 36
SWIDTH 540 0
DWIDTH 9 0
BBX 7 15 1 -1
BITMAP
10
10
7C
92
92
90
70
1C
12
12
92
92
7C
10
10
ENDCHAR
STARTCHAR 0025
ENCODING 37
SWIDTH 840 0
DWIDTH 14 0
BBX 12 13 1 0
BITMAP
0040
7040
8880
8880
8900
7200
0200
04E0
0910
0910
1110
20E0
2000
ENDCHAR
STARTCHAR 0026
ENCODING 38
SWIDTH 600 0
DWIDTH 10 0
BBX 9 12 1 1
BITMAP
3800
4400
4400
4400
2800
3000
4900
8500
8200
8200
4500
3880
ENDCHAR
STARTCHAR 0027
ENCODING 39
SWIDTH 300 0
DWIDTH 5 0
BBX 1 3 2 9
BITMAP
80
80
80
ENDCHAR
STARTCHAR 0028
ENCODING 40
SWIDTH 360 0
DWIDTH 6 0
BBX 4 14 1 -1
BITMAP
10
20
40
40
80
80
80
80
80
80
40
40
20
10
ENDCHAR
STARTCHAR 0029
ENCODING 41
SWIDTH 360 0
DWIDTH 6 0
BBX 4 14 1 -1
BITMAP
80
40
20
20
10
10
10
10
10
10
20
20
40
80
ENDCHAR
STARTCHAR 002A
ENCODING 42
SWIDTH 420 0
DWIDTH 7 0
BBX 5 5 1 4
BITMAP
20
20
F8
20
50
ENDCHAR
STARTCHAR 002B
ENCODING 43
SWIDTH 480 0
DWIDTH 8 0
BBX 7 7 1 3
BITMAP
10
10
10
FE
10
10
10
ENDCHAR
STARTCHAR 002C
ENCODING 44
SWIDTH 300 0
DWIDTH 5 0
BBX 2 3 1 -1
BITMAP
40
40
80
ENDCHAR
STARTCHAR 002D
ENCODING 45
SWIDTH 480 0
DWIDTH 8 0
BBX 7 1 1 6
BITMAP
FE
ENDCHAR
STARTCHAR 002E
ENCODING 46
SWIDTH 300 0
DWIDTH 5 0
BBX 1 2 2 0
BITMAP
80
80
ENDCHAR
STARTCHAR 002F
ENCODING 47
SWIDTH 360 0
DWIDTH 6 0
BBX 6 12 0 0
BITMAP
04
04
08
08
10
10
20
20
40
40
80
80
ENDCHAR
STARTCHAR 0030
ENCODING 48
SWIDTH 480 0
DWIDTH 8 0
BBX 7 12 1 0
BITMAP
38
44
82
82
82
82
82
82
82
82
44
38
ENDCHAR
STARTCHAR 0031
ENCODING 49
SWIDTH 480 0
DWIDTH 8 0
BBX 3 12 2 0
BITMAP
20
E0
20
20
20
20
20
20
20
20
20
20
ENDCHAR
STARTCHAR 0032
ENCODING 50
SWIDTH 480 0
DWIDTH 8 0
BBX 7 12 1 0
BITMAP
38
44
82
82
02
04
08
10
20
40
80
FE
ENDCHAR
STARTCHAR 0033
ENCODING 51
SWIDTH 480 0
DWIDTH 8 0
BBX 7 12 1 0
BITMAP
38
44
82
02
04
38
04
02
02
82
44
38
ENDCHAR
STARTCHAR 0034
ENCODING 52
SWIDTH 540 0
DWIDTH 9 0
BBX 8 12 1 0
BITMAP
0C
14
14
24
24
44
44
84
FF
04
04
04
ENDCHAR
STARTCHAR 0035
ENCODING 53
SWIDTH 480 0
DWIDTH 8 0
BBX 7 12 1 0
BITMAP
FE
80
80
80
B8
C4
82
02
02
82
44
38
ENDCHAR
STARTCHAR 0036
ENCODING 54
SWIDTH 480 0
DWIDTH 8 0
BBX 7 12 1 0
BITMAP
38
44
82
80
B8
C4
82
82
82
82
44
38
ENDCHAR
STARTCHAR 0037
ENCODING 55
SWIDTH 480 0
DWIDTH 8 0
BBX 7 12 1 0
BITMAP
FE
02
04
08
08
10
10
10
20
20
20
20
ENDCHAR
STARTCHAR 0038
ENCODING 56
SWIDTH 480 0
DWIDTH 8 0
BBX 7 12 1 0
BITMAP
38
44
82
82
44
38
44
82
82
82
44
38
ENDCHAR
STARTCHAR 0039
ENCODING 57
SWIDTH 480 0
DWIDTH 8 0
BBX 7 12 1 0
BITMAP
38
44
82
82
82
82
46
3A
02
82
44
38
ENDCHAR
STARTCHAR 003A
ENCODING 58
SWIDTH 300 0
DWIDTH 5 0
BBX 1 7 2 3
BITMAP
80
80
00
00
00
80
80
ENDCHAR
STARTCHAR 003B
ENCODING 59
SWIDTH 300 0
DWIDTH 5 0
BBX 2 8 1 2
BITMAP
40
40
00
00
00
40
40
80
ENDCHAR
STARTCHAR 003C
ENCODING 60
SWIDTH 660 0
DWIDTH 11 0
BBX 7 13 2 0
BITMAP
02
04
08
10
20
40
80
40
20
10
08
04
02
ENDCHAR
STARTCHAR 003D
ENCODING 61
SWIDTH 480 0
DWIDTH 8 0
BBX 7 4 1 4
BITMAP
FE
00
00
FE
ENDCHAR
STARTCHAR 003E
ENCODING 62
SWIDTH 660 0
DWIDTH 11 0
BBX 7 13 2 0
BITMAP
80
40
20
10
08
04
02
04
08
10
20
40
80
ENDCHAR
STARTCHAR 003F
ENCODING 63
SWIDTH 480 0
DWIDTH 8 0
BBX 6 12 1 0
BITMAP
78
84
84
04
08
10
20
20
00
00
20
20
ENDCHAR
STARTCHAR 0040
ENCODING 64
SWIDTH 780 0
DWIDTH 13 0
BBX 11 12 1 0
BITMAP
0F80
1040
2020
4D20
5320
A240
A240
A480
9B00
8000
40C0
3F00
ENDCHAR
STARTCHAR 0041
ENCODING 65
SWIDTH 600 0
DWIDTH 10 0
BBX 9 12 1 0
BITMAP
0800
0800
1400
1400
2200
2200
2200
4100
7F00
4100
8080
8080
ENDCHAR
STARTCHAR 0042
ENCODING 66
SWIDTH 600 0
DWIDTH 10 0
BBX 8 12 1 0
BITMAP
FC
82
82
82
84
FC
82
81
81
81
82
FC
ENDCHAR
STARTCHAR 0043
ENCODING 67
SWIDTH 660 0
DWIDTH 11 0
BBX 9 12 1 0
BITMAP
1E00
2100
4080
8000
8000
8000
8000
8000
8000
4080
2100
1E00
ENDCHAR
STARTCHAR 0044
ENCODING 68
SWIDTH 600 0
DWIDTH 10 0
BBX 8 12 1 0
BITMAP
F8
84
82
81
81
81
81
81
81
82
84
F8
ENDCHAR
STARTCHAR 0045
ENCODING 69
SWIDTH 600 0
DWIDTH 10 0
BBX 8 12 1 0
BITMAP
FF
80
80
80
80
FE
80
80
80
80
80
FF
ENDCHAR
STARTCHAR 0046
ENCODING 70
SWIDTH 540 0
DWIDTH 9 0
BBX 8 12 1 0
BITMAP
FF
80
80
80
80
FE
80
80
80
80
80
80
ENDCHAR
STARTCHAR 0047
ENCODING 71
SWIDTH 660 0
DWIDTH 11 0
BBX 9 12 1 0
BITMAP
1E00
2100
4080
8080
8000
8000
8780
8080
8080
4180
2280
1C80
ENDCHAR
STARTCHAR 0048
ENCODING 72
SWIDTH 600 0
DWIDTH 10 0
BBX 8 12 1 0
BITMAP
81
81
81
81
81
FF
81
81
81
81
81
81
ENDCHAR
STARTCHAR 0049
ENCODING 73
SWIDTH 180 0
DWIDTH 3 0
BBX 1 12 1 0
BITMAP
80
80
80
80
80
80
80
80
80
80
80
80
ENDCHAR
STARTCHAR 004A
ENCODING 74
SWIDTH 360 0
DWIDTH 6 0
BBX 5 12 0 0
BITMAP
08
08
08
08
08
08
08
08
08
88
88
70
ENDCHAR
STARTCHAR 004B
ENCODING 75
SWIDTH 600 0
DWIDTH 10 0
BBX 9 12 1 0
BITMAP
8100
8200
8400
8800
9000
A000
D000
8800
8400
8200
8100
8080
ENDCHAR
STARTCHAR 004C
ENCODING 76
SWIDTH 540 0
DWIDTH 9 0
BBX 8 12 1 0
BITMAP
80
80
80
80
80
80
80
80
80
80
80
FF
ENDCHAR
STARTCHAR 004D
ENCODING 77
SWIDTH 780 0
DWIDTH 13 0
BBX 11 12 1 0
BITMAP
8020
8020
C060
C060
A0A0
A0A0
9120
9120
8A20
8A20
8420
8420
ENDCHAR
STARTCHAR 004E
ENCODING 78
SWIDTH 660 0
DWIDTH 11 0
BBX 9 12 1 0
BITMAP
8080
C080
A080
A080
9080
8880
8880
8480
8280
8280
8180
8080
ENDCHAR
STARTCHAR 004F
ENCODING 79
SWIDTH 720 0
DWIDTH 12 0
BBX 10 12 1 0
BITMAP
1E00
2100
4080
8040
8040
8040
8040
8040
8040
4080
2100
1E00
ENDCHAR
STARTCHAR 0050
ENCODING 80
SWIDTH 600 0
DWIDTH 10 0
BBX 8 12 1 0
BITMAP
FC
82
81
81
81
82
FC
80
80
80
80
80
ENDCHAR
STARTCHAR 0051
ENCODING 81
SWIDTH 720 0
DWIDTH 12 0
BBX 10 13 1 -1
BITMAP
1E00
2100
4080
8040
8040
8040
8040
8040
8040
4280
2100
1E80
0040
ENDCHAR
STARTCHAR 0052
ENCODING 82
SWIDTH 600 0
DWIDTH 10 0
BBX 8 12 1 0
BITMAP
FC
82
81
81
81
82
FC
82
81
81
81
81
ENDCHAR
STARTCHAR 0053
ENCODING 83
SWIDTH 600 0
DWIDTH 10 0
BBX 8 12 1 0
BITMAP
3C
42
81
80
40
38
06
01
01
81
42
3C
ENDCHAR
STARTCHAR 0054
ENCODING 84
SWIDTH 540 0
DWIDTH 9 0
BBX 9 12 0 0
BITMAP
FF80
0800
0800
0800
0800
0800
0800
0800
0800
0800
0800
0800
ENDCHAR
STARTCHAR 0055
ENCODING 85
SWIDTH 660 0
DWIDTH 11 0
BBX 9 12 1 0
BITMAP
8080
8080
8080
8080
8080
8080
8080
8080
8080
8080
4100
3E00
ENDCHAR
STARTCHAR 0056
ENCODING 86
SWIDTH 600 0
DWIDTH 10 0
BBX 9 12 1 0
BITMAP
8080
8080
4100
4100
4100
2200
2200
2200
1400
1400
0800
0800
ENDCHAR
STARTCHAR 0057
ENCODING 87
SWIDTH 840 0
DWIDTH 14 0
BBX 13 12 1 0
BITMAP
8208
8208
8208
4510
4510
4510
28A0
28A0
28A0
1040
1040
1040
ENDCHAR
STARTCHAR 0058
ENCODING 88
SWIDTH 660 0
DWIDTH 11 0
BBX 9 12 1 0
BITMAP
8080
8080
4100
2200
1400
0800
0800
1400
2200
4100
8080
8080
ENDCHAR
STARTCHAR 0059
ENCODING 89
SWIDTH 600 0
DWIDTH 10 0
BBX 9 12 1 0
BITMAP
8080
8080
4100
2200
2200
1400
0800
0800
0800
0800
0800
0800
ENDCHAR
STARTCHAR 005A
ENCODING 90
SWIDTH 600 0
DWIDTH 10 0
BBX 8 12 1 0
BITMAP
FF
01
02
04
04
08
10
20
20
40
80
FF
ENDCHAR
STARTCHAR 005B
ENCODING 91
SWIDTH 480 0
DWIDTH 8 0
BBX 3 14 3 -1
BITMAP
E0
80
80
80
80
80
80
80
80
80
80
80
80
E0
ENDCHAR
STARTCHAR 005C
ENCODING 92
SWIDTH 840 0
DWIDTH 14 0
BBX 13 12 1 0
BITMAP
4210
4210
4210
4510
FFF8
4510
28A0
28A0
28A0
1040
1040
1040
ENDCHAR
STARTCHAR 005D
ENCODING 93
SWIDTH 480 0
DWIDTH 8 0
BBX 3 14 2 -1
BITMAP
E0
20
20
20
20
20
20
20
20
20
20
20
20
E0
ENDCHAR
STARTCHAR 005E
ENCODING 94
SWIDTH 480 0
DWIDTH 8 0
BBX 7 4 1 9
BITMAP
10
28
44
82
ENDCHAR
STARTCHAR 005F
ENCODING 95
SWIDTH 480 0
DWIDTH 8 0
BBX 7 1 1 0
BITMAP
FE
ENDCHAR
STARTCHAR 0060
ENCODING 96
SWIDTH 360 0
DWIDTH 6 0
BBX 3 3 1 10
BITMAP
80
40
20
ENDCHAR
STARTCHAR 0061
ENCODING 97
SWIDTH 540 0
DWIDTH 9 0
BBX 8 9 1 0
BITMAP
7C
82
02
3E
42
82
82
82
7D
ENDCHAR
STARTCHAR 0062
ENCODING 98
SWIDTH 540 0
DWIDTH 9 0
BBX 7 12 1 0
BITMAP
80
80
80
B8
C4
82
82
82
82
82
C4
B8
ENDCHAR
STARTCHAR 0063
ENCODING 99
SWIDTH 540 0
DWIDTH 9 0
BBX 7 9 1 0
BITMAP
3C
42
80
80
80
80
80
42
3C
ENDCHAR
STARTCHAR 0064
ENCODING 100
SWIDTH 540 0
DWIDTH 9 0
BBX 7 12 1 0
BITMAP
02
02
02
3A
46
82
82
82
82
82
46
3A
ENDCHAR
STARTCHAR 0065
ENCODING 101
SWIDTH 540 0
DWIDTH 9 0
BBX 7 9 1 0
BITMAP
38
44
82
82
FE
80
80
42
3C
ENDCHAR
STARTCHAR 0066
ENCODING 102
SWIDTH 300 0
DWIDTH 5 0
BBX 5 12 0 0
BITMAP
18
20
20
F8
20
20
20
20
20
20
20
20
ENDCHAR
STARTCHAR 0067
ENCODING 103
SWIDTH 540 0
DWIDTH 9 0
BBX 7 11 1 -2
BITMAP
3A
46
82
82
82
82
46
3A
02
84
78
ENDCHAR
STARTCHAR 0068
ENCODING 104
SWIDTH 540 0
DWIDTH 9 0
BBX 7 12 1 0
BITMAP
80
80
80
BC
C2
82
82
82
82
82
82
82
ENDCHAR
STARTCHAR 0069
ENCODING 105
SWIDTH 180 0
DWIDTH 3 0
BBX 1 12 1 0
BITMAP
80
80
00
00
80
80
80
80
80
80
80
80
ENDCHAR
STARTCHAR 006A
ENCODING 106
SWIDTH 240 0
DWIDTH 4 0
BBX 3 14 0 -2
BITMAP
20
20
00
00
20
20
20
20
20
20
20
20
20
C0
ENDCHAR
STARTCHAR 006B
ENCODING 107
SWIDTH 480 0
DWIDTH 8 0
BBX 7 12 1 0
BITMAP
80
80
80
84
88
90
A0
E0
90
88
84
82
ENDCHAR
STARTCHAR 006C
ENCODING 108
SWIDTH 180 0
DWIDTH 3 0
BBX 1 12 1 0
BITMAP
80
80
80
80
80
80
80
80
80
80
80
80
ENDCHAR
STARTCHAR 006D
ENCODING 109
SWIDTH 780 0
DWIDTH 13 0
BBX 11 9 1 0
BITMAP
B9C0
C620
8420
8420
8420
8420
8420
8420
8420
ENDCHAR
STARTCHAR 006E
ENCODING 110
SWIDTH 540 0
DWIDTH 9 0
BBX 7 9 1 0
BITMAP
BC
C2
82
82
82
82
82
82
82
ENDCHAR
STARTCHAR 006F
ENCODING 111
SWIDTH 600 0
DWIDTH 10 0
BBX 8 9 1 0
BITMAP
3C
42
81
81
81
81
81
42
3C
ENDCHAR
STARTCHAR 0070
ENCODING 112
SWIDTH 540 0
DWIDTH 9 0
BBX 7 11 1 -2
BITMAP
B8
C4
82
82
82
82
82
C4
B8
80
80
ENDCHAR
STARTCHAR 0071
ENCODING 113
SWIDTH 540 0
DWIDTH 9 0
BBX 7 11 1 -2
BITMAP
3A
46
82
82
82
82
82
46
3A
02
02
ENDCHAR
STARTCHAR 0072
ENCODING 114
SWIDTH 300 0
DWIDTH 5 0
BBX 4 9 1 0
BITMAP
B0
C0
80
80
80
80
80
80
80
ENDCHAR
STARTCHAR 0073
ENCODING 115
SWIDTH 540 0
DWIDTH 9 0
BBX 7 9 1 0
BITMAP
7C
82
82
60
18
04
82
82
7C
ENDCHAR
STARTCHAR 0074
ENCODING 116
SWIDTH 300 0
DWIDTH 5 0
BBX 5 12 0 0
BITMAP
20
20
20
F8
20
20
20
20
20
20
20
18
ENDCHAR
STARTCHAR 0075
ENCODING 117
SWIDTH 540 0
DWIDTH 9 0
BBX 7 9 1 0
BITMAP
82
82
82
82
82
82
82
86
7A
ENDCHAR
STARTCHAR 0076
ENCODING 118
SWIDTH 480 0
DWIDTH 8 0
BBX 7 9 1 0
BITMAP
82
82
82
44
44
28
28
10
10
ENDCHAR
STARTCHAR 0077
ENCODING 119
SWIDTH 600 0
DWIDTH 10 0
BBX 9 9 1 0
BITMAP
8880
8880
8880
5500
5500
5500
2200
2200
2200
ENDCHAR
STARTCHAR 0078
ENCODING 120
SWIDTH 540 0
DWIDTH 9 0
BBX 7 9 1 0
BITMAP
82
82
44
28
10
28
44
82
82
ENDCHAR
STARTCHAR 0079
ENCODING 121
SWIDTH 480 0
DWIDTH 8 0
BBX 7 11 1 -2
BITMAP
82
82
82
44
44
28
28
10
10
20
C0
ENDCHAR
STARTCHAR 007A
ENCODING 122
SWIDTH 540 0
DWIDTH 9 0
BBX 7 9 1 0
BITMAP
FE
02
04
08
10
20
40
80
FE
ENDCHAR
STARTCHAR 007B
ENCODING 123
SWIDTH 480 0
DWIDTH 8 0
BBX 5 14 2 -1
BITMAP
18
20
20
20
20
20
C0
20
20
20
20
20
20
18
ENDCHAR
STARTCHAR 007C
ENCODING 124
SWIDTH 480 0
DWIDTH 8 0
BBX 1 14 4 -1
BITMAP
80
80
80
80
80
80
80
80
80
80
80
80
80
80
ENDCHAR
STARTCHAR 007D
ENCODING 125
SWIDTH 480 0
DWIDTH 8 0
BBX 5 14 2 -1
BITMAP
C0
20
20
20
20
20
18
20
20
20
20
20
20
C0
ENDCHAR
STARTCHAR 007E
ENCODING 126
SWIDTH 720 0
DWIDTH 12 0
BBX 10 2 1 5
BITMAP
7840
8780
ENDCHAR
STARTCHAR 007F
ENCODING 127
SWIDTH 540 0
DWIDTH 9 0
BBX 7 12 1 0
BITMAP
FE
82
82
82
82
82
82
82
82
82
82
FE
ENDCHAR
STARTCHAR 00A0
ENCODING 160
SWIDTH 480 0
DWIDTH 8 0
BBX 0 0 0 0
BITMAP
ENDCHAR
STARTCHAR 00A1
ENCODING 161
SWIDTH 360 0
DWIDTH 6 0
BBX 1 12 3 -2
BITMAP
80
80
00
00
80
80
80
80
80
80
80
80
ENDCHAR
STARTCHAR 00A2
ENCODING 162
SWIDTH 540 0
DWIDTH 9 0
BBX 7 12 1 -1
BITMAP
02
02
3C
46
88
88
90
90
A0
62
7C
40
ENDCHAR
STARTCHAR 00A3
ENCODING 163
SWIDTH 540 0
DWIDTH 9 0
BBX 8 11 0 0
BITMAP
0E
11
21
20
20
7F
10
10
71
99
66
ENDCHAR
STARTCHAR 00A4
ENCODING 164
SWIDTH 540 0
DWIDTH 9 0
BBX 7 7 1 1
BITMAP
BA
44
82
82
82
44
BA
ENDCHAR
STARTCHAR 00A5
ENCODING 165
SWIDTH 660 0
DWIDTH 11 0
BBX 9 11 1 0
BITMAP
8080
8080
4100
2200
FF80
1400
FF80
0800
0800
0800
0800
ENDCHAR
STARTCHAR 00A6
ENCODING 166
SWIDTH 300 0
DWIDTH 5 0
BBX 1 13 2 -2
BITMAP
80
80
80
80
80
00
00
80
80
80
80
80
80
ENDCHAR
STARTCHAR 00A7
ENCODING 167
SWIDTH 540 0
DWIDTH 9 0
BBX 5 15 2 -2
BITMAP
70
88
88
40
20
50
88
88
88
50
20
10
88
88
70
ENDCHAR
STARTCHAR 00A8
ENCODING 168
SWIDTH 480 0
DWIDTH 8 0
BBX 4 1 2 11
BITMAP
90
ENDCHAR
STARTCHAR 00A9
ENCODING 169
SWIDTH 840 0
DWIDTH 14 0
BBX 12 12 1 0
BITMAP
0F00
30C0
4620
4920
9090
9010
9010
9090
4920
4620
30C0
0F00
ENDCHAR
STARTCHAR 00AA
ENCODING 170
SWIDTH 360 0
DWIDTH 6 0
BBX 5 7 1 5
BITMAP
60
90
70
90
68
00
F8
ENDCHAR
STARTCHAR 00AB
ENCODING 171
SWIDTH 480 0
DWIDTH 8 0
BBX 6 5 1 4
BITMAP
24
48
90
48
24
ENDCHAR
STARTCHAR 00AC
ENCODING 172
SWIDTH 660 0
DWIDTH 11 0
BBX 11 4 0 4
BITMAP
FFE0
0020
0020
0020
ENDCHAR
STARTCHAR 00AD
ENCODING 173
SWIDTH 480 0
DWIDTH 8 0
BBX 4 1 2 6
BITMAP
F0
ENDCHAR
STARTCHAR 00AE
ENCODING 174
SWIDTH 840 0
DWIDTH 14 0
BBX 12 12 1 0
BITMAP
0F00
30C0
4F20
50A0
9090
9090
9F10
9090
50A0
50A0
30C0
0F00
ENDCHAR
STARTCHAR 00AF
ENCODING 175
SWIDTH 480 0
DWIDTH 8 0
BBX 4 1 2 10
BITMAP
F0
ENDCHAR
STARTCHAR 00B0
ENCODING 176
SWIDTH 360 0
DWIDTH 6 0
BBX 4 4 1 8
BITMAP
60
90
90
60
ENDCHAR
STARTCHAR 00B1
ENCODING 177
SWIDTH 780 0
DWIDTH 13 0
BBX 11 11 1 1
BITMAP
0400
0400
0400
0400
FFE0
0400
0400
0400
0400
0000
FFE0
ENDCHAR
STARTCHAR 00B2
ENCODING 178
SWIDTH 300 0
DWIDTH 5 0
BBX 4 6 1 5
BITMAP
60
90
10
20
40
F0
ENDCHAR
STARTCHAR 00B3
ENCODING 179
SWIDTH 300 0
DWIDTH 5 0
BBX 4 6 1 5
BITMAP
60
90
20
10
90
60
ENDCHAR
STARTCHAR 00B4
ENCODING 180
SWIDTH 360 0
DWIDTH 6 0
BBX 3 3 2 9
BITMAP
60
40
80
ENDCHAR
STARTCHAR 00B5
ENCODING 181
SWIDTH 540 0
DWIDTH 9 0
BBX 7 11 1 -2
BITMAP
82
82
82
82
82
82
82
C6
BA
80
80
ENDCHAR
STARTCHAR 00B6
ENCODING 182
SWIDTH 540 0
DWIDTH 9 0
BBX 7 13 1 -2
BITMAP
3E
7A
FA
FA
7A
3A
0A
0A
0A
0A
0A
0A
0A
ENDCHAR
STARTCHAR 00B7
ENCODING 183
SWIDTH 360 0
DWIDTH 6 0
BBX 1 1 3 6
BITMAP
80
ENDCHAR
STARTCHAR 00B8
ENCODING 184
SWIDTH 300 0
DWIDTH 5 0
BBX 3 4 1 -2
BITMAP
80
C0
20
C0
ENDCHAR
STARTCHAR 00B9
ENCODING 185
SWIDTH 360 0
DWIDTH 6 0
BBX 2 6 2 4
BITMAP
40
C0
40
40
40
40
ENDCHAR
STARTCHAR 00BA
ENCODING 186
SWIDTH 360 0
DWIDTH 6 0
BBX 5 7 1 5
BITMAP
70
88
88
88
70
00
F8
ENDCHAR
STARTCHAR 00BB
ENCODING 187
SWIDTH 480 0
DWIDTH 8 0
BBX 6 5 1 4
BITMAP
90
48
24
48
90
ENDCHAR
STARTCHAR 00BC
ENCODING 188
SWIDTH 480 0
DWIDTH 8 0
BBX 6 13 1 -2
BITMAP
10
30
10
10
10
10
FC
10
30
50
50
F8
10
ENDCHAR
STARTCHAR 00BD
ENCODING 189
SWIDTH 480 0
DWIDTH 8 0
BBX 6 13 1 -2
BITMAP
10
30
10
10
10
10
FC
30
48
48
10
20
78
ENDCHAR
STARTCHAR 00BE
ENCODING 190
SWIDTH 480 0
DWIDTH 8 0
BBX 6 13 1 -2
BITMAP
30
48
10
08
48
30
FC
10
30
50
50
F8
10
ENDCHAR
STARTCHAR 00BF
ENCODING 191
SWIDTH 540 0
DWIDTH 9 0
BBX 7 13 1 -2
BITMAP
10
10
00
10
10
10
20
40
80
82
82
44
38
ENDCHAR
STARTCHAR 00C0
ENCODING 192
SWIDTH 660 0
DWIDTH 11 0
BBX 9 14 1 0
BITMAP
1800
0800
0400
0800
0800
1400
1400
2200
2200
4100
7F00
8080
8080
8080
ENDCHAR
STARTCHAR 00C1
ENCODING 193
SWIDTH 660 0
DWIDTH 11 0
BBX 9 14 1 0
BITMAP
1800
1000
2000
0800
0800
1400
1400
2200
2200
4100
7F00
8080
8080
8080
ENDCHAR
STARTCHAR 00C2
ENCODING 194
SWIDTH 660 0
DWIDTH 11 0
BBX 9 14 1 0
BITMAP
0800
1400
2200
0800
0800
1400
1400
2200
2200
4100
7F00
8080
8080
8080
ENDCHAR
STARTCHAR 00C3
ENCODING 195
SWIDTH 660 0
DWIDTH 11 0
BBX 9 14 1 0
BITMAP
3200
4C00
0000
0800
0800
1400
1400
2200
2200
4100
7F00
8080
8080
8080
ENDCHAR
STARTCHAR 00C4
ENCODING 196
SWIDTH 660 0
DWIDTH 11 0
BBX 9 13 1 0
BITMAP
2200
0000
0800
0800
1400
1400
2200
2200
4100
7F00
8080
8080
8080
ENDCHAR
STARTCHAR 00C5
ENCODING 197
SWIDTH 660 0
DWIDTH 11 0
BBX 9 14 1 0
BITMAP
1800
2400
1800
0800
0800
1400
1400
2200
2200
4100
7F00
8080
8080
8080
ENDCHAR
STARTCHAR 00C6
ENCODING 198
SWIDTH 900 0
DWIDTH 15 0
BBX 13 11 1 0
BITMAP
07F8
0A00
0A00
1200
1200
23F0
3E00
4200
4200
8200
81F8
ENDCHAR
STARTCHAR 00C7
ENCODING 199
SWIDTH 720 0
DWIDTH 12 0
BBX 10 13 1 -2
BITMAP
1F00
2080
4040
8000
8000
8000
8000
8000
4040
2080
1F00
0200
0C00
ENDCHAR
STARTCHAR 00C8
ENCODING 200
SWIDTH 660 0
DWIDTH 11 0
BBX 9 14 1 0
BITMAP
1800
0800
0400
7F80
8000
8000
8000
8000
FF00
8000
8000
8000
8000
7F80
ENDCHAR
STARTCHAR 00C9
ENCODING 201
SWIDTH 660 0
DWIDTH 11 0
BBX 9 14 1 0
BITMAP
0C00
0800
1000
7F80
8000
8000
8000
8000
FF00
8000
8000
8000
8000
7F80
ENDCHAR
STARTCHAR 00CA
ENCODING 202
SWIDTH 660 0
DWIDTH 11 0
BBX 9 14 1 0
BITMAP
0800
1400
2200
7F80
8000
8000
8000
8000
FF00
8000
8000
8000
8000
7F80
ENDCHAR
STARTCHAR 00CB
ENCODING 203
SWIDTH 660 0
DWIDTH 11 0
BBX 9 13 1 0
BITMAP
2200
0000
7F80
8000
8000
8000
8000
FF00
8000
8000
8000
8000
7F80
ENDCHAR
STARTCHAR 00CC
ENCODING 204
SWIDTH 300 0
DWIDTH 5 0
BBX 3 14 1 0
BITMAP
C0
40
20
40
40
40
40
40
40
40
40
40
40
40
ENDCHAR
STARTCHAR 00CD
ENCODING 205
SWIDTH 300 0
DWIDTH 5 0
BBX 3 14 1 0
BITMAP
60
40
80
40
40
40
40
40
40
40
40
40
40
40
ENDCHAR
STARTCHAR 00CE
ENCODING 206
SWIDTH 300 0
DWIDTH 5 0
BBX 5 14 0 0
BITMAP
20
50
88
20
20
20
20
20
20
20
20
20
20
20
ENDCHAR
STARTCHAR 00CF
ENCODING 207
SWIDTH 300 0
DWIDTH 5 0
BBX 3 13 1 0
BITMAP
A0
00
40
40
40
40
40
40
40
40
40
40
40
ENDCHAR
STARTCHAR 00D0
ENCODING 208
SWIDTH 720 0
DWIDTH 12 0
BBX 11 11 0 0
BITMAP
1F00
2080
2040
2020
2020
FC20
2020
2020
2040
2080
1F00
ENDCHAR
STARTCHAR 00D1
ENCODING 209
SWIDTH 720 0
DWIDTH 12 0
BBX 10 14 1 0
BITMAP
1900
2600
0000
8040
C040
A040
9040
8840
8440
8440
8240
8140
80C0
8040
ENDCHAR
STARTCHAR 00D2
ENCODING 210
SWIDTH 780 0
DWIDTH 13 0
BBX 11 14 1 0
BITMAP
1800
0800
0400
1F00
2080
4040
8020
8020
8020
8020
8020
4040
2080
1F00
ENDCHAR
STARTCHAR 00D3
ENCODING 211
SWIDTH 780 0
DWIDTH 13 0
BBX 11 14 1 0
BITMAP
0600
0400
0800
1F00
2080
4040
8020
8020
8020
8020
8020
4040
2080
1F00
ENDCHAR
STARTCHAR 00D4
ENCODING 212
SWIDTH 780 0
DWIDTH 13 0
BBX 11 14 1 0
BITMAP
0400
0A00
1100
1F00
2080
4040
8020
8020
8020
8020
8020
4040
2080
1F00
ENDCHAR
STARTCHAR 00D5
ENCODING 213
SWIDTH 780 0
DWIDTH 13 0
BBX 11 14 1 0
BITMAP
1900
2600
0000
1F00
2080
4040
8020
8020
8020
8020
8020
4040
2080
1F00
ENDCHAR
STARTCHAR 00D6
ENCODING 214
SWIDTH 780 0
DWIDTH 13 0
BBX 11 13 1 0
BITMAP
1100
0000
1F00
2080
4040
8020
8020
8020
8020
8020
4040
2080
1F00
ENDCHAR
STARTCHAR 00D7
ENCODING 215
SWIDTH 780 0
DWIDTH 13 0
BBX 9 9 2 2
BITMAP
8080
4100
2200
1400
0800
1400
2200
4100
8080
ENDCHAR
STARTCHAR 00D8
ENCODING 216
SWIDTH 780 0
DWIDTH 13 0
BBX 11 13 1 -1
BITMAP
0040
1F40
2080
4140
8220
8220
8420
8820
8820
5040
2080
5F00
4000
ENDCHAR
STARTCHAR 00D9
ENCODING 217
SWIDTH 720 0
DWIDTH 12 0
BBX 10 14 1 0
BITMAP
1800
0800
0400
8040
8040
8040
8040
8040
8040
8040
8040
8040
4080
3F00
ENDCHAR
STARTCHAR 00DA
ENCODING 218
SWIDTH 720 0
DWIDTH 12 0
BBX 10 14 1 0
BITMAP
0C00
0800
1000
8040
8040
8040
8040
8040
8040
8040
8040
8040
4080
3F00
ENDCHAR
STARTCHAR 00DB
ENCODING 219
SWIDTH 720 0
DWIDTH 12 0
BBX 10 14 1 0
BITMAP
0C00
1200
2100
8040
8040
8040
8040
8040
8040
8040
8040
8040
4080
3F00
ENDCHAR
STARTCHAR 00DC
ENCODING 220
SWIDTH 720 0
DWIDTH 12 0
BBX 10 13 1 0
BITMAP
1200
0000
8040
8040
8040
8040
8040
8040
8040
8040
8040
4080
3F00
ENDCHAR
STARTCHAR 00DD
ENCODING 221
SWIDTH 600 0
DWIDTH 10 0
BBX 9 14 1 0
BITMAP
0C00
0800
1000
8080
4100
2200
2200
1400
0800
0800
0800
0800
0800
0800
ENDCHAR
STARTCHAR 00DE
ENCODING 222
SWIDTH 600 0
DWIDTH 10 0
BBX 8 12 1 0
BITMAP
80
80
FC
82
81
81
81
81
82
FC
80
80
ENDCHAR
STARTCHAR 00DF
ENCODING 223
SWIDTH 600 0
DWIDTH 10 0
BBX 8 11 1 0
BITMAP
38
44
82
82
8C
82
81
81
81
A2
9C
ENDCHAR
STARTCHAR 00E0
ENCODING 224
SWIDTH 540 0
DWIDTH 9 0
BBX 8 13 1 0
BITMAP
30
10
08
00
7C
82
02
1E
62
82
82
82
7D
ENDCHAR
STARTCHAR 00E1
ENCODING 225
SWIDTH 540 0
DWIDTH 9 0
BBX 8 13 1 0
BITMAP
18
10
20
00
7C
82
02
1E
62
82
82
82
7D
ENDCHAR
STARTCHAR 00E2
ENCODING 226
SWIDTH 540 0
DWIDTH 9 0
BBX 8 13 1 0
BITMAP
10
28
44
00
7C
82
02
1E
62
82
82
82
7D
ENDCHAR
STARTCHAR 00E3
ENCODING 227
SWIDTH 540 0
DWIDTH 9 0
BBX 8 12 1 0
BITMAP
32
4C
00
7C
82
02
1E
62
82
82
82
7D
ENDCHAR
STARTCHAR 00E4
ENCODING 228
SWIDTH 540 0
DWIDTH 9 0
BBX 8 11 1 0
BITMAP
24
00
7C
82
02
1E
62
82
82
82
7D
ENDCHAR
STARTCHAR 00E5
ENCODING 229
SWIDTH 540 0
DWIDTH 9 0
BBX 8 13 1 0
BITMAP
18
24
18
00
7C
82
02
1E
62
82
82
82
7D
ENDCHAR
STARTCHAR 00E6
ENCODING 230
SWIDTH 780 0
DWIDTH 13 0
BBX 11 9 1 0
BITMAP
7BC0
8420
0420
3FE0
4400
8400
8400
8420
7BC0
ENDCHAR
STARTCHAR 00E7
ENCODING 231
SWIDTH 540 0
DWIDTH 9 0
BBX 7 11 1 -2
BITMAP
3C
42
80
80
80
80
80
42
3C
08
30
ENDCHAR
STARTCHAR 00E8
ENCODING 232
SWIDTH 540 0
DWIDTH 9 0
BBX 7 13 1 0
BITMAP
30
10
08
00
38
44
82
82
FE
80
80
42
3C
ENDCHAR
STARTCHAR 00E9
ENCODING 233
SWIDTH 540 0
DWIDTH 9 0
BBX 7 13 1 0
BITMAP
18
10
20
00
38
44
82
82
FE
80
80
42
3C
ENDCHAR
STARTCHAR 00EA
ENCODING 234
SWIDTH 540 0
DWIDTH 9 0
BBX 7 13 1 0
BITMAP
10
28
44
00
38
44
82
82
FE
80
80
42
3C
ENDCHAR
STARTCHAR 00EB
ENCODING 235
SWIDTH 540 0
DWIDTH 9 0
BBX 7 11 1 0
BITMAP
24
00
38
44
82
82
FE
80
80
42
3C
ENDCHAR
STARTCHAR 00EC
ENCODING 236
SWIDTH 240 0
DWIDTH 4 0
BBX 3 12 1 0
BITMAP
C0
40
20
40
40
40
40
40
40
40
40
40
ENDCHAR
STARTCHAR 00ED
ENCODING 237
SWIDTH 240 0
DWIDTH 4 0
BBX 3 12 1 0
BITMAP
60
40
80
40
40
40
40
40
40
40
40
40
ENDCHAR
STARTCHAR 00EE
ENCODING 238
SWIDTH 240 0
DWIDTH 4 0
BBX 5 11 0 0
BITMAP
20
50
88
20
20
20
20
20
20
20
20
ENDCHAR
STARTCHAR 00EF
ENCODING 239
SWIDTH 240 0
DWIDTH 4 0
BBX 3 11 1 0
BITMAP
A0
00
40
40
40
40
40
40
40
40
40
ENDCHAR
STARTCHAR 00F0
ENCODING 240
SWIDTH 600 0
DWIDTH 10 0
BBX 8 11 1 0
BITMAP
16
08
34
02
3E
43
81
81
81
42
3C
ENDCHAR
STARTCHAR 00F1
ENCODING 241
SWIDTH 600 0
DWIDTH 10 0
BBX 7 12 1 0
BITMAP
64
98
00
B8
C4
82
82
82
82
82
82
82
ENDCHAR
STARTCHAR 00F2
ENCODING 242
SWIDTH 600 0
DWIDTH 10 0
BBX 8 13 1 0
BITMAP
18
08
04
00
3C
42
81
81
81
81
81
42
3C
ENDCHAR
STARTCHAR 00F3
ENCODING 243
SWIDTH 600 0
DWIDTH 10 0
BBX 8 13 1 0
BITMAP
0C
08
10
00
3C
42
81
81
81
81
81
42
3C
ENDCHAR
STARTCHAR 00F4
ENCODING 244
SWIDTH 600 0
DWIDTH 10 0
BBX 8 13 1 0
BITMAP
08
14
22
00
3C
42
81
81
81
81
81
42
3C
ENDCHAR
STARTCHAR 00F5
ENCODING 245
SWIDTH 600 0
DWIDTH 10 0
BBX 8 12 1 0
BITMAP
32
4C
00
3C
42
81
81
81
81
81
42
3C
ENDCHAR
STARTCHAR 00F6
ENCODING 246
SWIDTH 600 0
DWIDTH 10 0
BBX 8 11 1 0
BITMAP
24
00
3C
42
81
81
81
81
81
42
3C
ENDCHAR
STARTCHAR 00F7
ENCODING 247
SWIDTH 780 0
DWIDTH 13 0
BBX 11 9 1 2
BITMAP
0400
0000
0000
0000
FFE0
0000
0000
0000
0400
ENDCHAR
STARTCHAR 00F8
ENCODING 248
SWIDTH 600 0
DWIDTH 10 0
BBX 8 9 1 0
BITMAP
3D
42
85
89
89
91
A1
42
BC
ENDCHAR
STARTCHAR 00F9
ENCODING 249
SWIDTH 540 0
DWIDTH 9 0
BBX 7 13 1 0
BITMAP
30
10
08
00
82
82
82
82
82
82
82
46
3A
ENDCHAR
STARTCHAR 00FA
ENCODING 250
SWIDTH 540 0
DWIDTH 9 0
BBX 7 13 1 0
BITMAP
18
10
20
00
82
82
82
82
82
82
82
46
3A
ENDCHAR
STARTCHAR 00FB
ENCODING 251
SWIDTH 540 0
DWIDTH 9 0
BBX 7 13 1 0
BITMAP
10
28
44
00
82
82
82
82
82
82
82
46
3A
ENDCHAR
STARTCHAR 00FC
ENCODING 252
SWIDTH 540 0
DWIDTH 9 0
BBX 7 11 1 0
BITMAP
24
00
82
82
82
82
82
82
82
46
3A
ENDCHAR
STARTCHAR 00FD
ENCODING 253
SWIDTH 480 0
DWIDTH 8 0
BBX 6 15 1 -2
BITMAP
18
10
20
00
84
84
84
48
48
30
30
20
20
40
80
ENDCHAR
STARTCHAR 00FE
ENCODING 254
SWIDTH 600 0
DWIDTH 10 0
BBX 8 13 1 -2
BITMAP
80
80
BC
C2
81
81
81
81
81
C2
BC
80
80
ENDCHAR
STARTCHAR 00FF
ENCODING 255
SWIDTH 480 0
DWIDTH 8 0
BBX 6 13 1 -2
BITMAP
48
00
84
84
84
48
48
30
30
20
20
40
80
ENDCHAR
STARTCHAR 0100
ENCODING 256
SWIDTH 660 0
DWIDTH 11 0
BBX 9 13 1 0
BITMAP
3E00
0000
0800
0800
1400
1400
2200
2200
4100
7F00
8080
8080
8080
ENDCHAR
STARTCHAR 0101
ENCODING 257
SWIDTH 540 0
DWIDTH 9 0
BBX 8 11 1 0
BITMAP
7C
00
7C
82
02
1E
62
82
82
82
7D
ENDCHAR
STARTCHAR 0102
ENCODING 258
SWIDTH 660 0
DWIDTH 11 0
BBX 9 14 1 0
BITMAP
2200
1C00
0000
0800
0800
1400
1400
2200
2200
4100
7F00
8080
8080
8080
ENDCHAR
STARTCHAR 0103
ENCODING 259
SWIDTH 540 0
DWIDTH 9 0
BBX 8 12 1 0
BITMAP
44
38
00
7C
82
02
1E
62
82
82
82
7D
ENDCHAR
STARTCHAR 0104
ENCODING 260
SWIDTH 600 0
DWIDTH 10 0
BBX 10 13 0 -2
BITMAP
0800
0800
1400
1400
2200
2200
4100
7F00
8080
8080
8080
0100
00C0
ENDCHAR
STARTCHAR 0105
ENCODING 261
SWIDTH 540 0
DWIDTH 9 0
BBX 8 11 1 -2
BITMAP
7C
82
02
1E
62
82
82
82
7D
04
03
ENDCHAR
STARTCHAR 0106
ENCODING 262
SWIDTH 720 0
DWIDTH 12 0
BBX 10 14 1 0
BITMAP
0600
0400
0800
1F00
2080
4040
8000
8000
8000
8000
8000
4040
2080
1F00
ENDCHAR
STARTCHAR 0107
ENCODING 263
SWIDTH 540 0
DWIDTH 9 0
BBX 7 13 1 0
BITMAP
0C
08
10
00
3C
42
80
80
80
80
80
42
3C
ENDCHAR
STARTCHAR 0108
ENCODING 264
SWIDTH 720 0
DWIDTH 12 0
BBX 10 14 1 0
BITMAP
0400
0A00
1100
1F00
2080
4040
8000
8000
8000
8000
8000
4040
2080
1F00
ENDCHAR
STARTCHAR 0109
ENCODING 265
SWIDTH 540 0
DWIDTH 9 0
BBX 7 13 1 0
BITMAP
10
28
44
00
3C
42
80
80
80
80
80
42
3C
ENDCHAR
STARTCHAR 010A
ENCODING 266
SWIDTH 720 0
DWIDTH 12 0
BBX 10 13 1 0
BITMAP
0400
0000
1F00
2080
4040
8000
8000
8000
8000
8000
4040
2080
1F00
ENDCHAR
STARTCHAR 010B
ENCODING 267
SWIDTH 540 0
DWIDTH 9 0
BBX 7 11 1 0
BITMAP
10
00
3C
42
80
80
80
80
80
42
3C
ENDCHAR
STARTCHAR 010C
ENCODING 268
SWIDTH 720 0
DWIDTH 12 0
BBX 10 14 1 0
BITMAP
1100
0A00
0400
1F00
2080
4040
8000
8000
8000
8000
8000
4040
2080
1F00
ENDCHAR
STARTCHAR 010D
ENCODING 269
SWIDTH 540 0
DWIDTH 9 0
BBX 7 13 1 0
BITMAP
44
28
10
00
3C
42
80
80
80
80
80
42
3C
ENDCHAR
STARTCHAR 010E
ENCODING 270
SWIDTH 720 0
DWIDTH 12 0
BBX 10 14 1 0
BITMAP
2200
1400
0800
7E00
8100
8080
8040
8040
8040
8040
8040
8080
8100
7E00
ENDCHAR
STARTCHAR 010F
ENCODING 271
SWIDTH 600 0
DWIDTH 10 0
BBX 9 14 1 0
BITMAP
0880
0500
0200
0100
0100
3D00
4300
8100
8100
8100
8100
8100
4300
3D00
ENDCHAR
STARTCHAR 0110
ENCODING 272
SWIDTH 720 0
DWIDTH 12 0
BBX 11 11 0 0
BITMAP
3F00
4080
4040
4020
4020
FC20
4020
4020
4040
4080
3F00
ENDCHAR
STARTCHAR 0111
ENCODING 273
SWIDTH 600 0
DWIDTH 10 0
BBX 9 11 1 0
BITMAP
0200
3F80
0200
3A00
4600
8200
8200
8200
8200
4600
3A00
ENDCHAR
STARTCHAR 0112
ENCODING 274
SWIDTH 660 0
DWIDTH 11 0
BBX 9 13 1 0
BITMAP
3E00
0000
7F80
8000
8000
8000
8000
FF00
8000
8000
8000
8000
7F80
ENDCHAR
STARTCHAR 0113
ENCODING 275
SWIDTH 540 0
DWIDTH 9 0
BBX 7 11 1 0
BITMAP
7C
00
38
44
82
82
FE
80
80
42
3C
ENDCHAR
STARTCHAR 0114
ENCODING 276
SWIDTH 600 0
DWIDTH 10 0
BBX 8 14 1 0
BITMAP
22
1C
00
7F
80
80
80
80
FE
80
80
80
80
7F
ENDCHAR
STARTCHAR 0115
ENCODING 277
SWIDTH 540 0
DWIDTH 9 0
BBX 7 12 1 0
BITMAP
44
38
00
38
44
82
82
FE
80
80
42
3C
ENDCHAR
STARTCHAR 0116
ENCODING 278
SWIDTH 660 0
DWIDTH 11 0
BBX 9 13 1 0
BITMAP
0800
0000
7F80
8000
8000
8000
8000
FF00
8000
8000
8000
8000
7F80
ENDCHAR
STARTCHAR 0117
ENCODING 279
SWIDTH 540 0
DWIDTH 9 0
BBX 7 11 1 0
BITMAP
10
00
38
44
82
82
FE
80
80
42
3C
ENDCHAR
STARTCHAR 0118
ENCODING 280
SWIDTH 660 0
DWIDTH 11 0
BBX 9 13 1 -2
BITMAP
7F80
8000
8000
8000
8000
FF00
8000
8000
8000
8000
7F80
1000
0C00
ENDCHAR
STARTCHAR 0119
ENCODING 281
SWIDTH 540 0
DWIDTH 9 0
BBX 7 11 1 -2
BITMAP
38
44
82
82
FE
80
80
42
3C
08
06
ENDCHAR
STARTCHAR 011A
ENCODING 282
SWIDTH 660 0
DWIDTH 11 0
BBX 9 14 1 0
BITMAP
2200
1400
0800
7F80
8000
8000
8000
8000
FF00
8000
8000
8000
8000
7F80
ENDCHAR
STARTCHAR 011B
ENCODING 283
SWIDTH 540 0
DWIDTH 9 0
BBX 7 13 1 0
BITMAP
44
28
10
00
38
44
82
82
FE
80
80
42
3C
ENDCHAR
STARTCHAR 011C
ENCODING 284
SWIDTH 780 0
DWIDTH 13 0
BBX 11 14 1 0
BITMAP
0400
0A00
1100
1F80
2040
4020
8000
8000
87C0
8020
8020
4060
20A0
1F20
ENDCHAR
STARTCHAR 011D
ENCODING 285
SWIDTH 600 0
DWIDTH 10 0
BBX 8 15 1 -2
BITMAP
08
14
22
00
3D
43
81
81
81
81
43
3D
01
82
7C
ENDCHAR
STARTCHAR 011E
ENCODING 286
SWIDTH 780 0
DWIDTH 13 0
BBX 11 14 1 0
BITMAP
1100
0E00
0000
1F80
2040
4020
8000
8000
87C0
8020
8020
4060
20A0
1F20
ENDCHAR
STARTCHAR 011F
ENCODING 287
SWIDTH 600 0
DWIDTH 10 0
BBX 8 14 1 -2
BITMAP
22
1C
00
3D
43
81
81
81
81
43
3D
01
82
7C
ENDCHAR
STARTCHAR 0120
ENCODING 288
SWIDTH 780 0
DWIDTH 13 0
BBX 11 13 1 0
BITMAP
0400
0000
1F80
2040
4020
8000
8000
87C0
8020
8020
4060
20A0
1F20
ENDCHAR
STARTCHAR 0121
ENCODING 289
SWIDTH 600 0
DWIDTH 10 0
BBX 8 13 1 -2
BITMAP
08
00
3D
43
81
81
81
81
43
3D
01
82
7C
ENDCHAR
STARTCHAR 0122
ENCODING 290
SWIDTH 780 0
DWIDTH 13 0
BBX 11 13 1 -2
BITMAP
1F80
2040
4020
8000
8000
87C0
8020
8020
4060
20A0
1F20
0100
0600
ENDCHAR
STARTCHAR 0123
ENCODING 291
SWIDTH 600 0
DWIDTH 10 0
BBX 8 15 1 -2
BITMAP
04
08
08
00
3D
43
81
81
81
81
43
3D
01
82
7C
ENDCHAR
STARTCHAR 0124
ENCODING 292
SWIDTH 720 0
DWIDTH 12 0
BBX 10 14 1 0
BITMAP
0400
0A00
1100
8040
8040
8040
8040
8040
FFC0
8040
8040
8040
8040
8040
ENDCHAR
STARTCHAR 0125
ENCODING 293
SWIDTH 540 0
DWIDTH 9 0
BBX 8 14 0 0
BITMAP
20
50
88
40
40
5C
62
41
41
41
41
41
41
41
ENDCHAR
STARTCHAR 0126
ENCODING 294
SWIDTH 720 0
DWIDTH 12 0
BBX 12 11 0 0
BITMAP
4020
4020
FFF0
4020
4020
7FE0
4020
4020
4020
4020
4020
ENDCHAR
STARTCHAR 0127
ENCODING 295
SWIDTH 540 0
DWIDTH 9 0
BBX 8 11 0 0
BITMAP
40
F8
40
5C
62
41
41
41
41
41
41
ENDCHAR
STARTCHAR 0128
ENCODING 296
SWIDTH 300 0
DWIDTH 5 0
BBX 5 14 0 0
BITMAP
48
B0
00
20
20
20
20
20
20
20
20
20
20
20
ENDCHAR
STARTCHAR 0129
ENCODING 297
SWIDTH 240 0
DWIDTH 4 0
BBX 5 12 0 0
BITMAP
48
B0
00
20
20
20
20
20
20
20
20
20
ENDCHAR
STARTCHAR 012A
ENCODING 298
SWIDTH 300 0
DWIDTH 5 0
BBX 5 13 0 0
BITMAP
F8
00
20
20
20
20
20
20
20
20
20
20
20
ENDCHAR
STARTCHAR 012B
ENCODING 299
SWIDTH 240 0
DWIDTH 4 0
BBX 3 11 1 0
BITMAP
E0
00
40
40
40
40
40
40
40
40
40
ENDCHAR
STARTCHAR 012C
ENCODING 300
SWIDTH 300 0
DWIDTH 5 0
BBX 5 14 0 0
BITMAP
88
70
00
20
20
20
20
20
20
20
20
20
20
20
ENDCHAR
STARTCHAR 012D
ENCODING 301
SWIDTH 240 0
DWIDTH 4 0
BBX 4 12 0 0
BITMAP
90
60
00
20
20
20
20
20
20
20
20
20
ENDCHAR
STARTCHAR 012E
ENCODING 302
SWIDTH 300 0
DWIDTH 5 0
BBX 3 13 1 -2
BITMAP
40
40
40
40
40
40
40
40
40
40
40
80
60
ENDCHAR
STARTCHAR 012F
ENCODING 303
SWIDTH 240 0
DWIDTH 4 0
BBX 3 13 1 -2
BITMAP
40
00
40
40
40
40
40
40
40
40
40
80
60
ENDCHAR
STARTCHAR 0130
ENCODING 304
SWIDTH 300 0
DWIDTH 5 0
BBX 1 13 2 0
BITMAP
80
00
80
80
80
80
80
80
80
80
80
80
80
ENDCHAR
STARTCHAR 0131
ENCODING 305
SWIDTH 240 0
DWIDTH 4 0
BBX 1 9 2 0
BITMAP
80
80
80
80
80
80
80
80
80
ENDCHAR
STARTCHAR 0132
ENCODING 306
SWIDTH 660 0
DWIDTH 11 0
BBX 9 11 1 0
BITMAP
8080
8080
8080
8080
8080
8080
8080
A080
A080
9100
8E00
ENDCHAR
STARTCHAR 0133
ENCODING 307
SWIDTH 540 0
DWIDTH 9 0
BBX 5 13 2 -2
BITMAP
88
00
88
88
88
88
88
88
88
88
88
08
30
ENDCHAR
STARTCHAR 0134
ENCODING 308
SWIDTH 540 0
DWIDTH 9 0
BBX 8 14 1 0
BITMAP
04
0A
11
02
02
02
02
02
02
02
82
82
44
38
ENDCHAR
STARTCHAR 0135
ENCODING 309
SWIDTH 240 0
DWIDTH 4 0
BBX 5 15 0 -2
BITMAP
20
50
88
00
20
20
20
20
20
20
20
20
20
20
C0
ENDCHAR
STARTCHAR 0136
ENCODING 310
SWIDTH 660 0
DWIDTH 11 0
BBX 9 13 1 -2
BITMAP
8100
8200
8400
8800
9000
B000
C800
8400
8200
8100
8880
0400
1800
ENDCHAR
STARTCHAR 0137
ENCODING 311
SWIDTH 540 0
DWIDTH 9 0
BBX 7 13 1 -2
BITMAP
80
80
84
88
90
A0
E0
90
88
84
92
08
30
ENDCHAR
STARTCHAR 0138
ENCODING 312
SWIDTH 540 0
DWIDTH 9 0
BBX 7 9 1 0
BITMAP
84
88
90
A0
E0
90
88
84
82
ENDCHAR
STARTCHAR 0139
ENCODING 313
SWIDTH 540 0
DWIDTH 9 0
BBX 9 14 0 0
BITMAP
6000
4000
8000
4000
4000
4000
4000
4000
4000
4000
4000
4000
4000
3F80
ENDCHAR
STARTCHAR 013A
ENCODING 314
SWIDTH 240 0
DWIDTH 4 0
BBX 3 14 1 0
BITMAP
60
40
80
40
40
40
40
40
40
40
40
40
40
40
ENDCHAR
STARTCHAR 013B
ENCODING 315
SWIDTH 540 0
DWIDTH 9 0
BBX 8 13 1 -2
BITMAP
80
80
80
80
80
80
80
80
80
80
7F
08
30
ENDCHAR
STARTCHAR 013C
ENCODING 316
SWIDTH 240 0
DWIDTH 4 0
BBX 3 13 1 -2
BITMAP
40
40
40
40
40
40
40
40
40
40
40
20
C0
ENDCHAR
STARTCHAR 013D
ENCODING 317
SWIDTH 540 0
DWIDTH 9 0
BBX 9 14 0 0
BITMAP
8800
5000
2000
4000
4000
4000
4000
4000
4000
4000
4000
4000
4000
3F80
ENDCHAR
STARTCHAR 013E
ENCODING 318
SWIDTH 240 0
DWIDTH 4 0
BBX 3 14 1 0
BITMAP
A0
40
00
40
40
40
40
40
40
40
40
40
40
40
ENDCHAR
STARTCHAR 013F
ENCODING 319
SWIDTH 540 0
DWIDTH 9 0
BBX 8 11 1 0
BITMAP
80
80
80
80
88
80
80
80
80
80
7F
ENDCHAR
STARTCHAR 0140
ENCODING 320
SWIDTH 300 0
DWIDTH 5 0
BBX 4 11 1 0
BITMAP
80
80
80
80
80
90
80
80
80
80
80
ENDCHAR
STARTCHAR 0141
ENCODING 321
SWIDTH 540 0
DWIDTH 9 0
BBX 9 11 0 0
BITMAP
4000
4400
4800
5000
6000
4000
C000
4000
4000
4000
3F80
ENDCHAR
STARTCHAR 0142
ENCODING 322
SWIDTH 240 0
DWIDTH 4 0
BBX 4 11 0 0
BITMAP
20
20
30
20
60
A0
20
20
20
20
20
ENDCHAR
STARTCHAR 0143
ENCODING 323
SWIDTH 720 0
DWIDTH 12 0
BBX 10 14 1 0
BITMAP
0600
0400
0800
8040
C040
A040
9040
8840
8840
8440
8240
8140
80C0
8040
ENDCHAR
STARTCHAR 0144
ENCODING 324
SWIDTH 600 0
DWIDTH 10 0
BBX 7 13 1 0
BITMAP
18
10
20
00
B8
C4
82
82
82
82
82
82
82
ENDCHAR
STARTCHAR 0145
ENCODING 325
SWIDTH 720 0
DWIDTH 12 0
BBX 10 13 1 -2
BITMAP
8040
C040
A040
9040
8840
8840
8440
8240
8140
80C0
8440
0200
0C00
ENDCHAR
STARTCHAR 0146
ENCODING 326
SWIDTH 600 0
DWIDTH 10 0
BBX 7 11 1 -2
BITMAP
B8
C4
82
82
82
82
82
82
92
08
30
ENDCHAR
STARTCHAR 0147
ENCODING 327
SWIDTH 720 0
DWIDTH 12 0
BBX 10 14 1 0
BITMAP
1100
0A00
0400
8040
C040
A040
9040
8840
8840
8440
8240
8140
80C0
8040
ENDCHAR
STARTCHAR 0148
ENCODING 328
SWIDTH 600 0
DWIDTH 10 0
BBX 7 13 1 0
BITMAP
44
28
10
00
B8
C4
82
82
82
82
82
82
82
ENDCHAR
STARTCHAR 0149
ENCODING 329
SWIDTH 660 0
DWIDTH 11 0
BBX 9 11 1 0
BITMAP
4000
4000
AE00
3100
2080
2080
2080
2080
2080
2080
2080
ENDCHAR
STARTCHAR 014A
ENCODING 330
SWIDTH 720 0
DWIDTH 12 0
BBX 10 13 1 -2
BITMAP
8040
C040
A040
9040
8840
8840
8440
8240
8140
80C0
8040
0840
0780
ENDCHAR
STARTCHAR 014B
ENCODING 331
SWIDTH 600 0
DWIDTH 10 0
BBX 7 11 1 -2
BITMAP
B8
C4
82
82
82
82
82
82
02
22
1C
ENDCHAR
STARTCHAR 014C
ENCODING 332
SWIDTH 780 0
DWIDTH 13 0
BBX 11 13 1 0
BITMAP
1F00
0000
1F00
2080
4040
8020
8020
8020
8020
8020
4040
2080
1F00
ENDCHAR
STARTCHAR 014D
ENCODING 333
SWIDTH 600 0
DWIDTH 10 0
BBX 8 11 1 0
BITMAP
3C
00
3C
42
81
81
81
81
81
42
3C
ENDCHAR
STARTCHAR 014E
ENCODING 334
SWIDTH 780 0
DWIDTH 13 0
BBX 11 14 1 0
BITMAP
1100
0E00
0000
1F00
2080
4040
8020
8020
8020
8020
8020
4040
2080
1F00
ENDCHAR
STARTCHAR 014F
ENCODING 335
SWIDTH 600 0
DWIDTH 10 0
BBX 8 12 1 0
BITMAP
22
1C
00
3C
42
81
81
81
81
81
42
3C
ENDCHAR
STARTCHAR 0150
ENCODING 336
SWIDTH 780 0
DWIDTH 13 0
BBX 11 14 1 0
BITMAP
1B00
1200
2400
1F00
2080
4040
8020
8020
8020
8020
8020
4040
2080
1F00
ENDCHAR
STARTCHAR 0151
ENCODING 337
SWIDTH 600 0
DWIDTH 10 0
BBX 8 12 1 0
BITMAP
36
24
48
3C
42
81
81
81
81
81
42
3C
ENDCHAR
STARTCHAR 0152
ENCODING 338
SWIDTH 840 0
DWIDTH 14 0
BBX 13 11 1 0
BITMAP
1FF8
2200
4200
8200
8200
83F0
8200
8200
4200
2200
1FF8
ENDCHAR
STARTCHAR 0153
ENCODING 339
SWIDTH 900 0
DWIDTH 15 0
BBX 13 9 1 0
BITMAP
38E0
4510
8208
8208
83F8
8200
8200
4508
38F0
ENDCHAR
STARTCHAR 0154
ENCODING 340
SWIDTH 660 0
DWIDTH 11 0
BBX 9 14 1 0
BITMAP
0C00
0800
1000
7E00
8100
8080
8080
8100
FE00
8100
8080
8080
8080
8080
ENDCHAR
STARTCHAR 0155
ENCODING 341
SWIDTH 300 0
DWIDTH 5 0
BBX 4 13 1 0
BITMAP
60
40
80
00
B0
C0
80
80
80
80
80
80
80
ENDCHAR
STARTCHAR 0156
ENCODING 342
SWIDTH 660 0
DWIDTH 11 0
BBX 9 13 1 -2
BITMAP
7E00
8100
8080
8080
8100
FE00
8100
8080
8080
8080
8880
0400
1800
ENDCHAR
STARTCHAR 0157
ENCODING 343
SWIDTH 300 0
DWIDTH 5 0
BBX 5 11 0 -2
BITMAP
58
60
40
40
40
40
40
40
40
20
C0
ENDCHAR
STARTCHAR 0158
ENCODING 344
SWIDTH 660 0
DWIDTH 11 0
BBX 9 14 1 0
BITMAP
4400
2800
1000
7E00
8100
8080
8080
8100
FE00
8100
8080
8080
8080
8080
ENDCHAR
STARTCHAR 0159
ENCODING 345
SWIDTH 300 0
DWIDTH 5 0
BBX 5 13 0 0
BITMAP
88
50
20
00
58
60
40
40
40
40
40
40
40
ENDCHAR
STARTCHAR 015A
ENCODING 346
SWIDTH 660 0
DWIDTH 11 0
BBX 9 14 1 0
BITMAP
0C00
0800
1000
3E00
4100
8080
8000
6000
1C00
0300
0080
8080
4100
3E00
ENDCHAR
STARTCHAR 015B
ENCODING 347
SWIDTH 540 0
DWIDTH 9 0
BBX 7 13 1 0
BITMAP
18
10
20
00
7C
82
80
60
18
04
02
82
7C
ENDCHAR
STARTCHAR 015C
ENCODING 348
SWIDTH 660 0
DWIDTH 11 0
BBX 9 14 1 0
BITMAP
0800
1400
2200
3E00
4100
8080
8000
6000
1C00
0300
0080
8080
4100
3E00
ENDCHAR
STARTCHAR 015D
ENCODING 349
SWIDTH 540 0
DWIDTH 9 0
BBX 7 13 1 0
BITMAP
10
28
44
00
7C
82
80
60
18
04
02
82
7C
ENDCHAR
STARTCHAR 015E
ENCODING 350
SWIDTH 660 0
DWIDTH 11 0
BBX 9 13 1 -2
BITMAP
3E00
4100
8080
8000
6000
1C00
0300
0080
8080
4100
3E00
0400
1800
ENDCHAR
STARTCHAR 015F
ENCODING 351
SWIDTH 540 0
DWIDTH 9 0
BBX 7 11 1 -2
BITMAP
7C
82
80
60
18
04
02
82
7C
08
30
ENDCHAR
STARTCHAR 0160
ENCODING 352
SWIDTH 660 0
DWIDTH 11 0
BBX 9 14 1 0
BITMAP
2200
1400
0800
3E00
4100
8080
8000
6000
1C00
0300
0080
8080
4100
3E00
ENDCHAR
STARTCHAR 0161
ENCODING 353
SWIDTH 540 0
DWIDTH 9 0
BBX 7 13 1 0
BITMAP
44
28
10
00
7C
82
80
60
18
04
02
82
7C
ENDCHAR
STARTCHAR 0162
ENCODING 354
SWIDTH 540 0
DWIDTH 9 0
BBX 9 13 0 -2
BITMAP
FF80
0800
0800
0800
0800
0800
0800
0800
0800
0800
0800
0400
1800
ENDCHAR
STARTCHAR 0163
ENCODING 355
SWIDTH 300 0
DWIDTH 5 0
BBX 5 13 0 -2
BITMAP
20
20
F8
20
20
20
20
20
20
20
18
10
60
ENDCHAR
STARTCHAR 0164
ENCODING 356
SWIDTH 540 0
DWIDTH 9 0
BBX 9 14 0 0
BITMAP
2200
1400
0800
FF80
0800
0800
0800
0800
0800
0800
0800
0800
0800
0800
ENDCHAR
STARTCHAR 0165
ENCODING 357
SWIDTH 300 0
DWIDTH 5 0
BBX 5 14 0 0
BITMAP
88
50
20
00
20
20
F8
20
20
20
20
20
20
18
ENDCHAR
STARTCHAR 0166
ENCODING 358
SWIDTH 540 0
DWIDTH 9 0
BBX 9 11 0 0
BITMAP
FF80
0800
0800
7F00
0800
0800
0800
0800
0800
0800
0800
ENDCHAR
STARTCHAR 0167
ENCODING 359
SWIDTH 300 0
DWIDTH 5 0
BBX 5 11 0 0
BITMAP
20
20
F8
20
70
20
20
20
20
20
18
ENDCHAR
STARTCHAR 0168
ENCODING 360
SWIDTH 720 0
DWIDTH 12 0
BBX 10 14 1 0
BITMAP
1900
2600
0000
8040
8040
8040
8040
8040
8040
8040
8040
8040
4080
3F00
ENDCHAR
STARTCHAR 0169
ENCODING 361
SWIDTH 540 0
DWIDTH 9 0
BBX 7 12 1 0
BITMAP
32
4C
00
82
82
82
82
82
82
82
46
3A
ENDCHAR
STARTCHAR 016A
ENCODING 362
SWIDTH 720 0
DWIDTH 12 0
BBX 10 13 1 0
BITMAP
3F00
0000
8040
8040
8040
8040
8040
8040
8040
8040
8040
4080
3F00
ENDCHAR
STARTCHAR 016B
ENCODING 363
SWIDTH 540 0
DWIDTH 9 0
BBX 7 11 1 0
BITMAP
7C
00
82
82
82
82
82
82
82
46
3A
ENDCHAR
STARTCHAR 016C
ENCODING 364
SWIDTH 720 0
DWIDTH 12 0
BBX 9 14 2 0
BITMAP
2200
1C00
0000
8080
8080
8080
8080
8080
8080
8080
8080
8080
4100
3E00
ENDCHAR
STARTCHAR 016D
ENCODING 365
SWIDTH 540 0
DWIDTH 9 0
BBX 7 12 1 0
BITMAP
44
38
00
82
82
82
82
82
82
82
46
3A
ENDCHAR
STARTCHAR 016E
ENCODING 366
SWIDTH 720 0
DWIDTH 12 0
BBX 9 14 2 0
BITMAP
1800
2400
1800
8080
8080
8080
8080
8080
8080
8080
8080
8080
4100
3E00
ENDCHAR
STARTCHAR 016F
ENCODING 367
SWIDTH 540 0
DWIDTH 9 0
BBX 7 13 1 0
BITMAP
18
24
18
00
82
82
82
82
82
82
82
46
3A
ENDCHAR
STARTCHAR 0170
ENCODING 368
SWIDTH 720 0
DWIDTH 12 0
BBX 9 14 2 0
BITMAP
1B00
1200
2400
8080
8080
8080
8080
8080
8080
8080
8080
8080
4100
3E00
ENDCHAR
STARTCHAR 0171
ENCODING 369
SWIDTH 540 0
DWIDTH 9 0
BBX 7 13 1 0
BITMAP
36
24
48
00
82
82
82
82
82
82
82
46
3A
ENDCHAR
STARTCHAR 0172
ENCODING 370
SWIDTH 720 0
DWIDTH 12 0
BBX 10 13 1 -2
BITMAP
8040
8040
8040
8040
8040
8040
8040
8040
8040
4080
3F00
0800
0600
ENDCHAR
STARTCHAR 0173
ENCODING 371
SWIDTH 540 0
DWIDTH 9 0
BBX 7 11 1 -2
BITMAP
82
82
82
82
82
82
82
46
3A
08
06
ENDCHAR
STARTCHAR 0174
ENCODING 372
SWIDTH 900 0
DWIDTH 15 0
BBX 13 14 1 0
BITMAP
0200
0500
0880
8208
8208
4510
4510
4510
28A0
28A0
28A0
1040
1040
1040
ENDCHAR
STARTCHAR 0175
ENCODING 373
SWIDTH 720 0
DWIDTH 12 0
BBX 10 13 1 0
BITMAP
0C00
1200
2100
0000
8C40
8C40
8C40
5280
5280
5280
2100
2100
2100
ENDCHAR
STARTCHAR 0176
ENCODING 374
SWIDTH 600 0
DWIDTH 10 0
BBX 9 14 1 0
BITMAP
0800
1400
2200
8080
8080
4100
2200
2200
1400
0800
0800
0800
0800
0800
ENDCHAR
STARTCHAR 0177
ENCODING 375
SWIDTH 480 0
DWIDTH 8 0
BBX 7 15 1 -2
BITMAP
10
28
44
00
82
82
82
44
44
28
28
10
10
20
C0
ENDCHAR
STARTCHAR 0178
ENCODING 376
SWIDTH 600 0
DWIDTH 10 0
BBX 9 13 1 0
BITMAP
1400
0000
8080
8080
4100
2200
2200
1400
0800
0800
0800
0800
0800
ENDCHAR
STARTCHAR 0179
ENCODING 377
SWIDTH 600 0
DWIDTH 10 0
BBX 8 14 1 0
BITMAP
0C
08
10
FF
01
02
04
08
08
10
20
40
80
FF
ENDCHAR
STARTCHAR 017A
ENCODING 378
SWIDTH 480 0
DWIDTH 8 0
BBX 6 13 1 0
BITMAP
18
10
20
00
FC
04
08
10
20
20
40
80
FC
ENDCHAR
STARTCHAR 017B
ENCODING 379
SWIDTH 600 0
DWIDTH 10 0
BBX 8 13 1 0
BITMAP
08
00
FF
01
02
04
08
08
10
20
40
80
FF
ENDCHAR
STARTCHAR 017C
ENCODING 380
SWIDTH 480 0
DWIDTH 8 0
BBX 6 11 1 0
BITMAP
10
00
FC
04
08
10
10
20
40
80
FC
ENDCHAR
STARTCHAR 017D
ENCODING 381
SWIDTH 600 0
DWIDTH 10 0
BBX 8 14 1 0
BITMAP
22
14
08
FF
01
02
04
08
08
10
20
40
80
FF
ENDCHAR
STARTCHAR 017E
ENCODING 382
SWIDTH 480 0
DWIDTH 8 0
BBX 6 13 1 0
BITMAP
44
28
10
00
FC
04
08
10
10
20
40
80
FC
ENDCHAR
STARTCHAR 017F
ENCODING 383
SWIDTH 360 0
DWIDTH 6 0
BBX 4 11 1 0
BITMAP
30
40
40
C0
40
40
40
40
40
40
40
ENDCHAR
STARTCHAR 0192
ENCODING 402
SWIDTH 420 0
DWIDTH 7 0
BBX 6 13 1 -2
BITMAP
0C
10
10
7C
10
10
10
10
10
10
10
90
60
ENDCHAR
STARTCHAR 01FA
ENCODING 506
SWIDTH 660 0
DWIDTH 11 0
BBX 9 14 1 0
BITMAP
0600
0400
0C00
1200
0C00
1400
1400
2200
2200
4100
7F00
8080
8080
8080
ENDCHAR
STARTCHAR 01FB
ENCODING 507
SWIDTH 540 0
DWIDTH 9 0
BBX 8 14 1 0
BITMAP
0C
08
18
24
24
18
7C
82
02
1E
62
82
82
7D
ENDCHAR
STARTCHAR 01FC
ENCODING 508
SWIDTH 900 0
DWIDTH 15 0
BBX 13 14 1 0
BITMAP
00C0
0080
0100
07F8
0A00
0A00
1200
1200
23F0
3E00
4200
4200
8200
81F8
ENDCHAR
STARTCHAR 01FD
ENCODING 509
SWIDTH 780 0
DWIDTH 13 0
BBX 11 13 1 0
BITMAP
0600
0400
0800
0000
7BC0
8420
0420
3FE0
4400
8400
8400
8420
7BC0
ENDCHAR
STARTCHAR 01FE
ENCODING 510
SWIDTH 780 0
DWIDTH 13 0
BBX 11 15 1 -1
BITMAP
0600
0400
0840
1F40
2080
4140
8220
8220
8420
8820
8820
5040
2080
5F00
4000
ENDCHAR
STARTCHAR 01FF
ENCODING 511
SWIDTH 600 0
DWIDTH 10 0
BBX 8 13 1 0
BITMAP
0C
08
10
00
3D
42
85
89
89
91
A1
42
BC
ENDCHAR
STARTCHAR 02C6
ENCODING 710
SWIDTH 360 0
DWIDTH 6 0
BBX 5 3 1 10
BITMAP
20
50
88
ENDCHAR
STARTCHAR 02C7
ENCODING 711
SWIDTH 420 0
DWIDTH 7 0
BBX 5 3 1 10
BITMAP
88
50
20
ENDCHAR
STARTCHAR 02C9
ENCODING 713
SWIDTH 420 0
DWIDTH 7 0
BBX 5 1 1 10
BITMAP
F8
ENDCHAR
STARTCHAR 02D0
ENCODING 720
SWIDTH 960 0
DWIDTH 16 0
BBX 3 8 7 2
BITMAP
E0
40
00
00
00
00
40
E0
ENDCHAR
STARTCHAR 02D8
ENCODING 728
SWIDTH 420 0
DWIDTH 7 0
BBX 5 2 1 10
BITMAP
88
70
ENDCHAR
STARTCHAR 02D9
ENCODING 729
SWIDTH 300 0
DWIDTH 5 0
BBX 1 1 2 11
BITMAP
80
ENDCHAR
STARTCHAR 02DA
ENCODING 730
SWIDTH 300 0
DWIDTH 5 0
BBX 4 3 1 9
BITMAP
60
90
60
ENDCHAR
STARTCHAR 02DB
ENCODING 731
SWIDTH 300 0
DWIDTH 5 0
BBX 3 3 1 -2
BITMAP
40
80
60
ENDCHAR
STARTCHAR 02DC
ENCODING 732
SWIDTH 480 0
DWIDTH 8 0
BBX 6 2 1 10
BITMAP
64
98
ENDCHAR
STARTCHAR 02DD
ENCODING 733
SWIDTH 420 0
DWIDTH 7 0
BBX 6 3 1 10
BITMAP
6C
48
90
ENDCHAR
STARTCHAR 037E
ENCODING 894
SWIDTH 420 0
DWIDTH 7 0
BBX 2 9 2 1
BITMAP
40
00
00
00
00
00
00
40
80
ENDCHAR
STARTCHAR 0384
ENCODING 900
SWIDTH 300 0
DWIDTH 5 0
BBX 1 3 2 10
BITMAP
80
80
80
ENDCHAR
STARTCHAR 0385
ENCODING 901
SWIDTH 420 0
DWIDTH 7 0
BBX 5 2 1 10
BITMAP
20
A8
ENDCHAR
STARTCHAR 0386
ENCODING 902
SWIDTH 660 0
DWIDTH 11 0
BBX 9 12 1 0
BITMAP
4000
4800
4800
1400
1400
2200
2200
4100
7F00
8080
8080
8080
ENDCHAR
STARTCHAR 0387
ENCODING 903
SWIDTH 300 0
DWIDTH 5 0
BBX 1 1 2 6
BITMAP
80
ENDCHAR
STARTCHAR 0388
ENCODING 904
SWIDTH 720 0
DWIDTH 12 0
BBX 10 12 1 0
BITMAP
8000
9FC0
A000
2000
2000
2000
3F80
2000
2000
2000
2000
1FC0
ENDCHAR
STARTCHAR 0389
ENCODING 905
SWIDTH 780 0
DWIDTH 13 0
BBX 11 12 1 0
BITMAP
8000
A020
A020
2020
2020
2020
3FE0
2020
2020
2020
2020
2020
ENDCHAR
STARTCHAR 038A
ENCODING 906
SWIDTH 360 0
DWIDTH 6 0
BBX 3 12 1 0
BITMAP
80
A0
A0
20
20
20
20
20
20
20
20
20
ENDCHAR
STARTCHAR 038C
ENCODING 908
SWIDTH 720 0
DWIDTH 12 0
BBX 11 12 1 0
BITMAP
8000
9F00
A080
4040
8020
8020
8020
8020
8020
4040
2080
1F00
ENDCHAR
STARTCHAR 038E
ENCODING 910
SWIDTH 720 0
DWIDTH 12 0
BBX 11 12 1 0
BITMAP
8000
A020
A020
1040
0880
0880
0500
0200
0200
0200
0200
0200
ENDCHAR
STARTCHAR 038F
ENCODING 911
SWIDTH 720 0
DWIDTH 12 0
BBX 10 12 1 0
BITMAP
8000
9F00
A080
4040
4040
4040
4040
2080
1100
4A40
4A40
3B80
ENDCHAR
STARTCHAR 0390
ENCODING 912
SWIDTH 420 0
DWIDTH 7 0
BBX 6 12 1 0
BITMAP
20
A8
00
20
20
20
20
20
20
24
24
18
ENDCHAR
STARTCHAR 0391
ENCODING 913
SWIDTH 660 0
DWIDTH 11 0
BBX 9 11 1 0
BITMAP
0800
0800
1400
1400
2200
2200
4100
7F00
8080
8080
8080
ENDCHAR
STARTCHAR 0392
ENCODING 914
SWIDTH 660 0
DWIDTH 11 0
BBX 9 11 1 0
BITMAP
7C00
8200
8100
8100
8200
FE00
8100
8080
8080
8100
7E00
ENDCHAR
STARTCHAR 0393
ENCODING 915
SWIDTH 540 0
DWIDTH 9 0
BBX 8 11 1 0
BITMAP
7F
80
80
80
80
80
80
80
80
80
80
ENDCHAR
STARTCHAR 0394
ENCODING 916
SWIDTH 660 0
DWIDTH 11 0
BBX 9 11 1 0
BITMAP
0800
0800
1400
1400
2200
2200
4100
4100
8080
8080
FF80
ENDCHAR
STARTCHAR 0395
ENCODING 917
SWIDTH 660 0
DWIDTH 11 0
BBX 9 11 1 0
BITMAP
7F80
8000
8000
8000
8000
FF00
8000
8000
8000
8000
7F80
ENDCHAR
STARTCHAR 0396
ENCODING 918
SWIDTH 600 0
DWIDTH 10 0
BBX 8 11 1 0
BITMAP
FF
01
02
04
08
08
10
20
40
80
FF
ENDCHAR
STARTCHAR 0397
ENCODING 919
SWIDTH 720 0
DWIDTH 12 0
BBX 10 11 1 0
BITMAP
8040
8040
8040
8040
8040
FFC0
8040
8040
8040
8040
8040
ENDCHAR
STARTCHAR 0398
ENCODING 920
SWIDTH 780 0
DWIDTH 13 0
BBX 11 11 1 0
BITMAP
1F00
2080
4040
8020
8020
BFA0
8020
8020
4040
2080
1F00
ENDCHAR
STARTCHAR 0399
ENCODING 921
SWIDTH 300 0
DWIDTH 5 0
BBX 1 11 2 0
BITMAP
80
80
80
80
80
80
80
80
80
80
80
ENDCHAR
STARTCHAR 039A
ENCODING 922
SWIDTH 660 0
DWIDTH 11 0
BBX 9 11 1 0
BITMAP
8100
8200
8400
8800
9000
B000
C800
8400
8200
8100
8080
ENDCHAR
STARTCHAR 039B
ENCODING 923
SWIDTH 660 0
DWIDTH 11 0
BBX 9 11 1 0
BITMAP
0800
0800
1400
1400
2200
2200
4100
4100
8080
8080
8080
ENDCHAR
STARTCHAR 039C
ENCODING 924
SWIDTH 840 0
DWIDTH 14 0
BBX 12 11 1 0
BITMAP
8010
C030
C030
A050
A050
9090
9090
8910
8910
8610
8610
ENDCHAR
STARTCHAR 039D
ENCODING 925
SWIDTH 720 0
DWIDTH 12 0
BBX 10 11 1 0
BITMAP
8040
C040
A040
9040
8840
8840
8440
8240
8140
80C0
8040
ENDCHAR
STARTCHAR 039E
ENCODING 926
SWIDTH 720 0
DWIDTH 12 0
BBX 10 11 1 0
BITMAP
FFC0
0000
0000
0000
0000
3F00
0000
0000
0000
0000
FFC0
ENDCHAR
STARTCHAR 039F
ENCODING 927
SWIDTH 780 0
DWIDTH 13 0
BBX 11 11 1 0
BITMAP
1F00
2080
4040
8020
8020
8020
8020
8020
4040
2080
1F00
ENDCHAR
STARTCHAR 03A0
ENCODING 928
SWIDTH 660 0
DWIDTH 11 0
BBX 9 11 1 0
BITMAP
7F00
8080
8080
8080
8080
8080
8080
8080
8080
8080
8080
ENDCHAR
STARTCHAR 03A1
ENCODING 929
SWIDTH 600 0
DWIDTH 10 0
BBX 8 11 1 0
BITMAP
7C
82
81
81
82
FC
80
80
80
80
80
ENDCHAR
STARTCHAR 03A3
ENCODING 931
SWIDTH 600 0
DWIDTH 10 0
BBX 9 11 1 0
BITMAP
FF80
4000
2000
1000
0800
0400
0800
1000
2000
4000
FF80
ENDCHAR
STARTCHAR 03A4
ENCODING 932
SWIDTH 540 0
DWIDTH 9 0
BBX 9 11 0 0
BITMAP
FF80
0800
0800
0800
0800
0800
0800
0800
0800
0800
0800
ENDCHAR
STARTCHAR 03A5
ENCODING 933
SWIDTH 660 0
DWIDTH 11 0
BBX 9 11 1 0
BITMAP
8080
8080
4100
2200
2200
1400
0800
0800
0800
0800
0800
ENDCHAR
STARTCHAR 03A6
ENCODING 934
SWIDTH 780 0
DWIDTH 13 0
BBX 9 12 2 0
BITMAP
0800
0800
3E00
4900
8880
8880
8880
8880
4900
3E00
0800
0800
ENDCHAR
STARTCHAR 03A7
ENCODING 935
SWIDTH 600 0
DWIDTH 10 0
BBX 9 11 1 0
BITMAP
8080
4100
2200
2200
1400
0800
1400
2200
2200
4100
8080
ENDCHAR
STARTCHAR 03A8
ENCODING 936
SWIDTH 780 0
DWIDTH 13 0
BBX 11 11 1 0
BITMAP
8420
4440
4440
4440
4440
4440
2480
1F00
0400
0400
0400
ENDCHAR
STARTCHAR 03A9
ENCODING 937
SWIDTH 720 0
DWIDTH 12 0
BBX 10 11 1 0
BITMAP
1E00
2100
4080
8040
8040
8040
4080
3300
9240
9240
7380
ENDCHAR
STARTCHAR 03AA
ENCODING 938
SWIDTH 300 0
DWIDTH 5 0
BBX 3 13 1 0
BITMAP
A0
00
40
40
40
40
40
40
40
40
40
40
40
ENDCHAR
STARTCHAR 03AB
ENCODING 939
SWIDTH 660 0
DWIDTH 11 0
BBX 9 13 1 0
BITMAP
1400
0000
8080
8080
4100
2200
2200
1400
0800
0800
0800
0800
0800
ENDCHAR
STARTCHAR 03AC
ENCODING 940
SWIDTH 600 0
DWIDTH 10 0
BBX 9 12 1 0
BITMAP
1000
1000
0000
3880
4500
8500
8200
8200
8200
8600
4A80
3100
ENDCHAR
STARTCHAR 03AD
ENCODING 941
SWIDTH 540 0
DWIDTH 9 0
BBX 7 12 1 0
BITMAP
10
10
00
7C
82
80
80
78
80
80
82
7C
ENDCHAR
STARTCHAR 03AE
ENCODING 942
SWIDTH 660 0
DWIDTH 11 0
BBX 10 14 1 -2
BITMAP
0800
0800
0000
B800
C400
8200
8200
8200
8200
8200
8200
8200
0240
0180
ENDCHAR
STARTCHAR 03AF
ENCODING 943
SWIDTH 360 0
DWIDTH 6 0
BBX 4 12 2 0
BITMAP
80
80
00
80
80
80
80
80
80
90
90
60
ENDCHAR
STARTCHAR 03B0
ENCODING 944
SWIDTH 540 0
DWIDTH 9 0
BBX 7 12 1 0
BITMAP
10
54
00
88
84
82
82
82
82
82
84
78
ENDCHAR
STARTCHAR 03B1
ENCODING 945
SWIDTH 600 0
DWIDTH 10 0
BBX 9 9 1 0
BITMAP
3880
4500
8500
8200
8200
8400
8400
4A80
3100
ENDCHAR
STARTCHAR 03B2
ENCODING 946
SWIDTH 540 0
DWIDTH 9 0
BBX 7 13 1 -2
BITMAP
30
48
84
84
98
84
82
82
82
C4
B8
80
80
ENDCHAR
STARTCHAR 03B3
ENCODING 947
SWIDTH 540 0
DWIDTH 9 0
BBX 7 11 1 -2
BITMAP
82
82
44
44
28
28
10
38
44
44
38
ENDCHAR
STARTCHAR 03B4
ENCODING 948
SWIDTH 540 0
DWIDTH 9 0
BBX 7 11 1 0
BITMAP
38
44
20
10
38
44
82
82
82
44
38
ENDCHAR
STARTCHAR 03B5
ENCODING 949
SWIDTH 540 0
DWIDTH 9 0
BBX 7 9 1 0
BITMAP
7C
82
80
80
78
80
80
82
7C
ENDCHAR
STARTCHAR 03B6
ENCODING 950
SWIDTH 480 0
DWIDTH 8 0
BBX 6 13 1 -2
BITMAP
F8
10
20
40
40
80
80
80
40
38
04
04
38
ENDCHAR
STARTCHAR 03B7
ENCODING 951
SWIDTH 660 0
DWIDTH 11 0
BBX 10 11 1 -2
BITMAP
B800
C400
8200
8200
8200
8200
8200
8200
8200
0240
0180
ENDCHAR
STARTCHAR 03B8
ENCODING 952
SWIDTH 720 0
DWIDTH 12 0
BBX 10 11 1 0
BITMAP
1E00
2100
4080
8040
8040
FFC0
8040
8040
4080
2100
1E00
ENDCHAR
STARTCHAR 03B9
ENCODING 953
SWIDTH 300 0
DWIDTH 5 0
BBX 4 9 1 0
BITMAP
80
80
80
80
80
80
90
90
60
ENDCHAR
STARTCHAR 03BA
ENCODING 954
SWIDTH 540 0
DWIDTH 9 0
BBX 7 9 1 0
BITMAP
84
88
90
A0
E0
90
88
84
82
ENDCHAR
STARTCHAR 03BB
ENCODING 955
SWIDTH 660 0
DWIDTH 11 0
BBX 10 11 1 0
BITMAP
6000
1000
1000
1000
1000
2800
2800
4400
4440
8240
8180
ENDCHAR
STARTCHAR 03BC
ENCODING 956
SWIDTH 540 0
DWIDTH 9 0
BBX 7 11 1 -2
BITMAP
82
82
82
82
82
82
82
C6
BA
80
80
ENDCHAR
STARTCHAR 03BD
ENCODING 957
SWIDTH 480 0
DWIDTH 8 0
BBX 7 9 0 0
BITMAP
C2
42
42
42
24
24
24
18
18
ENDCHAR
STARTCHAR 03BE
ENCODING 958
SWIDTH 480 0
DWIDTH 8 0
BBX 5 13 2 -2
BITMAP
F0
20
40
40
30
40
80
80
40
30
08
08
70
ENDCHAR
STARTCHAR 03BF
ENCODING 959
SWIDTH 600 0
DWIDTH 10 0
BBX 8 9 1 0
BITMAP
3C
42
81
81
81
81
81
42
3C
ENDCHAR
STARTCHAR 03C0
ENCODING 960
SWIDTH 660 0
DWIDTH 11 0
BBX 9 9 1 0
BITMAP
FF80
2400
2400
2400
2400
2400
2480
4480
8300
ENDCHAR
STARTCHAR 03C1
ENCODING 961
SWIDTH 600 0
DWIDTH 10 0
BBX 8 11 1 -2
BITMAP
3C
42
81
81
81
81
81
C2
BC
80
80
ENDCHAR
STARTCHAR 03C2
ENCODING 962
SWIDTH 540 0
DWIDTH 9 0
BBX 7 11 1 -2
BITMAP
38
44
82
80
80
80
40
38
04
04
38
ENDCHAR
STARTCHAR 03C3
ENCODING 963
SWIDTH 600 0
DWIDTH 10 0
BBX 9 9 1 0
BITMAP
3F80
4200
8100
8100
8100
8100
8100
4200
3C00
ENDCHAR
STARTCHAR 03C4
ENCODING 964
SWIDTH 540 0
DWIDTH 9 0
BBX 7 9 1 0
BITMAP
FE
10
10
10
10
10
12
12
0C
ENDCHAR
STARTCHAR 03C5
ENCODING 965
SWIDTH 540 0
DWIDTH 9 0
BBX 7 9 1 0
BITMAP
88
84
82
82
82
82
82
84
78
ENDCHAR
STARTCHAR 03C6
ENCODING 966
SWIDTH 660 0
DWIDTH 11 0
BBX 9 13 1 -2
BITMAP
0800
0800
3E00
4900
8880
8880
8880
8880
8880
4900
3E00
0800
0800
ENDCHAR
STARTCHAR 03C7
ENCODING 967
SWIDTH 600 0
DWIDTH 10 0
BBX 9 11 0 -2
BITMAP
7080
0900
0A00
0A00
0C00
0800
1400
2400
2400
4400
8380
ENDCHAR
STARTCHAR 03C8
ENCODING 968
SWIDTH 660 0
DWIDTH 11 0
BBX 9 10 1 -1
BITMAP
8880
4900
4900
4900
4900
4900
2A00
1C00
0800
0800
ENDCHAR
STARTCHAR 03C9
ENCODING 969
SWIDTH 660 0
DWIDTH 11 0
BBX 9 9 1 0
BITMAP
2200
4100
8880
8880
8880
8880
8880
4900
3600
ENDCHAR
STARTCHAR 03CA
ENCODING 970
SWIDTH 360 0
DWIDTH 6 0
BBX 5 11 1 0
BITMAP
A0
00
40
40
40
40
40
40
48
48
30
ENDCHAR
STARTCHAR 03CB
ENCODING 971
SWIDTH 540 0
DWIDTH 9 0
BBX 7 11 1 0
BITMAP
48
00
88
84
82
82
82
82
82
84
78
ENDCHAR
STARTCHAR 03CC
ENCODING 972
SWIDTH 600 0
DWIDTH 10 0
BBX 8 12 1 0
BITMAP
08
08
00
3C
42
81
81
81
81
81
42
3C
ENDCHAR
STARTCHAR 03CD
ENCODING 973
SWIDTH 540 0
DWIDTH 9 0
BBX 7 12 1 0
BITMAP
10
10
00
88
84
82
82
82
82
82
84
78
ENDCHAR
STARTCHAR 03CE
ENCODING 974
SWIDTH 660 0
DWIDTH 11 0
BBX 9 12 1 0
BITMAP
0800
0800
0000
2200
4100
8880
8880
8880
8880
8880
4900
3600
ENDCHAR
STARTCHAR 0401
ENCODING 1025
SWIDTH 600 0
DWIDTH 10 0
BBX 8 13 1 0
BITMAP
24
00
7F
80
80
80
80
FE
80
80
80
80
7F
ENDCHAR
STARTCHAR 0402
ENCODING 1026
SWIDTH 720 0
DWIDTH 12 0
BBX 11 13 0 -2
BITMAP
FF80
0800
0800
0B80
0C40
0820
0820
0820
0820
0820
0840
0040
0080
ENDCHAR
STARTCHAR 0403
ENCODING 1027
SWIDTH 540 0
DWIDTH 9 0
BBX 8 14 1 0
BITMAP
0C
08
10
7F
80
80
80
80
80
80
80
80
80
80
ENDCHAR
STARTCHAR 0404
ENCODING 1028
SWIDTH 720 0
DWIDTH 12 0
BBX 10 11 1 0
BITMAP
1F00
2080
4040
8000
8000
FF00
8000
8000
4040
2080
1F00
ENDCHAR
STARTCHAR 0405
ENCODING 1029
SWIDTH 660 0
DWIDTH 11 0
BBX 9 11 1 0
BITMAP
3E00
4100
8080
8000
6000
1C00
0300
0080
8080
4100
3E00
ENDCHAR
STARTCHAR 0406
ENCODING 1030
SWIDTH 300 0
DWIDTH 5 0
BBX 1 11 2 0
BITMAP
80
80
80
80
80
80
80
80
80
80
80
ENDCHAR
STARTCHAR 0407
ENCODING 1031
SWIDTH 300 0
DWIDTH 5 0
BBX 3 13 1 0
BITMAP
A0
00
40
40
40
40
40
40
40
40
40
40
40
ENDCHAR
STARTCHAR 0408
ENCODING 1032
SWIDTH 480 0
DWIDTH 8 0
BBX 7 11 1 0
BITMAP
02
02
02
02
02
02
02
82
82
44
38
ENDCHAR
STARTCHAR 0409
ENCODING 1033
SWIDTH 900 0
DWIDTH 15 0
BBX 13 11 1 0
BITMAP
0C00
1200
1200
1200
13E0
1210
1208
1208
1208
2210
C1E0
ENDCHAR
STARTCHAR 040A
ENCODING 1034
SWIDTH 900 0
DWIDTH 15 0
BBX 13 11 1 0
BITMAP
8200
8200
8200
8200
FFE0
8210
8208
8208
8208
8210
81E0
ENDCHAR
STARTCHAR 040B
ENCODING 1035
SWIDTH 660 0
DWIDTH 11 0
BBX 11 11 0 0
BITMAP
FF80
0800
0800
0B80
0C40
0820
0820
0820
0820
0820
0820
ENDCHAR
STARTCHAR 040C
ENCODING 1036
SWIDTH 660 0
DWIDTH 11 0
BBX 9 14 1 0
BITMAP
0C00
0800
1000
8100
8200
8400
8800
9000
B000
C800
8400
8200
8100
8080
ENDCHAR
STARTCHAR 040E
ENCODING 1038
SWIDTH 480 0
DWIDTH 8 0
BBX 6 14 1 0
BITMAP
CC
78
00
84
84
84
48
48
30
30
20
20
40
80
ENDCHAR
STARTCHAR 040F
ENCODING 1039
SWIDTH 660 0
DWIDTH 11 0
BBX 9 13 1 -2
BITMAP
8080
8080
8080
8080
8080
8080
8080
8080
8080
8080
7F00
0800
0800
ENDCHAR
STARTCHAR 0410
ENCODING 1040
SWIDTH 660 0
DWIDTH 11 0
BBX 9 11 1 0
BITMAP
0800
0800
1400
1400
2200
2200
4100
7F00
8080
8080
8080
ENDCHAR
STARTCHAR 0411
ENCODING 1041
SWIDTH 660 0
DWIDTH 11 0
BBX 9 11 1 0
BITMAP
7F00
8000
8000
8000
FE00
8100
8080
8080
8080
8100
7E00
ENDCHAR
STARTCHAR 0412
ENCODING 1042
SWIDTH 660 0
DWIDTH 11 0
BBX 9 11 1 0
BITMAP
7C00
8200
8100
8100
8200
FE00
8100
8080
8080
8100
FE00
ENDCHAR
STARTCHAR 0413
ENCODING 1043
SWIDTH 540 0
DWIDTH 9 0
BBX 8 11 1 0
BITMAP
7F
80
80
80
80
80
80
80
80
80
80
ENDCHAR
STARTCHAR 0414
ENCODING 1044
SWIDTH 780 0
DWIDTH 13 0
BBX 13 13 0 -2
BITMAP
07C0
0820
0820
0820
0820
1020
1020
1020
2020
2020
7FF0
4010
8008
ENDCHAR
STARTCHAR 0415
ENCODING 1045
SWIDTH 660 0
DWIDTH 11 0
BBX 8 11 2 0
BITMAP
7F
80
80
80
80
FE
80
80
80
80
7F
ENDCHAR
STARTCHAR 0416
ENCODING 1046
SWIDTH 900 0
DWIDTH 15 0
BBX 13 11 1 0
BITMAP
E238
1240
1240
0A80
0A80
0F80
0A80
0A80
1240
1240
E238
ENDCHAR
STARTCHAR 0417
ENCODING 1047
SWIDTH 540 0
DWIDTH 9 0
BBX 7 11 1 0
BITMAP
38
44
82
02
04
18
04
02
82
44
38
ENDCHAR
STARTCHAR 0418
ENCODING 1048
SWIDTH 720 0
DWIDTH 12 0
BBX 9 11 2 0
BITMAP
8080
8080
8180
8280
8480
8880
9080
A080
C080
8080
8080
ENDCHAR
STARTCHAR 0419
ENCODING 1049
SWIDTH 720 0
DWIDTH 12 0
BBX 9 14 2 0
BITMAP
3300
1E00
0000
8080
8080
8180
8280
8480
8880
9080
A080
C080
8080
8080
ENDCHAR
STARTCHAR 041A
ENCODING 1050
SWIDTH 660 0
DWIDTH 11 0
BBX 9 11 2 0
BITMAP
8100
8200
8400
8800
9000
B000
C800
8400
8200
8100
8080
ENDCHAR
STARTCHAR 041B
ENCODING 1051
SWIDTH 660 0
DWIDTH 11 0
BBX 9 11 1 0
BITMAP
0F00
1080
1080
1080
1080
1080
1080
1080
1080
2080
C080
ENDCHAR
STARTCHAR 041C
ENCODING 1052
SWIDTH 840 0
DWIDTH 14 0
BBX 12 11 1 0
BITMAP
8010
C030
C030
A050
A050
9090
9090
8910
8910
8610
8610
ENDCHAR
STARTCHAR 041D
ENCODING 1053
SWIDTH 720 0
DWIDTH 12 0
BBX 9 11 2 0
BITMAP
8080
8080
8080
8080
8080
FF80
8080
8080
8080
8080
8080
ENDCHAR
STARTCHAR 041E
ENCODING 1054
SWIDTH 780 0
DWIDTH 13 0
BBX 11 11 1 0
BITMAP
1F00
2080
4040
8020
8020
8020
8020
8020
4040
2080
1F00
ENDCHAR
STARTCHAR 041F
ENCODING 1055
SWIDTH 720 0
DWIDTH 12 0
BBX 9 11 2 0
BITMAP
7F00
8080
8080
8080
8080
8080
8080
8080
8080
8080
8080
ENDCHAR
STARTCHAR 0420
ENCODING 1056
SWIDTH 600 0
DWIDTH 10 0
BBX 8 11 1 0
BITMAP
7C
82
81
81
82
FC
80
80
80
80
80
ENDCHAR
STARTCHAR 0421
ENCODING 1057
SWIDTH 720 0
DWIDTH 12 0
BBX 10 11 1 0
BITMAP
1F00
2080
4040
8040
8000
8000
8000
8000
4040
2080
1F00
ENDCHAR
STARTCHAR 0422
ENCODING 1058
SWIDTH 540 0
DWIDTH 9 0
BBX 9 11 0 0
BITMAP
FF80
0800
0800
0800
0800
0800
0800
0800
0800
0800
0800
ENDCHAR
STARTCHAR 0423
ENCODING 1059
SWIDTH 480 0
DWIDTH 8 0
BBX 6 11 1 0
BITMAP
84
84
84
48
48
30
30
20
20
40
80
ENDCHAR
STARTCHAR 0424
ENCODING 1060
SWIDTH 780 0
DWIDTH 13 0
BBX 9 11 2 0
BITMAP
0800
0800
3E00
4900
8880
8880
8880
4900
3E00
0800
0800
ENDCHAR
STARTCHAR 0425
ENCODING 1061
SWIDTH 600 0
DWIDTH 10 0
BBX 9 11 1 0
BITMAP
8080
4100
2200
2200
1400
0800
1400
2200
2200
4100
8080
ENDCHAR
STARTCHAR 0426
ENCODING 1062
SWIDTH 660 0
DWIDTH 11 0
BBX 10 13 1 -2
BITMAP
8080
8080
8080
8080
8080
8080
8080
8080
8080
8080
7F80
0040
0040
ENDCHAR
STARTCHAR 0427
ENCODING 1063
SWIDTH 540 0
DWIDTH 9 0
BBX 7 11 1 0
BITMAP
82
82
82
82
82
82
46
3A
02
02
02
ENDCHAR
STARTCHAR 0428
ENCODING 1064
SWIDTH 900 0
DWIDTH 15 0
BBX 13 11 1 0
BITMAP
8208
8208
8208
8208
8208
8208
8208
8208
8208
8208
7FF0
ENDCHAR
STARTCHAR 0429
ENCODING 1065
SWIDTH 900 0
DWIDTH 15 0
BBX 14 13 1 -2
BITMAP
8208
8208
8208
8208
8208
8208
8208
8208
8208
8208
7FFC
0004
0004
ENDCHAR
STARTCHAR 042A
ENCODING 1066
SWIDTH 720 0
DWIDTH 12 0
BBX 11 11 0 0
BITMAP
E000
1000
1000
1000
1F80
1040
1020
1020
1020
1040
0F80
ENDCHAR
STARTCHAR 042B
ENCODING 1067
SWIDTH 780 0
DWIDTH 13 0
BBX 11 11 1 0
BITMAP
8020
8020
8020
8020
FC20
8220
8120
8120
8120
8220
7C20
ENDCHAR
STARTCHAR 042C
ENCODING 1068
SWIDTH 600 0
DWIDTH 10 0
BBX 8 12 1 0
BITMAP
80
80
80
80
80
FC
82
81
81
81
82
7C
ENDCHAR
STARTCHAR 042D
ENCODING 1069
SWIDTH 720 0
DWIDTH 12 0
BBX 10 11 1 0
BITMAP
3E00
4100
8080
0040
0040
3FC0
0040
0040
8080
4100
3E00
ENDCHAR
STARTCHAR 042E
ENCODING 1070
SWIDTH 960 0
DWIDTH 16 0
BBX 14 11 1 0
BITMAP
83E0
8410
8808
9004
9004
F004
9004
9004
8808
8410
83E0
ENDCHAR
STARTCHAR 042F
ENCODING 1071
SWIDTH 660 0
DWIDTH 11 0
BBX 9 11 1 0
BITMAP
3F00
4080
8080
8080
4080
3F80
4080
8080
8080
8080
8080
ENDCHAR
STARTCHAR 0430
ENCODING 1072
SWIDTH 540 0
DWIDTH 9 0
BBX 8 9 1 0
BITMAP
7C
82
02
1E
62
82
82
82
7D
ENDCHAR
STARTCHAR 0431
ENCODING 1073
SWIDTH 540 0
DWIDTH 9 0
BBX 7 12 1 0
BITMAP
02
04
18
20
78
C4
82
82
82
82
44
38
ENDCHAR
STARTCHAR 0432
ENCODING 1074
SWIDTH 540 0
DWIDTH 9 0
BBX 7 9 1 0
BITMAP
7C
82
82
82
FC
82
82
82
7C
ENDCHAR
STARTCHAR 0433
ENCODING 1075
SWIDTH 480 0
DWIDTH 8 0
BBX 7 9 1 0
BITMAP
7E
80
80
80
80
80
80
80
80
ENDCHAR
STARTCHAR 0434
ENCODING 1076
SWIDTH 600 0
DWIDTH 10 0
BBX 10 11 0 -2
BITMAP
0E00
1100
1100
1100
2100
2100
2100
4100
7F80
8040
8040
ENDCHAR
STARTCHAR 0435
ENCODING 1077
SWIDTH 540 0
DWIDTH 9 0
BBX 7 9 1 0
BITMAP
38
44
82
82
FE
80
80
42
3C
ENDCHAR
STARTCHAR 0436
ENCODING 1078
SWIDTH 780 0
DWIDTH 13 0
BBX 11 9 1 0
BITMAP
C460
2480
1500
1500
1F00
1500
1500
2480
C460
ENDCHAR
STARTCHAR 0437
ENCODING 1079
SWIDTH 540 0
DWIDTH 9 0
BBX 7 9 1 0
BITMAP
38
44
82
04
38
04
82
44
38
ENDCHAR
STARTCHAR 0438
ENCODING 1080
SWIDTH 600 0
DWIDTH 10 0
BBX 7 9 2 0
BITMAP
82
82
86
8A
92
A2
C2
82
82
ENDCHAR
STARTCHAR 0439
ENCODING 1081
SWIDTH 600 0
DWIDTH 10 0
BBX 7 12 2 0
BITMAP
CC
78
00
82
82
86
8A
92
A2
C2
82
82
ENDCHAR
STARTCHAR 043A
ENCODING 1082
SWIDTH 540 0
DWIDTH 9 0
BBX 7 9 1 0
BITMAP
84
88
90
A0
E0
90
88
84
82
ENDCHAR
STARTCHAR 043B
ENCODING 1083
SWIDTH 600 0
DWIDTH 10 0
BBX 8 9 1 0
BITMAP
1E
21
21
21
21
21
21
21
C1
ENDCHAR
STARTCHAR 043C
ENCODING 1084
SWIDTH 660 0
DWIDTH 11 0
BBX 9 9 1 0
BITMAP
8080
C180
C180
A280
A280
9480
9480
8880
8880
ENDCHAR
STARTCHAR 043D
ENCODING 1085
SWIDTH 600 0
DWIDTH 10 0
BBX 8 9 1 0
BITMAP
81
81
81
81
FF
81
81
81
81
ENDCHAR
STARTCHAR 043E
ENCODING 1086
SWIDTH 600 0
DWIDTH 10 0
BBX 8 9 1 0
BITMAP
3C
42
81
81
81
81
81
42
3C
ENDCHAR
STARTCHAR 043F
ENCODING 1087
SWIDTH 600 0
DWIDTH 10 0
BBX 8 9 1 0
BITMAP
7E
81
81
81
81
81
81
81
81
ENDCHAR
STARTCHAR 0440
ENCODING 1088
SWIDTH 600 0
DWIDTH 10 0
BBX 8 11 1 -2
BITMAP
BC
C2
81
81
81
81
81
C2
BC
80
80
ENDCHAR
STARTCHAR 0441
ENCODING 1089
SWIDTH 540 0
DWIDTH 9 0
BBX 7 9 1 0
BITMAP
3C
42
80
80
80
80
80
42
3C
ENDCHAR
STARTCHAR 0442
ENCODING 1090
SWIDTH 540 0
DWIDTH 9 0
BBX 9 9 0 0
BITMAP
FF80
0800
0800
0800
0800
0800
0800
0800
0800
ENDCHAR
STARTCHAR 0443
ENCODING 1091
SWIDTH 480 0
DWIDTH 8 0
BBX 6 11 1 -2
BITMAP
84
84
84
48
48
30
30
20
20
40
80
ENDCHAR
STARTCHAR 0444
ENCODING 1092
SWIDTH 780 0
DWIDTH 13 0
BBX 11 13 1 -2
BITMAP
0400
0400
3580
4E40
8420
8420
8420
8420
8420
4E40
3580
0400
0400
ENDCHAR
STARTCHAR 0445
ENCODING 1093
SWIDTH 480 0
DWIDTH 8 0
BBX 6 9 1 0
BITMAP
84
48
48
30
30
48
48
84
84
ENDCHAR
STARTCHAR 0446
ENCODING 1094
SWIDTH 540 0
DWIDTH 9 0
BBX 8 11 1 -2
BITMAP
84
84
84
84
84
84
84
84
7E
01
01
ENDCHAR
STARTCHAR 0447
ENCODING 1095
SWIDTH 540 0
DWIDTH 9 0
BBX 7 9 1 0
BITMAP
82
82
82
82
46
3A
02
02
02
ENDCHAR
STARTCHAR 0448
ENCODING 1096
SWIDTH 780 0
DWIDTH 13 0
BBX 11 9 1 0
BITMAP
8420
8420
8420
8420
8420
8420
8420
8420
7FC0
ENDCHAR
STARTCHAR 0449
ENCODING 1097
SWIDTH 780 0
DWIDTH 13 0
BBX 12 11 1 -2
BITMAP
8420
8420
8420
8420
8420
8420
8420
8420
7FE0
0010
0010
ENDCHAR
STARTCHAR 044A
ENCODING 1098
SWIDTH 540 0
DWIDTH 9 0
BBX 9 9 0 0
BITMAP
C000
2000
2000
3E00
2100
2080
2080
2100
1E00
ENDCHAR
STARTCHAR 044B
ENCODING 1099
SWIDTH 720 0
DWIDTH 12 0
BBX 10 9 1 0
BITMAP
8040
8040
8040
F840
8440
8240
8240
8440
7840
ENDCHAR
STARTCHAR 044C
ENCODING 1100
SWIDTH 480 0
DWIDTH 8 0
BBX 7 9 1 0
BITMAP
80
80
80
F8
84
82
82
84
78
ENDCHAR
STARTCHAR 044D
ENCODING 1101
SWIDTH 540 0
DWIDTH 9 0
BBX 7 9 1 0
BITMAP
78
84
02
02
7E
02
02
84
78
ENDCHAR
STARTCHAR 044E
ENCODING 1102
SWIDTH 720 0
DWIDTH 12 0
BBX 10 9 1 0
BITMAP
8F00
9080
A040
A040
E040
A040
A040
9080
8F00
ENDCHAR
STARTCHAR 044F
ENCODING 1103
SWIDTH 540 0
DWIDTH 9 0
BBX 7 9 1 0
BITMAP
7C
82
82
82
7E
42
82
82
82
ENDCHAR
STARTCHAR 0451
ENCODING 1105
SWIDTH 540 0
DWIDTH 9 0
BBX 7 11 1 0
BITMAP
28
00
38
44
82
82
FE
80
80
42
3C
ENDCHAR
STARTCHAR 0452
ENCODING 1106
SWIDTH 540 0
DWIDTH 9 0
BBX 8 13 0 -2
BITMAP
20
FE
20
2C
32
21
21
21
21
21
22
02
04
ENDCHAR
STARTCHAR 0453
ENCODING 1107
SWIDTH 540 0
DWIDTH 9 0
BBX 7 13 1 0
BITMAP
18
10
20
00
7E
80
80
80
80
80
80
80
80
ENDCHAR
STARTCHAR 0454
ENCODING 1108
SWIDTH 540 0
DWIDTH 9 0
BBX 7 9 1 0
BITMAP
3C
42
80
80
FC
80
80
42
3C
ENDCHAR
STARTCHAR 0455
ENCODING 1109
SWIDTH 540 0
DWIDTH 9 0
BBX 7 9 1 0
BITMAP
7C
82
80
60
18
04
02
82
7C
ENDCHAR
STARTCHAR 0456
ENCODING 1110
SWIDTH 240 0
DWIDTH 4 0
BBX 1 11 2 0
BITMAP
80
00
80
80
80
80
80
80
80
80
80
ENDCHAR
STARTCHAR 0457
ENCODING 1111
SWIDTH 240 0
DWIDTH 4 0
BBX 3 11 1 0
BITMAP
A0
00
40
40
40
40
40
40
40
40
40
ENDCHAR
STARTCHAR 0458
ENCODING 1112
SWIDTH 240 0
DWIDTH 4 0
BBX 3 13 0 -2
BITMAP
20
00
20
20
20
20
20
20
20
20
20
20
C0
ENDCHAR
STARTCHAR 0459
ENCODING 1113
SWIDTH 720 0
DWIDTH 12 0
BBX 12 9 0 0
BITMAP
0C00
1200
1200
1200
13E0
1210
1210
1210
E1E0
ENDCHAR
STARTCHAR 045A
ENCODING 1114
SWIDTH 720 0
DWIDTH 12 0
BBX 11 9 1 0
BITMAP
8400
8400
8400
8400
FFC0
8420
8420
8420
83C0
ENDCHAR
STARTCHAR 045B
ENCODING 1115
SWIDTH 540 0
DWIDTH 9 0
BBX 8 11 0 0
BITMAP
40
F8
40
5C
62
41
41
41
41
41
41
ENDCHAR
STARTCHAR 045C
ENCODING 1116
SWIDTH 540 0
DWIDTH 9 0
BBX 7 13 1 0
BITMAP
18
10
20
00
84
88
90
A0
E0
90
88
84
82
ENDCHAR
STARTCHAR 045E
ENCODING 1118
SWIDTH 480 0
DWIDTH 8 0
BBX 7 14 1 -2
BITMAP
CC
78
00
82
82
82
44
44
28
28
10
10
20
C0
ENDCHAR
STARTCHAR 045F
ENCODING 1119
SWIDTH 600 0
DWIDTH 10 0
BBX 8 11 1 -2
BITMAP
81
81
81
81
81
81
81
81
7E
08
08
ENDCHAR
STARTCHAR 0490
ENCODING 1168
SWIDTH 540 0
DWIDTH 9 0
BBX 8 13 1 0
BITMAP
01
01
7E
80
80
80
80
80
80
80
80
80
80
ENDCHAR
STARTCHAR 0491
ENCODING 1169
SWIDTH 480 0
DWIDTH 8 0
BBX 7 11 1 0
BITMAP
02
02
7C
80
80
80
80
80
80
80
80
ENDCHAR
STARTCHAR 1100
ENCODING 4352
SWIDTH 960 0
DWIDTH 16 0
BBX 10 8 3 2
BITMAP
FF80
0040
0040
0040
0040
0040
0040
0040
ENDCHAR
STARTCHAR 1101
ENCODING 4353
SWIDTH 960 0
DWIDTH 16 0
BBX 12 8 2 2
BITMAP
F3E0
0810
0810
0810
0810
0810
0810
0810
ENDCHAR
STARTCHAR 1102
ENCODING 4354
SWIDTH 960 0
DWIDTH 16 0
BBX 10 8 3 2
BITMAP
8000
8000
8000
8000
8000
8000
8000
7FC0
ENDCHAR
STARTCHAR 1103
ENCODING 4355
SWIDTH 960 0
DWIDTH 16 0
BBX 10 8 3 2
BITMAP
7FC0
8000
8000
8000
8000
8000
8000
7FC0
ENDCHAR
STARTCHAR 1104
ENCODING 4356
SWIDTH 960 0
DWIDTH 16 0
BBX 12 8 2 2
BITMAP
79F0
8200
8200
8200
8200
8200
8200
79F0
ENDCHAR
STARTCHAR 1105
ENCODING 4357
SWIDTH 960 0
DWIDTH 16 0
BBX 10 8 3 2
BITMAP
FF80
0040
0040
7F80
8000
8000
8000
7FC0
ENDCHAR
STARTCHAR 1106
ENCODING 4358
SWIDTH 960 0
DWIDTH 16 0
BBX 10 8 3 2
BITMAP
FFC0
8040
8040
8040
8040
8040
8040
7F80
ENDCHAR
STARTCHAR 1107
ENCODING 4359
SWIDTH 960 0
DWIDTH 16 0
BBX 10 8 3 2
BITMAP
8040
8040
8040
FFC0
8040
8040
8040
7F80
ENDCHAR
STARTCHAR 1108
ENCODING 4360
SWIDTH 960 0
DWIDTH 16 0
BBX 12 8 2 2
BITMAP
8910
8910
8910
F9F0
8910
8910
8910
70E0
ENDCHAR
STARTCHAR 1109
ENCODING 4361
SWIDTH 960 0
DWIDTH 16 0
BBX 11 8 3 2
BITMAP
0400
0400
0400
0A00
0A00
1100
2080
C060
ENDCHAR
STARTCHAR 110A
ENCODING 4362
SWIDTH 960 0
DWIDTH 16 0
BBX 12 8 2 2
BITMAP
1080
1080
1080
1080
2940
2940
4620
8410
ENDCHAR
STARTCHAR 110B
ENCODING 4363
SWIDTH 960 0
DWIDTH 16 0
BBX 10 8 3 2
BITMAP
3F00
4080
8040
8040
8040
8040
4080
3F00
ENDCHAR
STARTCHAR 110C
ENCODING 4364
SWIDTH 960 0
DWIDTH 16 0
BBX 11 8 3 2
BITMAP
7FC0
0400
0400
0A00
0A00
1100
2080
C060
ENDCHAR
STARTCHAR 110D
ENCODING 4365
SWIDTH 960 0
DWIDTH 16 0
BBX 13 8 2 2
BITMAP
7DF0
1040
1040
1040
28A0
28A0
4510
8208
ENDCHAR
STARTCHAR 110E
ENCODING 4366
SWIDTH 960 0
DWIDTH 16 0
BBX 11 9 3 1
BITMAP
1F00
0000
7FC0
0400
0400
0A00
1100
2080
C060
ENDCHAR
STARTCHAR 110F
ENCODING 4367
SWIDTH 960 0
DWIDTH 16 0
BBX 10 8 3 2
BITMAP
FF80
0040
0040
0040
FFC0
0040
0040
0040
ENDCHAR
STARTCHAR 1110
ENCODING 4368
SWIDTH 960 0
DWIDTH 16 0
BBX 10 8 3 2
BITMAP
7FC0
8000
8000
FFC0
8000
8000
8000
7FC0
ENDCHAR
STARTCHAR 1111
ENCODING 4369
SWIDTH 960 0
DWIDTH 16 0
BBX 10 8 3 2
BITMAP
FFC0
0000
2100
2100
2100
2100
2100
FFC0
ENDCHAR
STARTCHAR 1112
ENCODING 4370
SWIDTH 960 0
DWIDTH 16 0
BBX 11 10 3 1
BITMAP
1F00
0000
FFE0
0000
1F00
2080
4040
4040
2080
1F00
ENDCHAR
STARTCHAR 1113
ENCODING 4371
SWIDTH 960 0
DWIDTH 16 0
BBX 11 8 3 2
BITMAP
87C0
8020
8020
8020
8020
8020
8020
7C20
ENDCHAR
STARTCHAR 1114
ENCODING 4372
SWIDTH 960 0
DWIDTH 16 0
BBX 13 8 2 2
BITMAP
8100
8100
8100
8100
8100
8100
8100
7CF8
ENDCHAR
STARTCHAR 1115
ENCODING 4373
SWIDTH 960 0
DWIDTH 16 0
BBX 13 8 2 2
BITMAP
80F8
8100
8100
8100
8100
8100
8100
7CF8
ENDCHAR
STARTCHAR 1116
ENCODING 4374
SWIDTH 960 0
DWIDTH 16 0
BBX 12 8 2 2
BITMAP
8210
8210
8210
83F0
8210
8210
8210
79E0
ENDCHAR
STARTCHAR 1117
ENCODING 4375
SWIDTH 960 0
DWIDTH 16 0
BBX 12 8 2 2
BITMAP
7DE0
8010
8010
8010
8010
8010
8010
7C10
ENDCHAR
STARTCHAR 1118
ENCODING 4376
SWIDTH 960 0
DWIDTH 16 0
BBX 13 8 2 2
BITMAP
F100
0900
0900
7100
8100
8100
8100
7CF8
ENDCHAR
STARTCHAR 1119
ENCODING 4377
SWIDTH 960 0
DWIDTH 16 0
BBX 13 8 2 2
BITMAP
F1E0
0810
0810
70E0
8100
8100
8100
7CF8
ENDCHAR
STARTCHAR 111A
ENCODING 4378
SWIDTH 960 0
DWIDTH 16 0
BBX 13 8 2 2
BITMAP
F1E0
0800
0FF8
7800
81E0
8210
8210
79E0
ENDCHAR
STARTCHAR 111B
ENCODING 4379
SWIDTH 960 0
DWIDTH 16 0
BBX 10 12 3 0
BITMAP
FF80
0040
7F80
8000
8000
7FC0
0000
3F00
4080
4080
4080
3F00
ENDCHAR
STARTCHAR 111C
ENCODING 4380
SWIDTH 960 0
DWIDTH 16 0
BBX 12 8 2 2
BITMAP
F910
8910
8910
89F0
8910
8910
8910
70E0
ENDCHAR
STARTCHAR 111D
ENCODING 4381
SWIDTH 960 0
DWIDTH 16 0
BBX 10 12 3 0
BITMAP
FFC0
8040
8040
8040
7F80
0000
1E00
2100
4080
4080
2100
1E00
ENDCHAR
STARTCHAR 111E
ENCODING 4382
SWIDTH 960 0
DWIDTH 16 0
BBX 12 8 2 2
BITMAP
85E0
8410
8410
FC10
8410
8410
8410
7810
ENDCHAR
STARTCHAR 111F
ENCODING 4383
SWIDTH 960 0
DWIDTH 16 0
BBX 13 8 2 2
BITMAP
8480
8480
8480
FC80
8480
8480
8480
7878
ENDCHAR
STARTCHAR 1120
ENCODING 4384
SWIDTH 960 0
DWIDTH 16 0
BBX 13 8 2 2
BITMAP
8478
8480
8480
FC80
8480
8480
8480
7878
ENDCHAR
STARTCHAR 1121
ENCODING 4385
SWIDTH 960 0
DWIDTH 16 0
BBX 13 8 2 2
BITMAP
8440
8440
8440
FC40
84A0
84A0
8510
7A08
ENDCHAR
STARTCHAR 1122
ENCODING 4386
SWIDTH 960 0
DWIDTH 16 0
BBX 13 8 2 2
BITMAP
8970
8908
8908
F908
8908
8A88
8A88
7448
ENDCHAR
STARTCHAR 1123
ENCODING 4387
SWIDTH 960 0
DWIDTH 16 0
BBX 13 8 2 2
BITMAP
9238
9240
9240
F240
9240
9540
9540
68B8
ENDCHAR
STARTCHAR 1124
ENCODING 4388
SWIDTH 960 0
DWIDTH 16 0
BBX 13 8 2 2
BITMAP
9248
9248
9248
F278
9248
9548
9548
68B0
ENDCHAR
STARTCHAR 1125
ENCODING 4389
SWIDTH 960 0
DWIDTH 16 0
BBX 13 8 2 2
BITMAP
9220
9220
9220
F220
9220
9550
9550
6888
ENDCHAR
STARTCHAR 1126
ENCODING 4390
SWIDTH 960 0
DWIDTH 16 0
BBX 13 8 2 2
BITMAP
9270
9220
9220
F220
9220
9550
9550
6888
ENDCHAR
STARTCHAR 1127
ENCODING 4391
SWIDTH 960 0
DWIDTH 16 0
BBX 13 8 2 2
BITMAP
89F0
8840
8840
F840
88A0
88A0
8910
7208
ENDCHAR
STARTCHAR 1128
ENCODING 4392
SWIDTH 960 0
DWIDTH 16 0
BBX 13 8 2 2
BITMAP
88E0
8800
8BF8
F840
8840
88A0
8910
7208
ENDCHAR
STARTCHAR 1129
ENCODING 4393
SWIDTH 960 0
DWIDTH 16 0
BBX 12 8 2 2
BITMAP
88F0
8900
8900
F9F0
8900
8900
8900
70F0
ENDCHAR
STARTCHAR 112A
ENCODING 4394
SWIDTH 960 0
DWIDTH 16 0
BBX 12 8 2 2
BITMAP
8BF0
8800
8920
F920
8920
8920
8920
73F0
ENDCHAR
STARTCHAR 112B
ENCODING 4395
SWIDTH 960 0
DWIDTH 16 0
BBX 10 13 3 -1
BITMAP
8040
8040
FFC0
8040
8040
7F80
0000
1E00
2100
4080
4080
2100
1E00
ENDCHAR
STARTCHAR 112C
ENCODING 4396
SWIDTH 960 0
DWIDTH 16 0
BBX 12 13 2 -1
BITMAP
8910
8910
F9F0
8910
8910
70E0
0000
0F00
1080
2040
2040
1080
0F00
ENDCHAR
STARTCHAR 112D
ENCODING 4397
SWIDTH 960 0
DWIDTH 16 0
BBX 12 8 2 2
BITMAP
13E0
1010
1010
1010
2810
2810
4410
8210
ENDCHAR
STARTCHAR 112E
ENCODING 4398
SWIDTH 960 0
DWIDTH 16 0
BBX 14 8 1 2
BITMAP
1080
1080
1080
1080
2880
2880
4480
827C
ENDCHAR
STARTCHAR 112F
ENCODING 4399
SWIDTH 960 0
DWIDTH 16 0
BBX 13 8 1 2
BITMAP
1078
1080
1080
1080
2880
2880
4480
8278
ENDCHAR
STARTCHAR 1130
ENCODING 4400
SWIDTH 960 0
DWIDTH 16 0
BBX 13 8 1 2
BITMAP
10F0
1008
1008
1070
2880
2880
4480
8278
ENDCHAR
STARTCHAR 1131
ENCODING 4401
SWIDTH 960 0
DWIDTH 16 0
BBX 13 8 1 2
BITMAP
10F8
1088
1088
1088
2888
2888
4488
8270
ENDCHAR
STARTCHAR 1132
ENCODING 4402
SWIDTH 960 0
DWIDTH 16 0
BBX 13 8 1 2
BITMAP
1088
1088
1088
10F8
2888
2888
4488
8270
ENDCHAR
STARTCHAR 1133
ENCODING 4403
SWIDTH 960 0
DWIDTH 16 0
BBX 14 8 1 2
BITMAP
24B8
2484
2484
2784
2484
5484
5484
8B04
ENDCHAR
STARTCHAR 1134
ENCODING 4404
SWIDTH 960 0
DWIDTH 16 0
BBX 15 8 1 2
BITMAP
2108
2108
2108
2108
2108
5294
5294
8C62
ENDCHAR
STARTCHAR 1135
ENCODING 4405
SWIDTH 960 0
DWIDTH 16 0
BBX 14 8 1 2
BITMAP
1070
1088
1104
1104
2904
2904
4488
8270
ENDCHAR
STARTCHAR 1136
ENCODING 4406
SWIDTH 960 0
DWIDTH 16 0
BBX 14 8 1 2
BITMAP
10F8
1020
1020
1020
2850
2850
4488
8304
ENDCHAR
STARTCHAR 1137
ENCODING 4407
SWIDTH 960 0
DWIDTH 16 0
BBX 14 8 1 2
BITMAP
1070
1000
11FC
1020
2820
2850
4488
8304
ENDCHAR
STARTCHAR 1138
ENCODING 4408
SWIDTH 960 0
DWIDTH 16 0
BBX 13 8 1 2
BITMAP
11F0
1008
1008
1008
29F8
2808
4408
8208
ENDCHAR
STARTCHAR 1139
ENCODING 4409
SWIDTH 960 0
DWIDTH 16 0
BBX 13 8 1 2
BITMAP
1078
1080
1080
10F8
2880
2880
4480
8278
ENDCHAR
STARTCHAR 113A
ENCODING 4410
SWIDTH 960 0
DWIDTH 16 0
BBX 13 8 1 2
BITMAP
11F8
1000
1090
1090
2890
2890
4490
83F8
ENDCHAR
STARTCHAR 113B
ENCODING 4411
SWIDTH 960 0
DWIDTH 16 0
BBX 14 8 1 2
BITMAP
10F0
1000
13FC
1000
28F0
2908
4508
82F0
ENDCHAR
STARTCHAR 113C
ENCODING 4412
SWIDTH 960 0
DWIDTH 16 0
BBX 11 8 2 2
BITMAP
0100
0280
0440
0820
1000
2000
4000
8000
ENDCHAR
STARTCHAR 113D
ENCODING 4413
SWIDTH 960 0
DWIDTH 16 0
BBX 14 8 1 2
BITMAP
0110
02A8
0444
0880
1100
2200
4400
8800
ENDCHAR
STARTCHAR 113E
ENCODING 4414
SWIDTH 960 0
DWIDTH 16 0
BBX 11 8 3 2
BITMAP
1000
2800
4400
8200
0100
0080
0040
0020
ENDCHAR
STARTCHAR 113F
ENCODING 4415
SWIDTH 960 0
DWIDTH 16 0
BBX 14 8 1 2
BITMAP
2200
5500
8880
0440
0220
0110
0088
0044
ENDCHAR
STARTCHAR 1140
ENCODING 4416
SWIDTH 960 0
DWIDTH 16 0
BBX 9 8 4 2
BITMAP
0800
1400
1400
2200
2200
4100
4100
FF80
ENDCHAR
STARTCHAR 1141
ENCODING 4417
SWIDTH 960 0
DWIDTH 16 0
BBX 12 8 2 2
BITMAP
39E0
4410
8210
8210
8210
8210
4410
3810
ENDCHAR
STARTCHAR 1142
ENCODING 4418
SWIDTH 960 0
DWIDTH 16 0
BBX 13 8 2 2
BITMAP
3878
4480
8280
8280
8280
8280
4480
3878
ENDCHAR
STARTCHAR 1143
ENCODING 4419
SWIDTH 960 0
DWIDTH 16 0
BBX 13 8 2 2
BITMAP
38F8
4488
8288
8288
8288
8288
4488
3870
ENDCHAR
STARTCHAR 1144
ENCODING 4420
SWIDTH 960 0
DWIDTH 16 0
BBX 13 8 2 2
BITMAP
3888
4488
8288
82F8
8288
8288
4488
3870
ENDCHAR
STARTCHAR 1145
ENCODING 4421
SWIDTH 960 0
DWIDTH 16 0
BBX 14 8 2 2
BITMAP
3820
4420
8220
8220
8250
8250
4488
3904
ENDCHAR
STARTCHAR 1146
ENCODING 4422
SWIDTH 960 0
DWIDTH 16 0
BBX 13 8 2 2
BITMAP
3040
4840
84A0
84A0
8510
8510
4A08
33F8
ENDCHAR
STARTCHAR 1147
ENCODING 4423
SWIDTH 960 0
DWIDTH 16 0
BBX 13 8 2 2
BITMAP
3060
4890
8508
8508
8508
8508
4890
3060
ENDCHAR
STARTCHAR 1148
ENCODING 4424
SWIDTH 960 0
DWIDTH 16 0
BBX 13 8 2 2
BITMAP
31F0
4840
8440
8440
8440
84A0
4910
3208
ENDCHAR
STARTCHAR 1149
ENCODING 4425
SWIDTH 960 0
DWIDTH 16 0
BBX 13 8 2 2
BITMAP
30E0
4800
85F0
8440
8440
84A0
4910
3208
ENDCHAR
STARTCHAR 114A
ENCODING 4426
SWIDTH 960 0
DWIDTH 16 0
BBX 12 8 2 2
BITMAP
30F0
4900
8500
85F0
8500
8500
4900
30F0
ENDCHAR
STARTCHAR 114B
ENCODING 4427
SWIDTH 960 0
DWIDTH 16 0
BBX 12 8 2 2
BITMAP
33F0
4800
8520
8520
8520
8520
4920
33F0
ENDCHAR
STARTCHAR 114C
ENCODING 4428
SWIDTH 960 0
DWIDTH 16 0
BBX 10 9 3 1
BITMAP
0400
0400
3F00
4080
8040
8040
8040
4080
3F00
ENDCHAR
STARTCHAR 114D
ENCODING 4429
SWIDTH 960 0
DWIDTH 16 0
BBX 14 8 1 2
BITMAP
7C70
1088
1104
1104
2904
2904
4488
8270
ENDCHAR
STARTCHAR 114E
ENCODING 4430
SWIDTH 960 0
DWIDTH 16 0
BBX 10 8 3 2
BITMAP
7FC0
0200
0500
0880
1040
2000
4000
8000
ENDCHAR
STARTCHAR 114F
ENCODING 4431
SWIDTH 960 0
DWIDTH 16 0
BBX 14 8 1 2
BITMAP
7FFC
0210
0528
08C4
1080
2100
4200
8400
ENDCHAR
STARTCHAR 1150
ENCODING 4432
SWIDTH 960 0
DWIDTH 16 0
BBX 10 8 3 2
BITMAP
FF80
1000
2800
4400
8200
0100
0080
0040
ENDCHAR
STARTCHAR 1151
ENCODING 4433
SWIDTH 960 0
DWIDTH 16 0
BBX 14 8 1 2
BITMAP
FFF8
2100
5280
8C40
0420
0210
0108
0084
ENDCHAR
STARTCHAR 1152
ENCODING 4434
SWIDTH 960 0
DWIDTH 16 0
BBX 13 8 1 2
BITMAP
39F0
0008
FE08
1008
11F8
2808
4408
8208
ENDCHAR
STARTCHAR 1153
ENCODING 4435
SWIDTH 960 0
DWIDTH 16 0
BBX 14 8 1 2
BITMAP
38F0
0000
FFFC
1000
10F0
2908
4508
82F0
ENDCHAR
STARTCHAR 1154
ENCODING 4436
SWIDTH 960 0
DWIDTH 16 0
BBX 11 10 2 0
BITMAP
0200
0200
7FE0
0200
0500
0880
1040
2000
4000
8000
ENDCHAR
STARTCHAR 1155
ENCODING 4437
SWIDTH 960 0
DWIDTH 16 0
BBX 11 10 3 0
BITMAP
0800
0800
FFC0
0800
1400
2200
4100
0080
0040
0020
ENDCHAR
STARTCHAR 1156
ENCODING 4438
SWIDTH 960 0
DWIDTH 16 0
BBX 12 8 2 2
BITMAP
FD10
0110
4910
49F0
4910
4910
4910
FCE0
ENDCHAR
STARTCHAR 1157
ENCODING 4439
SWIDTH 960 0
DWIDTH 16 0
BBX 10 12 3 0
BITMAP
FFC0
2100
2100
2100
FFC0
0000
1E00
2100
4080
4080
2100
1E00
ENDCHAR
STARTCHAR 1158
ENCODING 4440
SWIDTH 960 0
DWIDTH 16 0
BBX 14 8 1 2
BITMAP
7878
0000
FFFC
0000
7878
8484
8484
7878
ENDCHAR
STARTCHAR 1159
ENCODING 4441
SWIDTH 960 0
DWIDTH 16 0
BBX 12 9 2 2
BITMAP
FFF0
0000
0000
0F00
1080
2040
2040
1080
0F00
ENDCHAR
STARTCHAR 115A
ENCODING 4442
SWIDTH 960 0
DWIDTH 16 0
BBX 0 0 0 -2
BITMAP
ENDCHAR
STARTCHAR 115B
ENCODING 4443
SWIDTH 960 0
DWIDTH 16 0
BBX 0 0 0 -2
BITMAP
ENDCHAR
STARTCHAR 115C
ENCODING 4444
SWIDTH 960 0
DWIDTH 16 0
BBX 0 0 0 -2
BITMAP
ENDCHAR
STARTCHAR 115D
ENCODING 4445
SWIDTH 960 0
DWIDTH 16 0
BBX 0 0 0 -2
BITMAP
ENDCHAR
STARTCHAR 115E
ENCODING 4446
SWIDTH 960 0
DWIDTH 16 0
BBX 0 0 0 -2
BITMAP
ENDCHAR
STARTCHAR 115F
ENCODING 4447
SWIDTH 960 0
DWIDTH 16 0
BBX 0 0 0 -2
BITMAP
ENDCHAR
STARTCHAR 1160
ENCODING 4448
SWIDTH 960 0
DWIDTH 16 0
BBX 0 0 0 -2
BITMAP
ENDCHAR
STARTCHAR 1161
ENCODING 4449
SWIDTH 960 0
DWIDTH 16 0
BBX 5 14 7 -1
BITMAP
80
80
80
80
80
80
F8
80
80
80
80
80
80
80
ENDCHAR
STARTCHAR 1162
ENCODING 4450
SWIDTH 960 0
DWIDTH 16 0
BBX 5 14 6 -1
BITMAP
88
88
88
88
88
88
F8
88
88
88
88
88
88
88
ENDCHAR
STARTCHAR 1163
ENCODING 4451
SWIDTH 960 0
DWIDTH 16 0
BBX 4 14 7 -1
BITMAP
80
80
80
80
F0
80
80
80
F0
80
80
80
80
80
ENDCHAR
STARTCHAR 1164
ENCODING 4452
SWIDTH 960 0
DWIDTH 16 0
BBX 5 14 6 -1
BITMAP
88
88
88
88
F8
88
88
88
F8
88
88
88
88
88
ENDCHAR
STARTCHAR 1165
ENCODING 4453
SWIDTH 960 0
DWIDTH 16 0
BBX 5 14 5 -1
BITMAP
08
08
08
08
08
08
F8
08
08
08
08
08
08
08
ENDCHAR
STARTCHAR 1166
ENCODING 4454
SWIDTH 960 0
DWIDTH 16 0
BBX 7 14 4 -1
BITMAP
12
12
12
12
12
12
F2
12
12
12
12
12
12
12
ENDCHAR
STARTCHAR 1167
ENCODING 4455
SWIDTH 960 0
DWIDTH 16 0
BBX 5 14 5 -1
BITMAP
08
08
08
08
08
F8
08
08
F8
08
08
08
08
08
ENDCHAR
STARTCHAR 1168
ENCODING 4456
SWIDTH 960 0
DWIDTH 16 0
BBX 7 14 4 -1
BITMAP
12
12
12
12
F2
12
12
12
F2
12
12
12
12
12
ENDCHAR
STARTCHAR 1169
ENCODING 4457
SWIDTH 960 0
DWIDTH 16 0
BBX 13 7 2 2
BITMAP
0200
0200
0200
0200
0200
0200
FFF8
ENDCHAR
STARTCHAR 116A
ENCODING 4458
SWIDTH 960 0
DWIDTH 16 0
BBX 13 14 2 -1
BITMAP
0040
0040
0040
0840
0840
0840
0840
0878
0840
FF40
0040
0040
0040
0040
ENDCHAR
STARTCHAR 116B
ENCODING 4459
SWIDTH 960 0
DWIDTH 16 0
BBX 12 14 2 -1
BITMAP
0090
0090
0090
0090
1090
1090
1090
10F0
1090
FE90
0090
0090
0090
0090
ENDCHAR
STARTCHAR 116C
ENCODING 4460
SWIDTH 960 0
DWIDTH 16 0
BBX 11 14 2 -1
BITMAP
0020
0020
0020
0820
0820
0820
0820
0820
0820
FFA0
0020
0020
0020
0020
ENDCHAR
STARTCHAR 116D
ENCODING 4461
SWIDTH 960 0
DWIDTH 16 0
BBX 13 6 2 3
BITMAP
0880
0880
0880
0880
0880
FFF8
ENDCHAR
STARTCHAR 116E
ENCODING 4462
SWIDTH 960 0
DWIDTH 16 0
BBX 13 9 2 3
BITMAP
FFF8
0200
0200
0200
0200
0200
0200
0200
0200
ENDCHAR
STARTCHAR 116F
ENCODING 4463
SWIDTH 960 0
DWIDTH 16 0
BBX 11 14 2 -1
BITMAP
0020
0020
0020
0020
FF20
1020
1020
11E0
1020
1020
1020
2020
0020
0020
ENDCHAR
STARTCHAR 1170
ENCODING 4464
SWIDTH 960 0
DWIDTH 16 0
BBX 12 14 2 -1
BITMAP
0090
0090
0090
0090
FE90
1090
1090
1390
1090
1090
1090
2090
0090
0090
ENDCHAR
STARTCHAR 1171
ENCODING 4465
SWIDTH 960 0
DWIDTH 16 0
BBX 11 14 2 -1
BITMAP
0020
0020
0020
0020
0020
FFA0
0820
0820
0820
0820
0820
1020
0020
0020
ENDCHAR
STARTCHAR 1172
ENCODING 4466
SWIDTH 960 0
DWIDTH 16 0
BBX 13 8 2 3
BITMAP
FFF8
0880
0880
0880
0880
0880
0880
1080
ENDCHAR
STARTCHAR 1173
ENCODING 4467
SWIDTH 960 0
DWIDTH 16 0
BBX 13 1 2 7
BITMAP
FFF8
ENDCHAR
STARTCHAR 1174
ENCODING 4468
SWIDTH 960 0
DWIDTH 16 0
BBX 11 14 2 -1
BITMAP
0020
0020
0020
0020
0020
0020
0020
0020
FFA0
0020
0020
0020
0020
0020
ENDCHAR
STARTCHAR 1175
ENCODING 4469
SWIDTH 960 0
DWIDTH 16 0
BBX 1 14 8 -1
BITMAP
80
80
80
80
80
80
80
80
80
80
80
80
80
80
ENDCHAR
STARTCHAR 1176
ENCODING 4470
SWIDTH 960 0
DWIDTH 16 0
BBX 13 13 2 -1
BITMAP
0020
0020
0020
0020
0020
0038
0020
0020
0420
0420
0400
0400
FFF8
ENDCHAR
STARTCHAR 1177
ENCODING 4471
SWIDTH 960 0
DWIDTH 16 0
BBX 13 14 2 -1
BITMAP
0020
0020
0020
0020
0038
0020
0020
0020
0000
FFF8
0200
0200
0200
0200
ENDCHAR
STARTCHAR 1178
ENCODING 4472
SWIDTH 960 0
DWIDTH 16 0
BBX 13 13 2 -1
BITMAP
0020
0020
0020
0038
0020
0020
0020
0038
0420
0420
0400
0400
FFF8
ENDCHAR
STARTCHAR 1179
ENCODING 4473
SWIDTH 960 0
DWIDTH 16 0
BBX 13 13 2 -1
BITMAP
0020
0020
0020
0038
0020
0020
0020
0038
1120
1120
1100
1100
FFF8
ENDCHAR
STARTCHAR 117A
ENCODING 4474
SWIDTH 960 0
DWIDTH 16 0
BBX 13 13 2 -1
BITMAP
0020
0020
0020
0020
03E0
0020
0020
0020
0420
0420
0400
0400
FFF8
ENDCHAR
STARTCHAR 117B
ENCODING 4475
SWIDTH 960 0
DWIDTH 16 0
BBX 13 14 2 -1
BITMAP
0020
0020
0020
0020
03E0
0020
0020
0020
0000
FFF8
0200
0200
0200
0200
ENDCHAR
STARTCHAR 117C
ENCODING 4476
SWIDTH 960 0
DWIDTH 16 0
BBX 13 13 2 -1
BITMAP
0020
0020
0020
0020
03E0
0020
0020
0020
0020
0020
0000
0000
FFF8
ENDCHAR
STARTCHAR 117D
ENCODING 4477
SWIDTH 960 0
DWIDTH 16 0
BBX 13 13 2 -1
BITMAP
0020
0020
03E0
0020
0020
03E0
0020
0020
0420
0420
0400
0400
FFF8
ENDCHAR
STARTCHAR 117E
ENCODING 4478
SWIDTH 960 0
DWIDTH 16 0
BBX 13 14 2 -1
BITMAP
0020
0020
03E0
0020
0020
03E0
0020
0020
0000
FFF8
0200
0200
0200
0200
ENDCHAR
STARTCHAR 117F
ENCODING 4479
SWIDTH 960 0
DWIDTH 16 0
BBX 12 14 1 -1
BITMAP
0010
0010
0010
0010
0010
0810
0810
08F0
0810
0810
FFD0
0010
0010
0010
ENDCHAR
STARTCHAR 1180
ENCODING 4480
SWIDTH 960 0
DWIDTH 16 0
BBX 12 14 2 -1
BITMAP
0090
0090
0090
1090
1090
1390
1090
1090
1090
FE90
0090
0090
0090
0090
ENDCHAR
STARTCHAR 1181
ENCODING 4481
SWIDTH 960 0
DWIDTH 16 0
BBX 12 14 2 -1
BITMAP
0090
0090
0090
0390
1090
1090
1390
1090
1090
FE90
0090
0090
0090
0090
ENDCHAR
STARTCHAR 1182
ENCODING 4482
SWIDTH 960 0
DWIDTH 16 0
BBX 13 11 2 0
BITMAP
0200
0200
0200
0200
FFF8
0000
0200
0200
0200
0200
FFF8
ENDCHAR
STARTCHAR 1183
ENCODING 4483
SWIDTH 960 0
DWIDTH 16 0
BBX 13 13 2 -1
BITMAP
0200
0200
0200
0200
FFF8
0000
0000
FFF8
0200
0200
0200
0200
0200
ENDCHAR
STARTCHAR 1184
ENCODING 4484
SWIDTH 960 0
DWIDTH 16 0
BBX 13 14 2 -1
BITMAP
0040
0040
0040
2440
2440
2478
2440
2440
2440
FF78
0040
0040
0040
0040
ENDCHAR
STARTCHAR 1185
ENCODING 4485
SWIDTH 960 0
DWIDTH 16 0
BBX 12 14 2 -1
BITMAP
0090
0090
0090
2490
24F0
2490
2490
2490
24F0
FE90
0090
0090
0090
0090
ENDCHAR
STARTCHAR 1186
ENCODING 4486
SWIDTH 960 0
DWIDTH 16 0
BBX 11 14 2 -1
BITMAP
0020
0020
0020
25E0
2420
2420
25E0
2420
2420
FFA0
0020
0020
0020
0020
ENDCHAR
STARTCHAR 1187
ENCODING 4487
SWIDTH 960 0
DWIDTH 16 0
BBX 13 12 2 -1
BITMAP
0880
0880
0880
0880
0880
FFF8
0000
0200
0200
0200
0200
FFF8
ENDCHAR
STARTCHAR 1188
ENCODING 4488
SWIDTH 960 0
DWIDTH 16 0
BBX 11 14 2 -1
BITMAP
0020
0020
0020
1220
1220
1220
1220
1220
1220
FFA0
0020
0020
0020
0020
ENDCHAR
STARTCHAR 1189
ENCODING 4489
SWIDTH 960 0
DWIDTH 16 0
BBX 13 14 2 -1
BITMAP
0040
0040
0040
0040
0040
0040
FF78
0840
0840
0840
0840
0840
1040
0040
ENDCHAR
STARTCHAR 118A
ENCODING 4490
SWIDTH 960 0
DWIDTH 16 0
BBX 12 14 2 -1
BITMAP
0090
0090
0090
0090
0090
0090
FE90
10F0
1090
1090
1090
1090
2090
0090
ENDCHAR
STARTCHAR 118B
ENCODING 4491
SWIDTH 960 0
DWIDTH 16 0
BBX 11 14 2 -1
BITMAP
0020
0020
0020
0020
FF20
1020
1020
11E0
1020
1020
2020
0020
FFA0
0020
ENDCHAR
STARTCHAR 118C
ENCODING 4492
SWIDTH 960 0
DWIDTH 16 0
BBX 12 14 2 -1
BITMAP
0090
0090
0090
0090
FE90
1090
1790
1090
1090
1790
1090
2090
0090
0090
ENDCHAR
STARTCHAR 118D
ENCODING 4493
SWIDTH 960 0
DWIDTH 16 0
BBX 13 12 2 0
BITMAP
FFF8
0200
0200
0200
0200
0000
FFF8
0200
0200
0200
0200
0200
ENDCHAR
STARTCHAR 118E
ENCODING 4494
SWIDTH 960 0
DWIDTH 16 0
BBX 13 14 2 -1
BITMAP
0040
0040
0040
0040
0040
0040
FF40
2478
2440
2440
2440
2440
4440
0040
ENDCHAR
STARTCHAR 118F
ENCODING 4495
SWIDTH 960 0
DWIDTH 16 0
BBX 11 14 2 -1
BITMAP
0020
0020
0020
0020
FF20
2420
2420
25E0
2420
2420
2420
4420
0020
0020
ENDCHAR
STARTCHAR 1190
ENCODING 4496
SWIDTH 960 0
DWIDTH 16 0
BBX 12 14 2 -1
BITMAP
0090
0090
0090
0090
FE90
2890
2890
2B90
2890
2890
2890
4890
0090
0090
ENDCHAR
STARTCHAR 1191
ENCODING 4497
SWIDTH 960 0
DWIDTH 16 0
BBX 11 14 2 -1
BITMAP
0020
0020
0020
0020
FF20
2420
25E0
2420
25E0
2420
2420
4420
0020
0020
ENDCHAR
STARTCHAR 1192
ENCODING 4498
SWIDTH 960 0
DWIDTH 16 0
BBX 12 14 2 -1
BITMAP
0090
0090
0090
0090
FE90
2890
2B90
2890
2890
2B90
2890
4890
0090
0090
ENDCHAR
STARTCHAR 1193
ENCODING 4499
SWIDTH 960 0
DWIDTH 16 0
BBX 13 12 2 0
BITMAP
FFF8
0880
0880
0880
1080
0000
FFF8
0200
0200
0200
0200
0200
ENDCHAR
STARTCHAR 1194
ENCODING 4500
SWIDTH 960 0
DWIDTH 16 0
BBX 11 14 2 -1
BITMAP
0020
0020
0020
0020
0020
FFA0
1220
1220
1220
1220
1220
2220
0020
0020
ENDCHAR
STARTCHAR 1195
ENCODING 4501
SWIDTH 960 0
DWIDTH 16 0
BBX 13 10 2 2
BITMAP
FFF8
0000
0000
FFF8
0200
0200
0200
0200
0200
0200
ENDCHAR
STARTCHAR 1196
ENCODING 4502
SWIDTH 960 0
DWIDTH 16 0
BBX 13 6 2 3
BITMAP
FFF8
0000
0000
0000
0000
FFF8
ENDCHAR
STARTCHAR 1197
ENCODING 4503
SWIDTH 960 0
DWIDTH 16 0
BBX 13 13 2 -1
BITMAP
0020
0020
0020
0020
FFA0
0020
0020
0000
FFF8
0200
0200
0200
0200
ENDCHAR
STARTCHAR 1198
ENCODING 4504
SWIDTH 960 0
DWIDTH 16 0
BBX 8 14 5 -1
BITMAP
90
90
90
90
90
90
9F
90
90
90
90
90
90
90
ENDCHAR
STARTCHAR 1199
ENCODING 4505
SWIDTH 960 0
DWIDTH 16 0
BBX 8 14 5 -1
BITMAP
88
88
88
88
8F
88
88
88
8F
88
88
88
88
88
ENDCHAR
STARTCHAR 119A
ENCODING 4506
SWIDTH 960 0
DWIDTH 16 0
BBX 13 12 2 -1
BITMAP
0020
0020
0020
0020
0020
0020
0020
0220
0200
0200
0200
FFF8
ENDCHAR
STARTCHAR 119B
ENCODING 4507
SWIDTH 960 0
DWIDTH 16 0
BBX 13 14 2 -1
BITMAP
0020
0020
0020
0020
0020
0020
0000
FFF8
0200
0200
0200
0200
0200
0200
ENDCHAR
STARTCHAR 119C
ENCODING 4508
SWIDTH 960 0
DWIDTH 16 0
BBX 12 12 2 -1
BITMAP
0040
0040
0040
0040
0040
0040
0040
0040
0040
0040
0000
FFF0
ENDCHAR
STARTCHAR 119D
ENCODING 4509
SWIDTH 960 0
DWIDTH 16 0
BBX 3 14 7 -1
BITMAP
40
40
40
40
40
40
40
40
40
00
00
40
E0
40
ENDCHAR
STARTCHAR 119E
ENCODING 4510
SWIDTH 960 0
DWIDTH 16 0
BBX 3 3 6 5
BITMAP
40
E0
40
ENDCHAR
STARTCHAR 119F
ENCODING 4511
SWIDTH 960 0
DWIDTH 16 0
BBX 6 14 4 -1
BITMAP
04
04
04
04
04
7C
04
04
04
44
E4
44
04
04
ENDCHAR
STARTCHAR 11A0
ENCODING 4512
SWIDTH 960 0
DWIDTH 16 0
BBX 13 13 2 -1
BITMAP
0200
0700
0200
0000
0000
FFF8
0200
0200
0200
0200
0200
0200
0200
ENDCHAR
STARTCHAR 11A1
ENCODING 4513
SWIDTH 960 0
DWIDTH 16 0
BBX 7 14 5 -1
BITMAP
02
02
02
02
02
42
E2
42
02
02
02
02
02
02
ENDCHAR
STARTCHAR 11A2
ENCODING 4514
SWIDTH 960 0
DWIDTH 16 0
BBX 9 3 4 5
BITMAP
4100
E380
4100
ENDCHAR
STARTCHAR 11A3
ENCODING 4515
SWIDTH 960 0
DWIDTH 16 0
BBX 0 0 0 -2
BITMAP
ENDCHAR
STARTCHAR 11A4
ENCODING 4516
SWIDTH 960 0
DWIDTH 16 0
BBX 0 0 0 -2
BITMAP
ENDCHAR
STARTCHAR 11A5
ENCODING 4517
SWIDTH 960 0
DWIDTH 16 0
BBX 0 0 0 -2
BITMAP
ENDCHAR
STARTCHAR 11A6
ENCODING 4518
SWIDTH 960 0
DWIDTH 16 0
BBX 0 0 0 -2
BITMAP
ENDCHAR
STARTCHAR 11A7
ENCODING 4519
SWIDTH 960 0
DWIDTH 16 0
BBX 0 0 0 -2
BITMAP
ENDCHAR
STARTCHAR 11A8
ENCODING 4520
SWIDTH 960 0
DWIDTH 16 0
BBX 10 8 3 2
BITMAP
FF80
0040
0040
0040
0040
0040
0040
0040
ENDCHAR
STARTCHAR 11A9
ENCODING 4521
SWIDTH 960 0
DWIDTH 16 0
BBX 11 8 2 2
BITMAP
F3C0
0820
0820
0820
0820
0820
0820
0820
ENDCHAR
STARTCHAR 11AA
ENCODING 4522
SWIDTH 960 0
DWIDTH 16 0
BBX 13 8 2 2
BITMAP
F040
0840
0840
0840
08A0
08A0
0910
0A08
ENDCHAR
STARTCHAR 11AB
ENCODING 4523
SWIDTH 960 0
DWIDTH 16 0
BBX 10 8 3 2
BITMAP
8000
8000
8000
8000
8000
8000
8000
7FC0
ENDCHAR
STARTCHAR 11AC
ENCODING 4524
SWIDTH 960 0
DWIDTH 16 0
BBX 12 8 2 2
BITMAP
83E0
8080
8080
8080
8140
8140
8220
7410
ENDCHAR
STARTCHAR 11AD
ENCODING 4525
SWIDTH 960 0
DWIDTH 16 0
BBX 13 8 2 2
BITMAP
81E0
8000
87F8
8000
81E0
8210
8210
79E0
ENDCHAR
STARTCHAR 11AE
ENCODING 4526
SWIDTH 960 0
DWIDTH 16 0
BBX 10 8 3 2
BITMAP
7FC0
8000
8000
8000
8000
8000
8000
7FC0
ENDCHAR
STARTCHAR 11AF
ENCODING 4527
SWIDTH 960 0
DWIDTH 16 0
BBX 10 8 3 2
BITMAP
FF80
0040
0040
7F80
8000
8000
8000
7FC0
ENDCHAR
STARTCHAR 11B0
ENCODING 4528
SWIDTH 960 0
DWIDTH 16 0
BBX 12 8 2 2
BITMAP
F9E0
0410
0410
7810
8010
8010
8010
7E10
ENDCHAR
STARTCHAR 11B1
ENCODING 4529
SWIDTH 960 0
DWIDTH 16 0
BBX 12 8 2 2
BITMAP
F3F0
0A10
0A10
7210
8210
8210
8210
79E0
ENDCHAR
STARTCHAR 11B2
ENCODING 4530
SWIDTH 960 0
DWIDTH 16 0
BBX 12 8 2 2
BITMAP
F210
0A10
0A10
73F0
8210
8210
8210
79E0
ENDCHAR
STARTCHAR 11B3
ENCODING 4531
SWIDTH 960 0
DWIDTH 16 0
BBX 13 8 2 2
BITMAP
F040
0840
0840
7040
80A0
80A0
8110
7A08
ENDCHAR
STARTCHAR 11B4
ENCODING 4532
SWIDTH 960 0
DWIDTH 16 0
BBX 12 8 2 2
BITMAP
F0F0
0900
0900
71F0
8100
8100
8100
7CF0
ENDCHAR
STARTCHAR 11B5
ENCODING 4533
SWIDTH 960 0
DWIDTH 16 0
BBX 12 8 2 2
BITMAP
F3F0
0800
0920
7120
8120
8120
8120
7BF0
ENDCHAR
STARTCHAR 11B6
ENCODING 4534
SWIDTH 960 0
DWIDTH 16 0
BBX 13 8 2 2
BITMAP
F0E0
0800
0BF8
7000
80E0
8110
8110
7CE0
ENDCHAR
STARTCHAR 11B7
ENCODING 4535
SWIDTH 960 0
DWIDTH 16 0
BBX 10 8 3 2
BITMAP
FFC0
8040
8040
8040
8040
8040
8040
7F80
ENDCHAR
STARTCHAR 11B8
ENCODING 4536
SWIDTH 960 0
DWIDTH 16 0
BBX 10 8 3 2
BITMAP
8040
8040
8040
FFC0
8040
8040
8040
7F80
ENDCHAR
STARTCHAR 11B9
ENCODING 4537
SWIDTH 960 0
DWIDTH 16 0
BBX 13 8 2 2
BITMAP
8440
8440
8440
FC40
84A0
84A0
8510
7A08
ENDCHAR
STARTCHAR 11BA
ENCODING 4538
SWIDTH 960 0
DWIDTH 16 0
BBX 11 8 3 2
BITMAP
0400
0400
0400
0A00
0A00
1100
2080
C060
ENDCHAR
STARTCHAR 11BB
ENCODING 4539
SWIDTH 960 0
DWIDTH 16 0
BBX 12 8 2 2
BITMAP
1080
1080
1080
1080
2940
2940
4620
8410
ENDCHAR
STARTCHAR 11BC
ENCODING 4540
SWIDTH 960 0
DWIDTH 16 0
BBX 10 8 3 2
BITMAP
3F00
4080
8040
8040
8040
8040
4080
3F00
ENDCHAR
STARTCHAR 11BD
ENCODING 4541
SWIDTH 960 0
DWIDTH 16 0
BBX 11 8 3 2
BITMAP
7FC0
0400
0400
0A00
0A00
1100
2080
C060
ENDCHAR
STARTCHAR 11BE
ENCODING 4542
SWIDTH 960 0
DWIDTH 16 0
BBX 11 9 3 1
BITMAP
1F00
0000
7FC0
0400
0400
0A00
1100
2080
C060
ENDCHAR
STARTCHAR 11BF
ENCODING 4543
SWIDTH 960 0
DWIDTH 16 0
BBX 10 8 3 2
BITMAP
FF80
0040
0040
0040
FFC0
0040
0040
0040
ENDCHAR
STARTCHAR 11C0
ENCODING 4544
SWIDTH 960 0
DWIDTH 16 0
BBX 10 8 3 2
BITMAP
7FC0
8000
8000
FFC0
8000
8000
8000
7FC0
ENDCHAR
STARTCHAR 11C1
ENCODING 4545
SWIDTH 960 0
DWIDTH 16 0
BBX 10 8 3 2
BITMAP
FFC0
0000
2100
2100
2100
2100
2100
FFC0
ENDCHAR
STARTCHAR 11C2
ENCODING 4546
SWIDTH 960 0
DWIDTH 16 0
BBX 11 10 3 1
BITMAP
1F00
0000
FFE0
0000
1F00
2080
4040
4040
2080
1F00
ENDCHAR
STARTCHAR 11C3
ENCODING 4547
SWIDTH 960 0
DWIDTH 16 0
BBX 12 8 2 2
BITMAP
F3E0
0810
0810
09E0
0A00
0A00
0A00
09F0
ENDCHAR
STARTCHAR 11C4
ENCODING 4548
SWIDTH 960 0
DWIDTH 16 0
BBX 13 8 2 2
BITMAP
E170
1108
1108
1108
1108
1288
1288
1448
ENDCHAR
STARTCHAR 11C5
ENCODING 4549
SWIDTH 960 0
DWIDTH 16 0
BBX 11 8 3 2
BITMAP
87C0
8020
8020
8020
8020
8020
8020
7C20
ENDCHAR
STARTCHAR 11C6
ENCODING 4550
SWIDTH 960 0
DWIDTH 16 0
BBX 13 8 2 2
BITMAP
80F8
8100
8100
8100
8100
8100
8100
7CF8
ENDCHAR
STARTCHAR 11C7
ENCODING 4551
SWIDTH 960 0
DWIDTH 16 0
BBX 13 8 2 2
BITMAP
8040
8040
8040
8040
80A0
80A0
8110
7A08
ENDCHAR
STARTCHAR 11C8
ENCODING 4552
SWIDTH 960 0
DWIDTH 16 0
BBX 13 8 2 2
BITMAP
8040
8040
80A0
80A0
8110
8110
8208
7BF8
ENDCHAR
STARTCHAR 11C9
ENCODING 4553
SWIDTH 960 0
DWIDTH 16 0
BBX 12 8 2 2
BITMAP
80F0
8100
8100
81F0
8100
8100
8100
7CF0
ENDCHAR
STARTCHAR 11CA
ENCODING 4554
SWIDTH 960 0
DWIDTH 16 0
BBX 12 8 2 2
BITMAP
7DE0
8010
8010
8010
8010
8010
8010
7C10
ENDCHAR
STARTCHAR 11CB
ENCODING 4555
SWIDTH 960 0
DWIDTH 16 0
BBX 12 8 2 2
BITMAP
7BE0
8010
8010
81E0
8200
8200
8200
79F0
ENDCHAR
STARTCHAR 11CC
ENCODING 4556
SWIDTH 960 0
DWIDTH 16 0
BBX 13 8 2 2
BITMAP
F620
0920
0920
7920
8120
8150
8150
7988
ENDCHAR
STARTCHAR 11CD
ENCODING 4557
SWIDTH 960 0
DWIDTH 16 0
BBX 13 8 2 2
BITMAP
F100
0900
0900
7900
8100
8100
8100
78F8
ENDCHAR
STARTCHAR 11CE
ENCODING 4558
SWIDTH 960 0
DWIDTH 16 0
BBX 12 8 2 2
BITMAP
F0F0
0900
0900
7100
8100
8100
8100
78F0
ENDCHAR
STARTCHAR 11CF
ENCODING 4559
SWIDTH 960 0
DWIDTH 16 0
BBX 13 8 2 2
BITMAP
E3B0
1400
1478
6400
8430
8448
8448
73B0
ENDCHAR
STARTCHAR 11D0
ENCODING 4560
SWIDTH 960 0
DWIDTH 16 0
BBX 13 8 2 2
BITMAP
F1E0
0810
0810
70E0
8100
8100
8100
78F8
ENDCHAR
STARTCHAR 11D1
ENCODING 4561
SWIDTH 960 0
DWIDTH 16 0
BBX 13 8 2 2
BITMAP
E7F0
1488
1488
7488
8488
8488
8488
7308
ENDCHAR
STARTCHAR 11D2
ENCODING 4562
SWIDTH 960 0
DWIDTH 16 0
BBX 13 8 2 2
BITMAP
EF20
1920
1920
6920
8920
8950
8950
7688
ENDCHAR
STARTCHAR 11D3
ENCODING 4563
SWIDTH 960 0
DWIDTH 16 0
BBX 13 8 2 2
BITMAP
C920
2920
2920
6F20
8920
8950
8950
6688
ENDCHAR
STARTCHAR 11D4
ENCODING 4564
SWIDTH 960 0
DWIDTH 16 0
BBX 13 8 2 2
BITMAP
C930
2900
2978
6F00
8930
8948
8948
6630
ENDCHAR
STARTCHAR 11D5
ENCODING 4565
SWIDTH 960 0
DWIDTH 16 0
BBX 12 9 2 1
BITMAP
0110
F1F0
0910
08E0
7000
80E0
8110
8110
78E0
ENDCHAR
STARTCHAR 11D6
ENCODING 4566
SWIDTH 960 0
DWIDTH 16 0
BBX 13 8 2 2
BITMAP
E420
1420
1420
6420
8420
8A50
8950
7188
ENDCHAR
STARTCHAR 11D7
ENCODING 4567
SWIDTH 960 0
DWIDTH 16 0
BBX 13 8 2 2
BITMAP
F040
0840
08A0
70A0
8110
8110
8208
7BF8
ENDCHAR
STARTCHAR 11D8
ENCODING 4568
SWIDTH 960 0
DWIDTH 16 0
BBX 12 8 2 2
BITMAP
F1E0
0810
0810
7010
81F0
8010
8410
7810
ENDCHAR
STARTCHAR 11D9
ENCODING 4569
SWIDTH 960 0
DWIDTH 16 0
BBX 13 8 2 2
BITMAP
F3F8
0800
0800
70E0
8110
8110
8110
7CE0
ENDCHAR
STARTCHAR 11DA
ENCODING 4570
SWIDTH 960 0
DWIDTH 16 0
BBX 12 8 2 2
BITMAP
FDE0
8410
8410
8410
8410
8410
8410
7810
ENDCHAR
STARTCHAR 11DB
ENCODING 4571
SWIDTH 960 0
DWIDTH 16 0
BBX 12 8 2 2
BITMAP
FBE0
8810
8810
89E0
8A00
8A00
8A00
71F0
ENDCHAR
STARTCHAR 11DC
ENCODING 4572
SWIDTH 960 0
DWIDTH 16 0
BBX 12 8 2 2
BITMAP
F910
8910
8910
89F0
8910
8910
8910
70E0
ENDCHAR
STARTCHAR 11DD
ENCODING 4573
SWIDTH 960 0
DWIDTH 16 0
BBX 13 8 2 2
BITMAP
F840
8840
8840
8840
88A0
88A0
8910
7208
ENDCHAR
STARTCHAR 11DE
ENCODING 4574
SWIDTH 960 0
DWIDTH 16 0
BBX 13 8 2 2
BITMAP
F220
9220
9220
9220
9220
9550
9550
6888
ENDCHAR
STARTCHAR 11DF
ENCODING 4575
SWIDTH 960 0
DWIDTH 16 0
BBX 13 8 2 2
BITMAP
F840
8840
88A0
88A0
8910
8910
8A08
73F8
ENDCHAR
STARTCHAR 11E0
ENCODING 4576
SWIDTH 960 0
DWIDTH 16 0
BBX 13 8 2 2
BITMAP
F9F0
8800
8BF8
8840
8840
88A0
8910
7208
ENDCHAR
STARTCHAR 11E1
ENCODING 4577
SWIDTH 960 0
DWIDTH 16 0
BBX 12 8 2 2
BITMAP
F9E0
8800
8BF0
8800
89E0
8A10
8A10
71E0
ENDCHAR
STARTCHAR 11E2
ENCODING 4578
SWIDTH 960 0
DWIDTH 16 0
BBX 8 12 4 0
BITMAP
FF
81
81
81
7E
00
3C
42
81
81
42
3C
ENDCHAR
STARTCHAR 11E3
ENCODING 4579
SWIDTH 960 0
DWIDTH 16 0
BBX 12 8 2 2
BITMAP
89E0
8810
8810
F8E0
8900
8900
8900
70F0
ENDCHAR
STARTCHAR 11E4
ENCODING 4580
SWIDTH 960 0
DWIDTH 16 0
BBX 12 8 2 2
BITMAP
8BF0
8800
8920
F920
8920
8920
8920
73F0
ENDCHAR
STARTCHAR 11E5
ENCODING 4581
SWIDTH 960 0
DWIDTH 16 0
BBX 12 8 2 2
BITMAP
89E0
8800
8BF0
F800
89E0
8A10
8A10
71E0
ENDCHAR
STARTCHAR 11E6
ENCODING 4582
SWIDTH 960 0
DWIDTH 16 0
BBX 8 13 4 -1
BITMAP
81
81
FF
81
81
7E
00
3C
42
81
81
42
3C
ENDCHAR
STARTCHAR 11E7
ENCODING 4583
SWIDTH 960 0
DWIDTH 16 0
BBX 12 8 2 2
BITMAP
13E0
1010
1010
1010
2810
2810
4410
8210
ENDCHAR
STARTCHAR 11E8
ENCODING 4584
SWIDTH 960 0
DWIDTH 16 0
BBX 12 8 2 2
BITMAP
10F0
1100
1100
1100
2900
2900
4500
82F0
ENDCHAR
STARTCHAR 11E9
ENCODING 4585
SWIDTH 960 0
DWIDTH 16 0
BBX 13 8 2 2
BITMAP
11E0
1010
1010
10E0
2900
2900
4500
82F8
ENDCHAR
STARTCHAR 11EA
ENCODING 4586
SWIDTH 960 0
DWIDTH 16 0
BBX 12 8 2 2
BITMAP
1110
1110
1110
11F0
2910
2910
4510
82E0
ENDCHAR
STARTCHAR 11EB
ENCODING 4587
SWIDTH 960 0
DWIDTH 16 0
BBX 9 8 4 2
BITMAP
0800
1400
1400
2200
2200
4100
4100
FF80
ENDCHAR
STARTCHAR 11EC
ENCODING 4588
SWIDTH 960 0
DWIDTH 16 0
BBX 12 8 2 2
BITMAP
39E0
4410
8210
8210
8210
8210
4410
3810
ENDCHAR
STARTCHAR 11ED
ENCODING 4589
SWIDTH 960 0
DWIDTH 16 0
BBX 13 8 2 2
BITMAP
3770
4888
8488
8488
8488
8488
4888
3088
ENDCHAR
STARTCHAR 11EE
ENCODING 4590
SWIDTH 960 0
DWIDTH 16 0
BBX 13 8 2 2
BITMAP
3060
4890
8508
8508
8508
8508
4890
3060
ENDCHAR
STARTCHAR 11EF
ENCODING 4591
SWIDTH 960 0
DWIDTH 16 0
BBX 12 8 2 2
BITMAP
31E0
4810
8410
85F0
8410
8410
4810
3010
ENDCHAR
STARTCHAR 11F0
ENCODING 4592
SWIDTH 960 0
DWIDTH 16 0
BBX 10 9 3 1
BITMAP
0400
0400
3F00
4080
8040
8040
8040
4080
3F00
ENDCHAR
STARTCHAR 11F1
ENCODING 4593
SWIDTH 960 0
DWIDTH 16 0
BBX 14 9 2 1
BITMAP
1000
1020
3820
4420
8220
8250
8250
4488
3904
ENDCHAR
STARTCHAR 11F2
ENCODING 4594
SWIDTH 960 0
DWIDTH 16 0
BBX 13 9 2 1
BITMAP
1040
1040
3040
48A0
84A0
8510
8510
4A08
33F8
ENDCHAR
STARTCHAR 11F3
ENCODING 4595
SWIDTH 960 0
DWIDTH 16 0
BBX 12 8 2 2
BITMAP
FD10
0110
4910
49F0
4910
4910
4910
FCE0
ENDCHAR
STARTCHAR 11F4
ENCODING 4596
SWIDTH 960 0
DWIDTH 16 0
BBX 10 12 3 0
BITMAP
FFC0
2100
2100
2100
FFC0
0000
1E00
2100
4080
4080
2100
1E00
ENDCHAR
STARTCHAR 11F5
ENCODING 4597
SWIDTH 960 0
DWIDTH 16 0
BBX 12 8 2 2
BITMAP
7900
0100
FD00
0100
7900
8500
8500
78F0
ENDCHAR
STARTCHAR 11F6
ENCODING 4598
SWIDTH 960 0
DWIDTH 16 0
BBX 13 8 2 2
BITMAP
79E0
0010
FC10
00E0
7900
8500
8500
78F8
ENDCHAR
STARTCHAR 11F7
ENCODING 4599
SWIDTH 960 0
DWIDTH 16 0
BBX 13 8 2 2
BITMAP
79F8
0108
FD08
0108
7908
8508
8508
78F0
ENDCHAR
STARTCHAR 11F8
ENCODING 4600
SWIDTH 960 0
DWIDTH 16 0
BBX 13 8 2 2
BITMAP
7908
0108
FD08
01F8
7908
8508
8508
78F0
ENDCHAR
STARTCHAR 11F9
ENCODING 4601
SWIDTH 960 0
DWIDTH 16 0
BBX 12 9 2 2
BITMAP
FFF0
0000
0000
0F00
1080
2040
2040
1080
0F00
ENDCHAR
STARTCHAR 1E80
ENCODING 7808
SWIDTH 840 0
DWIDTH 14 0
BBX 13 14 1 0
BITMAP
0600
0200
0100
8208
8208
4510
4510
4510
28A0
28A0
28A0
1040
1040
1040
ENDCHAR
STARTCHAR 1E81
ENCODING 7809
SWIDTH 720 0
DWIDTH 12 0
BBX 10 13 1 0
BITMAP
0C00
0400
0200
0000
8C40
8C40
8C40
5280
5280
5280
2100
2100
2100
ENDCHAR
STARTCHAR 1E82
ENCODING 7810
SWIDTH 900 0
DWIDTH 15 0
BBX 13 14 1 0
BITMAP
0600
0400
0800
8208
8208
4510
4510
4510
28A0
28A0
28A0
1040
1040
1040
ENDCHAR
STARTCHAR 1E83
ENCODING 7811
SWIDTH 720 0
DWIDTH 12 0
BBX 10 13 1 0
BITMAP
0C00
0800
1000
0000
8C40
8C40
8C40
5280
5280
5280
2100
2100
2100
ENDCHAR
STARTCHAR 1E84
ENCODING 7812
SWIDTH 900 0
DWIDTH 15 0
BBX 13 13 1 0
BITMAP
0900
0000
8208
8208
4510
4510
4510
28A0
28A0
28A0
1040
1040
1040
ENDCHAR
STARTCHAR 1E85
ENCODING 7813
SWIDTH 720 0
DWIDTH 12 0
BBX 10 11 1 0
BITMAP
1200
0000
8C40
8C40
8C40
5280
5280
5280
2100
2100
2100
ENDCHAR
STARTCHAR 1EF2
ENCODING 7922
SWIDTH 600 0
DWIDTH 10 0
BBX 9 14 1 0
BITMAP
1800
0800
0400
8080
8080
4100
2200
2200
1400
0800
0800
0800
0800
0800
ENDCHAR
STARTCHAR 1EF3
ENCODING 7923
SWIDTH 480 0
DWIDTH 8 0
BBX 6 15 1 -2
BITMAP
60
20
10
00
84
84
84
48
48
30
30
20
20
40
80
ENDCHAR
STARTCHAR 2013
ENCODING 8211
SWIDTH 480 0
DWIDTH 8 0
BBX 8 1 0 6
BITMAP
FF
ENDCHAR
STARTCHAR 2014
ENCODING 8212
SWIDTH 960 0
DWIDTH 16 0
BBX 16 1 0 6
BITMAP
FFFF
ENDCHAR
STARTCHAR 2015
ENCODING 8213
SWIDTH 660 0
DWIDTH 11 0
BBX 11 1 0 6
BITMAP
FFE0
ENDCHAR
STARTCHAR 2017
ENCODING 8215
SWIDTH 480 0
DWIDTH 8 0
BBX 8 3 0 -2
BITMAP
FF
00
FF
ENDCHAR
STARTCHAR 2018
ENCODING 8216
SWIDTH 240 0
DWIDTH 4 0
BBX 2 3 1 10
BITMAP
40
80
80
ENDCHAR
STARTCHAR 2019
ENCODING 8217
SWIDTH 240 0
DWIDTH 4 0
BBX 2 3 1 10
BITMAP
40
40
80
ENDCHAR
STARTCHAR 201A
ENCODING 8218
SWIDTH 240 0
DWIDTH 4 0
BBX 2 3 1 -1
BITMAP
40
40
80
ENDCHAR
STARTCHAR 201B
ENCODING 8219
SWIDTH 240 0
DWIDTH 4 0
BBX 2 3 1 10
BITMAP
80
80
40
ENDCHAR
STARTCHAR 201C
ENCODING 8220
SWIDTH 420 0
DWIDTH 7 0
BBX 5 3 1 10
BITMAP
48
90
90
ENDCHAR
STARTCHAR 201D
ENCODING 8221
SWIDTH 420 0
DWIDTH 7 0
BBX 5 3 1 10
BITMAP
48
48
90
ENDCHAR
STARTCHAR 201E
ENCODING 8222
SWIDTH 420 0
DWIDTH 7 0
BBX 5 3 1 -1
BITMAP
48
48
90
ENDCHAR
STARTCHAR 2020
ENCODING 8224
SWIDTH 540 0
DWIDTH 9 0
BBX 7 14 1 -1
BITMAP
10
10
10
10
FE
10
10
10
10
10
10
10
10
10
ENDCHAR
STARTCHAR 2021
ENCODING 8225
SWIDTH 540 0
DWIDTH 9 0
BBX 7 14 1 -1
BITMAP
10
10
10
FE
10
10
10
10
10
10
FE
10
10
10
ENDCHAR
STARTCHAR 2022
ENCODING 8226
SWIDTH 540 0
DWIDTH 9 0
BBX 5 5 2 4
BITMAP
70
F8
F8
F8
70
ENDCHAR
STARTCHAR 2025
ENCODING 8229
SWIDTH 960 0
DWIDTH 16 0
BBX 10 2 3 5
BITMAP
C0C0
C0C0
ENDCHAR
STARTCHAR 2026
ENCODING 8230
SWIDTH 960 0
DWIDTH 16 0
BBX 11 1 3 6
BITMAP
8420
ENDCHAR
STARTCHAR 2030
ENCODING 8240
SWIDTH 960 0
DWIDTH 16 0
BBX 14 11 1 0
BITMAP
6040
9080
9100
9200
9400
6B18
14A4
24A4
44A4
84A4
0318
ENDCHAR
STARTCHAR 2032
ENCODING 8242
SWIDTH 300 0
DWIDTH 5 0
BBX 3 3 1 9
BITMAP
60
40
80
ENDCHAR
STARTCHAR 2033
ENCODING 8243
SWIDTH 540 0
DWIDTH 9 0
BBX 6 3 2 9
BITMAP
6C
48
90
ENDCHAR
STARTCHAR 2039
ENCODING 8249
SWIDTH 360 0
DWIDTH 6 0
BBX 3 5 2 4
BITMAP
20
40
80
40
20
ENDCHAR
STARTCHAR 203A
ENCODING 8250
SWIDTH 360 0
DWIDTH 6 0
BBX 3 5 2 4
BITMAP
80
40
20
40
80
ENDCHAR
STARTCHAR 203B
ENCODING 8251
SWIDTH 960 0
DWIDTH 16 0
BBX 10 10 4 1
BITMAP
8C40
4C80
2100
1200
CCC0
CCC0
1200
2100
4C80
8C40
ENDCHAR
STARTCHAR 203C
ENCODING 8252
SWIDTH 600 0
DWIDTH 10 0
BBX 4 12 3 0
BITMAP
90
90
90
90
90
90
90
90
90
00
90
90
ENDCHAR
STARTCHAR 203E
ENCODING 8254
SWIDTH 480 0
DWIDTH 8 0
BBX 8 1 0 12
BITMAP
FF
ENDCHAR
STARTCHAR 2044
ENCODING 8260
SWIDTH 480 0
DWIDTH 8 0
BBX 6 12 1 0
BITMAP
04
04
08
08
10
10
20
20
40
40
80
80
ENDCHAR
STARTCHAR 2074
ENCODING 8308
SWIDTH 960 0
DWIDTH 16 0
BBX 5 7 1 -1
BITMAP
30
50
50
90
F8
10
10
ENDCHAR
STARTCHAR 207F
ENCODING 8319
SWIDTH 480 0
DWIDTH 8 0
BBX 5 6 2 5
BITMAP
B0
C8
88
88
88
88
ENDCHAR
STARTCHAR 2081
ENCODING 8321
SWIDTH 960 0
DWIDTH 16 0
BBX 2 7 2 5
BITMAP
40
C0
40
40
40
40
40
ENDCHAR
STARTCHAR 2082
ENCODING 8322
SWIDTH 960 0
DWIDTH 16 0
BBX 4 7 1 5
BITMAP
60
90
10
20
40
80
F0
ENDCHAR
STARTCHAR 2083
ENCODING 8323
SWIDTH 960 0
DWIDTH 16 0
BBX 4 7 1 5
BITMAP
60
90
10
60
10
90
60
ENDCHAR
STARTCHAR 2084
ENCODING 8324
SWIDTH 960 0
DWIDTH 16 0
BBX 5 7 1 5
BITMAP
30
50
50
90
F8
10
10
ENDCHAR
STARTCHAR 20A3
ENCODING 8355
SWIDTH 540 0
DWIDTH 9 0
BBX 9 11 0 0
BITMAP
1F80
2000
2000
FF00
2000
FF00
2000
2000
2000
2000
2000
ENDCHAR
STARTCHAR 20A4
ENCODING 8356
SWIDTH 540 0
DWIDTH 9 0
BBX 8 11 1 0
BITMAP
1C
22
42
40
FE
20
FE
10
71
99
66
ENDCHAR
STARTCHAR 20A7
ENCODING 8359
SWIDTH 600 0
DWIDTH 10 0
BBX 9 11 1 0
BITMAP
3E00
4100
4100
FF80
4100
4100
7E00
4000
4000
4000
4000
ENDCHAR
STARTCHAR 20A9
ENCODING 8361
SWIDTH 840 0
DWIDTH 14 0
BBX 13 12 1 0
BITMAP
4210
4210
4210
4510
FFF8
4510
28A0
28A0
28A0
1040
1040
1040
ENDCHAR
STARTCHAR 20AC
ENCODING 8364
SWIDTH 720 0
DWIDTH 12 0
BBX 10 11 1 0
BITMAP
1F00
2080
4040
4000
FF00
4000
FF00
4000
4040
2080
1F00
ENDCHAR
STARTCHAR 2103
ENCODING 8451
SWIDTH 960 0
DWIDTH 16 0
BBX 12 13 2 0
BITMAP
6000
9000
93C0
6420
0810
0800
1000
1000
1000
0800
0810
0420
03C0
ENDCHAR
STARTCHAR 2105
ENCODING 8453
SWIDTH 780 0
DWIDTH 13 0
BBX 11 11 1 0
BITMAP
7080
8880
8100
8A00
7200
0400
09C0
0A20
1220
2220
21C0
ENDCHAR
STARTCHAR 2109
ENCODING 8457
SWIDTH 960 0
DWIDTH 16 0
BBX 12 13 1 -1
BITMAP
4000
A7F0
A400
4400
0400
0400
07E0
0400
0400
0400
0400
0400
0400
ENDCHAR
STARTCHAR 2113
ENCODING 8467
SWIDTH 480 0
DWIDTH 8 0
BBX 6 12 1 0
BITMAP
08
14
14
24
24
48
48
50
60
40
C8
30
ENDCHAR
STARTCHAR 2116
ENCODING 8470
SWIDTH 960 0
DWIDTH 16 0
BBX 14 11 1 0
BITMAP
8200
C200
C200
A230
A248
9284
8A84
8A84
8648
8630
82FC
ENDCHAR
STARTCHAR 2121
ENCODING 8481
SWIDTH 960 0
DWIDTH 16 0
BBX 14 12 1 0
BITMAP
FE04
1004
1004
1004
11C4
1224
1224
1224
13E4
1204
1224
11C4
ENDCHAR
STARTCHAR 2122
ENCODING 8482
SWIDTH 960 0
DWIDTH 16 0
BBX 13 6 2 7
BITMAP
FB18
2318
22A8
22A8
2248
2248
ENDCHAR
STARTCHAR 2126
ENCODING 8486
SWIDTH 720 0
DWIDTH 12 0
BBX 9 11 2 0
BITMAP
3E00
4100
8080
8080
8080
8080
4100
2200
9480
9480
7700
ENDCHAR
STARTCHAR 212B
ENCODING 8491
SWIDTH 960 0
DWIDTH 16 0
BBX 10 14 3 0
BITMAP
0C00
1200
0C00
0000
0C00
0C00
1200
1200
2100
2100
7F80
4080
8040
8040
ENDCHAR
STARTCHAR 212E
ENCODING 8494
SWIDTH 660 0
DWIDTH 11 0
BBX 10 9 1 0
BITMAP
3F00
6180
C0C0
C0C0
FFC0
C000
C000
60C0
3F80
ENDCHAR
STARTCHAR 2153
ENCODING 8531
SWIDTH 960 0
DWIDTH 16 0
BBX 12 14 2 -1
BITMAP
2000
6010
2020
2040
2080
2100
2200
0460
0890
1010
2060
4010
8090
0060
ENDCHAR
STARTCHAR 2154
ENCODING 8532
SWIDTH 960 0
DWIDTH 16 0
BBX 12 14 2 -1
BITMAP
6000
9010
1020
2040
4080
8100
F200
0460
0890
1010
2060
4010
8090
0060
ENDCHAR
STARTCHAR 215B
ENCODING 8539
SWIDTH 540 0
DWIDTH 9 0
BBX 6 13 1 -2
BITMAP
10
30
10
10
10
10
FC
38
44
38
44
44
38
ENDCHAR
STARTCHAR 215C
ENCODING 8540
SWIDTH 480 0
DWIDTH 8 0
BBX 6 13 1 -2
BITMAP
30
48
10
08
48
30
FC
38
44
38
44
44
38
ENDCHAR
STARTCHAR 215D
ENCODING 8541
SWIDTH 540 0
DWIDTH 9 0
BBX 7 13 1 -2
BITMAP
3C
20
38
04
24
18
FE
38
44
38
44
44
38
ENDCHAR
STARTCHAR 215E
ENCODING 8542
SWIDTH 540 0
DWIDTH 9 0
BBX 6 13 1 -2
BITMAP
78
08
10
10
20
20
FC
38
44
38
44
44
38
ENDCHAR
STARTCHAR 2160
ENCODING 8544
SWIDTH 960 0
DWIDTH 16 0
BBX 1 12 8 0
BITMAP
80
80
80
80
80
80
80
80
80
80
80
80
ENDCHAR
STARTCHAR 2161
ENCODING 8545
SWIDTH 960 0
DWIDTH 16 0
BBX 7 12 5 0
BITMAP
82
82
82
82
82
82
82
82
82
82
82
82
ENDCHAR
STARTCHAR 2162
ENCODING 8546
SWIDTH 960 0
DWIDTH 16 0
BBX 9 12 4 0
BITMAP
8880
8880
8880
8880
8880
8880
8880
8880
8880
8880
8880
8880
ENDCHAR
STARTCHAR 2163
ENCODING 8547
SWIDTH 960 0
DWIDTH 16 0
BBX 10 12 4 0
BITMAP
9040
9040
9040
8880
8880
8880
8500
8500
8500
8200
8200
8200
ENDCHAR
STARTCHAR 2164
ENCODING 8548
SWIDTH 960 0
DWIDTH 16 0
BBX 7 12 5 0
BITMAP
82
82
82
44
44
44
28
28
28
10
10
10
ENDCHAR
STARTCHAR 2165
ENCODING 8549
SWIDTH 960 0
DWIDTH 16 0
BBX 10 12 3 0
BITMAP
8240
8240
8240
4440
4440
4440
2840
2840
2840
1040
1040
1040
ENDCHAR
STARTCHAR 2166
ENCODING 8550
SWIDTH 960 0
DWIDTH 16 0
BBX 11 12 2 0
BITMAP
8920
8920
8920
8920
5120
5120
5120
5120
2120
2120
2120
2120
ENDCHAR
STARTCHAR 2167
ENCODING 8551
SWIDTH 960 0
DWIDTH 16 0
BBX 13 12 2 0
BITMAP
8A48
8A48
8A48
8A48
5248
5248
5248
5248
2248
2248
2248
2248
ENDCHAR
STARTCHAR 2168
ENCODING 8552
SWIDTH 960 0
DWIDTH 16 0
BBX 11 12 3 0
BITMAP
9020
8840
8840
8480
8480
8300
8300
8480
8480
8840
8840
9020
ENDCHAR
STARTCHAR 2169
ENCODING 8553
SWIDTH 960 0
DWIDTH 16 0
BBX 8 12 4 0
BITMAP
81
42
42
24
24
18
18
24
24
42
42
81
ENDCHAR
STARTCHAR 2170
ENCODING 8560
SWIDTH 960 0
DWIDTH 16 0
BBX 1 12 8 0
BITMAP
80
80
00
00
80
80
80
80
80
80
80
80
ENDCHAR
STARTCHAR 2171
ENCODING 8561
SWIDTH 960 0
DWIDTH 16 0
BBX 6 12 5 0
BITMAP
84
84
00
00
84
84
84
84
84
84
84
84
ENDCHAR
STARTCHAR 2172
ENCODING 8562
SWIDTH 960 0
DWIDTH 16 0
BBX 9 12 4 0
BITMAP
8880
8880
0000
0000
8880
8880
8880
8880
8880
8880
8880
8880
ENDCHAR
STARTCHAR 2173
ENCODING 8563
SWIDTH 960 0
DWIDTH 16 0
BBX 10 12 4 0
BITMAP
8000
8000
0000
0000
9040
9040
8880
8880
8500
8500
8200
8200
ENDCHAR
STARTCHAR 2174
ENCODING 8564
SWIDTH 960 0
DWIDTH 16 0
BBX 7 8 5 4
BITMAP
82
82
44
44
28
28
10
10
ENDCHAR
STARTCHAR 2175
ENCODING 8565
SWIDTH 960 0
DWIDTH 16 0
BBX 10 12 3 0
BITMAP
0040
0040
0000
0000
8240
8240
4440
4440
2840
2840
1040
1040
ENDCHAR
STARTCHAR 2176
ENCODING 8566
SWIDTH 960 0
DWIDTH 16 0
BBX 11 12 3 0
BITMAP
0120
0120
0000
0000
8920
8920
5120
5120
5120
2120
2120
2120
ENDCHAR
STARTCHAR 2177
ENCODING 8567
SWIDTH 960 0
DWIDTH 16 0
BBX 13 12 2 0
BITMAP
0248
0248
0000
0000
8A48
8A48
5248
5248
5248
2248
2248
2248
ENDCHAR
STARTCHAR 2178
ENCODING 8568
SWIDTH 960 0
DWIDTH 16 0
BBX 10 12 3 0
BITMAP
8000
8000
0000
0000
9040
8880
8500
8200
8200
8500
8880
9040
ENDCHAR
STARTCHAR 2179
ENCODING 8569
SWIDTH 960 0
DWIDTH 16 0
BBX 7 8 4 4
BITMAP
82
44
28
10
10
28
44
82
ENDCHAR
STARTCHAR 2190
ENCODING 8592
SWIDTH 960 0
DWIDTH 16 0
BBX 14 7 1 3
BITMAP
1000
2000
4000
FFFC
4000
2000
1000
ENDCHAR
STARTCHAR 2191
ENCODING 8593
SWIDTH 720 0
DWIDTH 12 0
BBX 7 14 3 -1
BITMAP
10
38
54
92
10
10
10
10
10
10
10
10
10
10
ENDCHAR
STARTCHAR 2192
ENCODING 8594
SWIDTH 960 0
DWIDTH 16 0
BBX 14 7 1 3
BITMAP
0020
0010
0008
FFFC
0008
0010
0020
ENDCHAR
STARTCHAR 2193
ENCODING 8595
SWIDTH 720 0
DWIDTH 12 0
BBX 7 14 3 -1
BITMAP
10
10
10
10
10
10
10
10
10
10
92
54
38
10
ENDCHAR
STARTCHAR 2194
ENCODING 8596
SWIDTH 960 0
DWIDTH 16 0
BBX 14 7 1 3
BITMAP
1020
2010
4008
FFFC
4008
2010
1020
ENDCHAR
STARTCHAR 2195
ENCODING 8597
SWIDTH 720 0
DWIDTH 12 0
BBX 7 14 3 -1
BITMAP
10
38
54
92
10
10
10
10
10
10
92
54
38
10
ENDCHAR
STARTCHAR 2196
ENCODING 8598
SWIDTH 960 0
DWIDTH 16 0
BBX 11 11 3 0
BITMAP
F800
C000
A000
9000
8800
0400
0200
0100
0080
0040
0020
ENDCHAR
STARTCHAR 2197
ENCODING 8599
SWIDTH 960 0
DWIDTH 16 0
BBX 11 11 3 0
BITMAP
03E0
0060
00A0
0120
0220
0400
0800
1000
2000
4000
8000
ENDCHAR
STARTCHAR 2198
ENCODING 8600
SWIDTH 960 0
DWIDTH 16 0
BBX 11 11 3 0
BITMAP
8000
4000
2000
1000
0800
0400
0220
0120
00A0
0060
03E0
ENDCHAR
STARTCHAR 2199
ENCODING 8601
SWIDTH 960 0
DWIDTH 16 0
BBX 11 11 3 0
BITMAP
0020
0040
0080
0100
0200
0400
8800
9000
A000
C000
F800
ENDCHAR
STARTCHAR 21A8
ENCODING 8616
SWIDTH 720 0
DWIDTH 12 0
BBX 7 14 3 -1
BITMAP
10
38
54
92
10
10
10
10
10
92
54
38
10
FE
ENDCHAR
STARTCHAR 21D2
ENCODING 8658
SWIDTH 960 0
DWIDTH 16 0
BBX 13 13 2 -1
BITMAP
0200
0100
0080
FFC0
0020
0010
0008
0010
0020
FFC0
0080
0100
0200
ENDCHAR
STARTCHAR 21D4
ENCODING 8660
SWIDTH 960 0
DWIDTH 16 0
BBX 14 8 1 2
BITMAP
1020
2010
7FF8
8004
8004
7FF8
2010
1020
ENDCHAR
STARTCHAR 2200
ENCODING 8704
SWIDTH 960 0
DWIDTH 16 0
BBX 13 13 2 -1
BITMAP
8008
8008
4010
4010
3FE0
2020
1040
1040
0880
0880
0500
0500
0200
ENDCHAR
STARTCHAR 2202
ENCODING 8706
SWIDTH 540 0
DWIDTH 9 0
BBX 7 12 1 0
BITMAP
1C
26
02
02
02
3A
46
44
84
88
88
70
ENDCHAR
STARTCHAR 2203
ENCODING 8707
SWIDTH 960 0
DWIDTH 16 0
BBX 9 13 4 0
BITMAP
FF80
0080
0080
0080
0080
0080
FF80
0080
0080
0080
0080
0080
FF80
ENDCHAR
STARTCHAR 2206
ENCODING 8710
SWIDTH 540 0
DWIDTH 9 0
BBX 9 11 0 0
BITMAP
0800
0800
1400
1400
2200
2200
4100
4100
8080
8080
FF80
ENDCHAR
STARTCHAR 2207
ENCODING 8711
SWIDTH 960 0
DWIDTH 16 0
BBX 13 13 2 -1
BITMAP
FFF8
4010
4010
2020
2020
1040
1040
0880
0880
0500
0500
0200
0200
ENDCHAR
STARTCHAR 2208
ENCODING 8712
SWIDTH 960 0
DWIDTH 16 0
BBX 11 11 3 1
BITMAP
3FE0
4000
8000
8000
8000
FFE0
8000
8000
8000
4000
3FE0
ENDCHAR
STARTCHAR 220B
ENCODING 8715
SWIDTH 960 0
DWIDTH 16 0
BBX 11 11 3 1
BITMAP
FF80
0040
0020
0020
0020
FFE0
0020
0020
0020
0040
FF80
ENDCHAR
STARTCHAR 220F
ENCODING 8719
SWIDTH 660 0
DWIDTH 11 0
BBX 11 13 0 -2
BITMAP
FFE0
3180
3180
3180
3180
3180
3180
3180
3180
3180
3180
3180
3180
ENDCHAR
STARTCHAR 2211
ENCODING 8721
SWIDTH 780 0
DWIDTH 13 0
BBX 11 13 1 -2
BITMAP
FFE0
C000
6000
3000
1800
0C00
0400
0C00
1800
3000
6000
C000
FFE0
ENDCHAR
STARTCHAR 2212
ENCODING 8722
SWIDTH 840 0
DWIDTH 14 0
BBX 12 1 1 6
BITMAP
FFF0
ENDCHAR
STARTCHAR 2215
ENCODING 8725
SWIDTH 420 0
DWIDTH 7 0
BBX 7 14 0 -1
BITMAP
02
02
04
04
08
08
10
10
20
20
40
40
80
80
ENDCHAR
STARTCHAR 2219
ENCODING 8729
SWIDTH 240 0
DWIDTH 4 0
BBX 1 1 2 6
BITMAP
80
ENDCHAR
STARTCHAR 221A
ENCODING 8730
SWIDTH 480 0
DWIDTH 8 0
BBX 7 15 1 -2
BITMAP
02
02
02
02
04
04
44
44
A4
28
18
18
08
08
08
ENDCHAR
STARTCHAR 221D
ENCODING 8733
SWIDTH 960 0
DWIDTH 16 0
BBX 13 7 2 2
BITMAP
3838
4440
8280
8100
8280
4440
3838
ENDCHAR
STARTCHAR 221E
ENCODING 8734
SWIDTH 840 0
DWIDTH 14 0
BBX 13 6 1 3
BITMAP
38E0
4510
8208
8208
4510
38E0
ENDCHAR
STARTCHAR 221F
ENCODING 8735
SWIDTH 900 0
DWIDTH 15 0
BBX 13 11 1 0
BITMAP
8000
8000
8000
8000
8000
8000
8000
8000
8000
8000
FFF8
ENDCHAR
STARTCHAR 2220
ENCODING 8736
SWIDTH 960 0
DWIDTH 16 0
BBX 11 11 2 1
BITMAP
0020
0040
0080
0100
0200
0400
0800
1000
2000
4000
FFE0
ENDCHAR
STARTCHAR 2225
ENCODING 8741
SWIDTH 960 0
DWIDTH 16 0
BBX 4 11 6 1
BITMAP
90
90
90
90
90
90
90
90
90
90
90
ENDCHAR
STARTCHAR 2227
ENCODING 8743
SWIDTH 960 0
DWIDTH 16 0
BBX 11 12 3 0
BITMAP
0400
0400
0A00
0A00
1100
1100
2080
2080
4040
4040
8020
8020
ENDCHAR
STARTCHAR 2228
ENCODING 8744
SWIDTH 960 0
DWIDTH 16 0
BBX 11 12 3 0
BITMAP
8020
8020
4040
4040
2080
2080
1100
1100
0A00
0A00
0400
0400
ENDCHAR
STARTCHAR 2229
ENCODING 8745
SWIDTH 660 0
DWIDTH 11 0
BBX 9 11 1 0
BITMAP
3E00
4100
8080
8080
8080
8080
8080
8080
8080
8080
8080
ENDCHAR
STARTCHAR 222A
ENCODING 8746
SWIDTH 960 0
DWIDTH 16 0
BBX 10 12 3 0
BITMAP
8040
8040
8040
8040
8040
8040
8040
8040
8040
8040
4080
3F00
ENDCHAR
STARTCHAR 222B
ENCODING 8747
SWIDTH 360 0
DWIDTH 6 0
BBX 5 14 1 -1
BITMAP
18
20
20
20
20
20
20
20
20
20
20
20
20
C0
ENDCHAR
STARTCHAR 222C
ENCODING 8748
SWIDTH 960 0
DWIDTH 16 0
BBX 10 14 4 -1
BITMAP
0880
1540
1100
1100
1100
1100
1100
2200
2200
2200
2200
2200
AA00
4400
ENDCHAR
STARTCHAR 222E
ENCODING 8750
SWIDTH 960 0
DWIDTH 16 0
BBX 8 15 4 -1
BITMAP
06
09
09
08
08
1C
2A
2A
32
1C
10
10
90
90
60
ENDCHAR
STARTCHAR 2234
ENCODING 8756
SWIDTH 960 0
DWIDTH 16 0
BBX 10 8 3 2
BITMAP
0C00
0C00
0000
0000
0000
0000
C0C0
C0C0
ENDCHAR
STARTCHAR 2235
ENCODING 8757
SWIDTH 960 0
DWIDTH 16 0
BBX 10 8 3 2
BITMAP
C0C0
C0C0
0000
0000
0000
0000
0C00
0C00
ENDCHAR
STARTCHAR 223C
ENCODING 8764
SWIDTH 960 0
DWIDTH 16 0
BBX 12 3 2 5
BITMAP
7810
8410
83E0
ENDCHAR
STARTCHAR 223D
ENCODING 8765
SWIDTH 960 0
DWIDTH 16 0
BBX 15 7 1 2
BITMAP
3838
4044
8082
8102
8202
4404
3838
ENDCHAR
STARTCHAR 2248
ENCODING 8776
SWIDTH 840 0
DWIDTH 14 0
BBX 10 5 2 4
BITMAP
7840
8780
0000
7840
8780
ENDCHAR
STARTCHAR 2252
ENCODING 8786
SWIDTH 960 0
DWIDTH 16 0
BBX 11 12 3 0
BITMAP
6000
6000
0000
0000
FFE0
0000
0000
FFE0
0000
0000
00C0
00C0
ENDCHAR
STARTCHAR 2260
ENCODING 8800
SWIDTH 840 0
DWIDTH 14 0
BBX 11 10 1 1
BITMAP
0200
0200
0400
FFE0
0400
0800
FFE0
0800
1000
1000
ENDCHAR
STARTCHAR 2261
ENCODING 8801
SWIDTH 840 0
DWIDTH 14 0
BBX 12 5 1 4
BITMAP
FFF0
0000
FFF0
0000
FFF0
ENDCHAR
STARTCHAR 2264
ENCODING 8804
SWIDTH 840 0
DWIDTH 14 0
BBX 12 9 1 2
BITMAP
0070
0380
1C00
E000
1C00
0380
0070
0000
FFF0
ENDCHAR
STARTCHAR 2265
ENCODING 8805
SWIDTH 840 0
DWIDTH 14 0
BBX 12 9 1 2
BITMAP
E000
1C00
0380
0070
0380
1C00
E000
0000
FFF0
ENDCHAR
STARTCHAR 226A
ENCODING 8810
SWIDTH 960 0
DWIDTH 16 0
BBX 15 11 1 1
BITMAP
0030
00C6
0318
0C60
3180
C600
3180
0C60
0318
00C6
0030
ENDCHAR
STARTCHAR 226B
ENCODING 8811
SWIDTH 960 0
DWIDTH 16 0
BBX 15 11 1 1
BITMAP
1800
C600
3180
0C60
0318
00C6
0318
0C60
3180
C600
1800
ENDCHAR
STARTCHAR 2282
ENCODING 8834
SWIDTH 960 0
DWIDTH 16 0
BBX 11 10 3 1
BITMAP
3FE0
4000
8000
8000
8000
8000
8000
8000
4000
3FE0
ENDCHAR
STARTCHAR 2283
ENCODING 8835
SWIDTH 960 0
DWIDTH 16 0
BBX 11 10 3 1
BITMAP
FF80
0040
0020
0020
0020
0020
0020
0020
0040
FF80
ENDCHAR
STARTCHAR 2286
ENCODING 8838
SWIDTH 960 0
DWIDTH 16 0
BBX 11 11 3 1
BITMAP
3FE0
4000
8000
8000
8000
8000
4000
3FE0
0000
0000
FFE0
ENDCHAR
STARTCHAR 2287
ENCODING 8839
SWIDTH 960 0
DWIDTH 16 0
BBX 11 11 3 1
BITMAP
FF80
0040
0020
0020
0020
0020
0040
FF80
0000
0000
FFE0
ENDCHAR
STARTCHAR 2299
ENCODING 8857
SWIDTH 960 0
DWIDTH 16 0
BBX 14 14 1 -1
BITMAP
0780
1860
2010
4008
4008
8304
8784
8784
8304
4008
4008
2010
1860
0780
ENDCHAR
STARTCHAR 22A5
ENCODING 8869
SWIDTH 960 0
DWIDTH 16 0
BBX 11 11 3 1
BITMAP
0400
0400
0400
0400
0400
0400
0400
0400
0400
0400
FFE0
ENDCHAR
STARTCHAR 2302
ENCODING 8962
SWIDTH 540 0
DWIDTH 9 0
BBX 7 9 1 2
BITMAP
10
28
44
82
82
82
82
82
FE
ENDCHAR
STARTCHAR 2310
ENCODING 8976
SWIDTH 660 0
DWIDTH 11 0
BBX 10 5 1 4
BITMAP
FFC0
8000
8000
8000
8000
ENDCHAR
STARTCHAR 2312
ENCODING 8978
SWIDTH 960 0
DWIDTH 16 0
BBX 8 3 4 10
BITMAP
3C
42
81
ENDCHAR
STARTCHAR 2320
ENCODING 8992
SWIDTH 540 0
DWIDTH 9 0
BBX 3 16 4 -2
BITMAP
60
80
80
80
80
80
80
80
80
80
80
80
80
80
80
80
ENDCHAR
STARTCHAR 2321
ENCODING 8993
SWIDTH 540 0
DWIDTH 9 0
BBX 3 16 2 -2
BITMAP
20
20
20
20
20
20
20
20
20
20
20
20
20
20
20
C0
ENDCHAR
STARTCHAR 2460
ENCODING 9312
SWIDTH 960 0
DWIDTH 16 0
BBX 15 15 1 -2
BITMAP
07C0
1830
2008
4104
4304
8102
8102
8102
8102
8102
4104
4104
2008
1830
07C0
ENDCHAR
STARTCHAR 2461
ENCODING 9313
SWIDTH 960 0
DWIDTH 16 0
BBX 15 15 1 -2
BITMAP
07C0
1830
2008
4384
4444
8442
8042
8082
8102
8202
4404
47C4
2008
1830
07C0
ENDCHAR
STARTCHAR 2462
ENCODING 9314
SWIDTH 960 0
DWIDTH 16 0
BBX 15 15 1 -2
BITMAP
07C0
1830
2008
4384
4444
8042
8042
8382
8042
8042
4444
4384
2008
1830
07C0
ENDCHAR
STARTCHAR 2463
ENCODING 9315
SWIDTH 960 0
DWIDTH 16 0
BBX 15 15 1 -2
BITMAP
07C0
1830
2008
4184
4284
8282
8482
8482
8882
8FC2
4084
4084
2008
1830
07C0
ENDCHAR
STARTCHAR 2464
ENCODING 9316
SWIDTH 960 0
DWIDTH 16 0
BBX 15 15 1 -2
BITMAP
07C0
1830
2008
47C4
4404
8402
8782
8442
8042
8042
4444
4384
2008
1830
07C0
ENDCHAR
STARTCHAR 2465
ENCODING 9317
SWIDTH 960 0
DWIDTH 16 0
BBX 15 15 1 -2
BITMAP
07C0
1830
2008
4384
4444
8402
8402
8782
8442
8442
4444
4384
2008
1830
07C0
ENDCHAR
STARTCHAR 2466
ENCODING 9318
SWIDTH 960 0
DWIDTH 16 0
BBX 15 15 1 -2
BITMAP
07C0
1830
2008
47C4
4044
8082
8082
8082
8102
8102
4104
4104
2008
1830
07C0
ENDCHAR
STARTCHAR 2467
ENCODING 9319
SWIDTH 960 0
DWIDTH 16 0
BBX 15 15 1 -2
BITMAP
07C0
1830
2008
4384
4444
8442
8442
8382
8442
8442
4444
4384
2008
1830
07C0
ENDCHAR
STARTCHAR 2468
ENCODING 9320
SWIDTH 960 0
DWIDTH 16 0
BBX 15 15 1 -2
BITMAP
07C0
1830
2008
4384
4444
8442
8442
83C2
8042
8042
4444
4384
2008
1830
07C0
ENDCHAR
STARTCHAR 2469
ENCODING 9321
SWIDTH 960 0
DWIDTH 16 0
BBX 15 15 1 -2
BITMAP
07C0
1830
2008
48C4
5924
8922
8922
8922
8922
8922
4924
48C4
2008
1830
07C0
ENDCHAR
STARTCHAR 246A
ENCODING 9322
SWIDTH 960 0
DWIDTH 16 0
BBX 15 15 1 -2
BITMAP
07C0
1830
2008
4424
4C64
8422
8422
8422
8422
8422
4424
4424
2008
1830
07C0
ENDCHAR
STARTCHAR 246B
ENCODING 9323
SWIDTH 960 0
DWIDTH 16 0
BBX 15 15 1 -2
BITMAP
07C0
1830
2008
48C4
5924
8922
8822
8842
8882
8902
4904
49E4
2008
1830
07C0
ENDCHAR
STARTCHAR 246C
ENCODING 9324
SWIDTH 960 0
DWIDTH 16 0
BBX 15 15 1 -2
BITMAP
07C0
1830
2008
48C4
5924
8822
8822
88C2
8822
8822
4924
48C4
2008
1830
07C0
ENDCHAR
STARTCHAR 246D
ENCODING 9325
SWIDTH 960 0
DWIDTH 16 0
BBX 15 15 1 -2
BITMAP
07C0
1830
2008
4864
5864
88A2
88A2
8922
8922
89F2
4824
4824
2008
1830
07C0
ENDCHAR
STARTCHAR 246E
ENCODING 9326
SWIDTH 960 0
DWIDTH 16 0
BBX 15 15 1 -2
BITMAP
07C0
1830
2008
49E4
5904
8902
89C2
8922
8822
8822
4924
48C4
2008
1830
07C0
ENDCHAR
STARTCHAR 2474
ENCODING 9332
SWIDTH 960 0
DWIDTH 16 0
BBX 15 13 1 -1
BITMAP
1010
2008
4104
4304
8102
8102
8102
8102
8102
4104
4104
2008
1010
ENDCHAR
STARTCHAR 2475
ENCODING 9333
SWIDTH 960 0
DWIDTH 16 0
BBX 15 13 1 -1
BITMAP
1010
2008
4384
4444
8442
8042
8082
8102
8202
4404
47C4
2008
1010
ENDCHAR
STARTCHAR 2476
ENCODING 9334
SWIDTH 960 0
DWIDTH 16 0
BBX 15 13 1 -1
BITMAP
1010
2008
4384
4444
8042
8042
8382
8042
8042
4444
4384
2008
1010
ENDCHAR
STARTCHAR 2477
ENCODING 9335
SWIDTH 960 0
DWIDTH 16 0
BBX 15 13 1 -1
BITMAP
1010
2008
4184
4284
8282
8482
8482
8882
8FC2
4084
4084
2008
1010
ENDCHAR
STARTCHAR 2478
ENCODING 9336
SWIDTH 960 0
DWIDTH 16 0
BBX 15 13 1 -1
BITMAP
1010
2008
47C4
4404
8402
8782
8442
8042
8042
4444
4384
2008
1010
ENDCHAR
STARTCHAR 2479
ENCODING 9337
SWIDTH 960 0
DWIDTH 16 0
BBX 15 13 1 -1
BITMAP
1010
2008
4384
4444
8402
8402
8782
8442
8442
4444
4384
2008
1010
ENDCHAR
STARTCHAR 247A
ENCODING 9338
SWIDTH 960 0
DWIDTH 16 0
BBX 15 13 1 -1
BITMAP
1010
2008
47C4
4044
8082
8082
8082
8102
8102
4104
4104
2008
1010
ENDCHAR
STARTCHAR 247B
ENCODING 9339
SWIDTH 960 0
DWIDTH 16 0
BBX 15 13 1 -1
BITMAP
1010
2008
4384
4444
8442
8442
8382
8442
8442
4444
4384
2008
1010
ENDCHAR
STARTCHAR 247C
ENCODING 9340
SWIDTH 960 0
DWIDTH 16 0
BBX 15 13 1 -1
BITMAP
1010
2008
4384
4444
8442
8442
83C2
8042
8042
4444
4384
2008
1010
ENDCHAR
STARTCHAR 247D
ENCODING 9341
SWIDTH 960 0
DWIDTH 16 0
BBX 15 13 1 -1
BITMAP
1010
2008
48C4
5924
8922
8922
8922
8922
8922
4924
48C4
2008
1010
ENDCHAR
STARTCHAR 247E
ENCODING 9342
SWIDTH 960 0
DWIDTH 16 0
BBX 15 13 1 -1
BITMAP
1010
2008
4424
4C64
8422
8422
8422
8422
8422
4424
4424
2008
1010
ENDCHAR
STARTCHAR 247F
ENCODING 9343
SWIDTH 960 0
DWIDTH 16 0
BBX 15 13 1 -1
BITMAP
1010
2008
48C4
5924
8922
8822
8842
8882
8902
4904
49E4
2008
1010
ENDCHAR
STARTCHAR 2480
ENCODING 9344
SWIDTH 960 0
DWIDTH 16 0
BBX 15 13 1 -1
BITMAP
1010
2008
48C4
5924
8822
8822
88C2
8822
8822
4924
48C4
2008
1010
ENDCHAR
STARTCHAR 2481
ENCODING 9345
SWIDTH 960 0
DWIDTH 16 0
BBX 15 13 1 -1
BITMAP
1010
2008
4864
5864
88A2
88A2
8922
8922
89F2
4824
4824
2008
1010
ENDCHAR
STARTCHAR 2482
ENCODING 9346
SWIDTH 960 0
DWIDTH 16 0
BBX 15 13 1 -1
BITMAP
1010
2008
49E4
5904
8902
89C2
8922
8822
8822
4924
48C4
2008
1010
ENDCHAR
STARTCHAR 249C
ENCODING 9372
SWIDTH 960 0
DWIDTH 16 0
BBX 15 13 1 -1
BITMAP
1010
2008
4004
4384
8442
8042
83C2
8442
8442
43A4
4004
2008
1010
ENDCHAR
STARTCHAR 249D
ENCODING 9373
SWIDTH 960 0
DWIDTH 16 0
BBX 15 13 1 -1
BITMAP
1010
2408
4404
4404
8782
8442
8442
8442
8442
4784
4004
2008
1010
ENDCHAR
STARTCHAR 249E
ENCODING 9374
SWIDTH 960 0
DWIDTH 16 0
BBX 15 13 1 -1
BITMAP
1010
2008
4004
4384
8442
8402
8402
8402
8442
4384
4004
2008
1010
ENDCHAR
STARTCHAR 249F
ENCODING 9375
SWIDTH 960 0
DWIDTH 16 0
BBX 15 13 1 -1
BITMAP
1010
2048
4044
4044
83C2
8442
8442
8442
8442
43C4
4004
2008
1010
ENDCHAR
STARTCHAR 24A0
ENCODING 9376
SWIDTH 960 0
DWIDTH 16 0
BBX 15 13 1 -1
BITMAP
1010
2008
4004
4384
8442
8442
87C2
8402
8442
4384
4004
2008
1010
ENDCHAR
STARTCHAR 24A1
ENCODING 9377
SWIDTH 960 0
DWIDTH 16 0
BBX 15 13 1 -1
BITMAP
1010
2008
4184
4204
8202
8782
8202
8202
8202
4204
4204
2008
1010
ENDCHAR
STARTCHAR 24A2
ENCODING 9378
SWIDTH 960 0
DWIDTH 16 0
BBX 15 13 1 -1
BITMAP
1010
2008
4004
43C4
8442
8442
8442
83C2
8042
4444
4384
2008
1010
ENDCHAR
STARTCHAR 24A3
ENCODING 9379
SWIDTH 960 0
DWIDTH 16 0
BBX 15 13 1 -1
BITMAP
1010
2008
4404
4404
8782
8442
8442
8442
8442
4444
4004
2008
1010
ENDCHAR
STARTCHAR 24A4
ENCODING 9380
SWIDTH 960 0
DWIDTH 16 0
BBX 15 13 1 -1
BITMAP
1010
2008
4104
4104
8002
8102
8102
8102
8102
4104
4004
2008
1010
ENDCHAR
STARTCHAR 24A5
ENCODING 9381
SWIDTH 960 0
DWIDTH 16 0
BBX 15 13 1 -1
BITMAP
1010
2008
4104
4104
8002
8102
8102
8102
8102
4104
4604
2008
1010
ENDCHAR
STARTCHAR 24A6
ENCODING 9382
SWIDTH 960 0
DWIDTH 16 0
BBX 15 13 1 -1
BITMAP
1010
2008
4404
4404
8442
8482
8502
8702
8482
4444
4004
2008
1010
ENDCHAR
STARTCHAR 24A7
ENCODING 9383
SWIDTH 960 0
DWIDTH 16 0
BBX 15 13 1 -1
BITMAP
1010
2008
4104
4104
8102
8102
8102
8102
8102
4104
4004
2008
1010
ENDCHAR
STARTCHAR 24A8
ENCODING 9384
SWIDTH 960 0
DWIDTH 16 0
BBX 15 13 1 -1
BITMAP
1010
2008
4004
4004
8EC2
8922
8922
8922
8922
4924
4004
2008
1010
ENDCHAR
STARTCHAR 24A9
ENCODING 9385
SWIDTH 960 0
DWIDTH 16 0
BBX 15 13 1 -1
BITMAP
1010
2008
4004
4004
8782
8442
8442
8442
8442
4444
4004
2008
1010
ENDCHAR
STARTCHAR 24AA
ENCODING 9386
SWIDTH 960 0
DWIDTH 16 0
BBX 15 13 1 -1
BITMAP
1010
2008
4004
4384
8442
8442
8442
8442
8442
4384
4004
2008
1010
ENDCHAR
STARTCHAR 24AB
ENCODING 9387
SWIDTH 960 0
DWIDTH 16 0
BBX 15 13 1 -1
BITMAP
1010
2008
4004
4784
8442
8442
8442
8442
8782
4404
4404
2008
1010
ENDCHAR
STARTCHAR 24AC
ENCODING 9388
SWIDTH 960 0
DWIDTH 16 0
BBX 15 13 1 -1
BITMAP
1010
2008
4004
43C4
8442
8442
8442
8442
83C2
4044
4044
2008
1010
ENDCHAR
STARTCHAR 24AD
ENCODING 9389
SWIDTH 960 0
DWIDTH 16 0
BBX 15 13 1 -1
BITMAP
1010
2008
4004
4004
82C2
8302
8202
8202
8202
4204
4004
2008
1010
ENDCHAR
STARTCHAR 24AE
ENCODING 9390
SWIDTH 960 0
DWIDTH 16 0
BBX 15 13 1 -1
BITMAP
1010
2008
4004
4384
8442
8402
8382
8042
8442
4384
4004
2008
1010
ENDCHAR
STARTCHAR 24AF
ENCODING 9391
SWIDTH 960 0
DWIDTH 16 0
BBX 15 13 1 -1
BITMAP
1010
2008
4104
4104
87C2
8102
8102
8102
8102
40C4
4004
2008
1010
ENDCHAR
STARTCHAR 24B0
ENCODING 9392
SWIDTH 960 0
DWIDTH 16 0
BBX 15 13 1 -1
BITMAP
1010
2008
4004
4004
8442
8442
8442
8442
8442
43C4
4004
2008
1010
ENDCHAR
STARTCHAR 24B1
ENCODING 9393
SWIDTH 960 0
DWIDTH 16 0
BBX 15 13 1 -1
BITMAP
1010
2008
4004
4004
8442
8442
8282
8282
8102
4104
4004
2008
1010
ENDCHAR
STARTCHAR 24B2
ENCODING 9394
SWIDTH 960 0
DWIDTH 16 0
BBX 15 13 1 -1
BITMAP
1010
2008
4004
4004
8922
8922
8AA2
86C2
8442
4444
4004
2008
1010
ENDCHAR
STARTCHAR 24B3
ENCODING 9395
SWIDTH 960 0
DWIDTH 16 0
BBX 15 13 1 -1
BITMAP
1010
2008
4004
4004
8442
8282
8102
8102
8282
4444
4004
2008
1010
ENDCHAR
STARTCHAR 24B4
ENCODING 9396
SWIDTH 960 0
DWIDTH 16 0
BBX 15 13 1 -1
BITMAP
1010
2008
4004
4004
8442
8442
8282
8282
8102
4204
4C04
2008
1010
ENDCHAR
STARTCHAR 24B5
ENCODING 9397
SWIDTH 960 0
DWIDTH 16 0
BBX 15 13 1 -1
BITMAP
1010
2008
4004
4004
87C2
8082
8102
8202
8402
47C4
4004
2008
1010
ENDCHAR
STARTCHAR 24D0
ENCODING 9424
SWIDTH 960 0
DWIDTH 16 0
BBX 15 15 1 -2
BITMAP
07C0
1830
2008
4004
4384
8442
8042
83C2
8442
8442
43A4
4004
2008
1830
07C0
ENDCHAR
STARTCHAR 24D1
ENCODING 9425
SWIDTH 960 0
DWIDTH 16 0
BBX 15 15 1 -2
BITMAP
07C0
1830
2408
4404
4404
8782
8442
8442
8442
8442
4784
4004
2008
1830
07C0
ENDCHAR
STARTCHAR 24D2
ENCODING 9426
SWIDTH 960 0
DWIDTH 16 0
BBX 15 15 1 -2
BITMAP
07C0
1830
2008
4004
4384
8442
8402
8402
8402
8442
4384
4004
2008
1830
07C0
ENDCHAR
STARTCHAR 24D3
ENCODING 9427
SWIDTH 960 0
DWIDTH 16 0
BBX 15 15 1 -2
BITMAP
07C0
1830
2048
4044
4044
83C2
8442
8442
8442
8442
43C4
4004
2008
1830
07C0
ENDCHAR
STARTCHAR 24D4
ENCODING 9428
SWIDTH 960 0
DWIDTH 16 0
BBX 15 15 1 -2
BITMAP
07C0
1830
2008
4004
4384
8442
8442
87C2
8402
8442
4384
4004
2008
1830
07C0
ENDCHAR
STARTCHAR 24D5
ENCODING 9429
SWIDTH 960 0
DWIDTH 16 0
BBX 15 15 1 -2
BITMAP
07C0
1830
2008
4184
4204
8202
8782
8202
8202
8202
4204
4204
2008
1830
07C0
ENDCHAR
STARTCHAR 24D6
ENCODING 9430
SWIDTH 960 0
DWIDTH 16 0
BBX 15 15 1 -2
BITMAP
07C0
1830
2008
4004
43C4
8442
8442
8442
83C2
8042
4444
4384
2008
1830
07C0
ENDCHAR
STARTCHAR 24D7
ENCODING 9431
SWIDTH 960 0
DWIDTH 16 0
BBX 15 15 1 -2
BITMAP
07C0
1830
2008
4404
4404
8782
8442
8442
8442
8442
4444
4004
2008
1830
07C0
ENDCHAR
STARTCHAR 24D8
ENCODING 9432
SWIDTH 960 0
DWIDTH 16 0
BBX 15 15 1 -2
BITMAP
07C0
1830
2008
4104
4104
8002
8102
8102
8102
8102
4104
4004
2008
1830
07C0
ENDCHAR
STARTCHAR 24D9
ENCODING 9433
SWIDTH 960 0
DWIDTH 16 0
BBX 15 15 1 -2
BITMAP
07C0
1830
2008
4104
4104
8002
8102
8102
8102
8102
4104
4604
2008
1830
07C0
ENDCHAR
STARTCHAR 24DA
ENCODING 9434
SWIDTH 960 0
DWIDTH 16 0
BBX 15 15 1 -2
BITMAP
07C0
1830
2008
4404
4404
8442
8482
8502
8702
8482
4444
4004
2008
1830
07C0
ENDCHAR
STARTCHAR 24DB
ENCODING 9435
SWIDTH 960 0
DWIDTH 16 0
BBX 15 15 1 -2
BITMAP
07C0
1830
2008
4104
4104
8102
8102
8102
8102
8102
4104
4004
2008
1830
07C0
ENDCHAR
STARTCHAR 24DC
ENCODING 9436
SWIDTH 960 0
DWIDTH 16 0
BBX 15 15 1 -2
BITMAP
07C0
1830
2008
4004
4004
8EC2
8922
8922
8922
8922
4924
4004
2008
1830
07C0
ENDCHAR
STARTCHAR 24DD
ENCODING 9437
SWIDTH 960 0
DWIDTH 16 0
BBX 15 15 1 -2
BITMAP
07C0
1830
2008
4004
4004
8782
8442
8442
8442
8442
4444
4004
2008
1830
07C0
ENDCHAR
STARTCHAR 24DE
ENCODING 9438
SWIDTH 960 0
DWIDTH 16 0
BBX 15 15 1 -2
BITMAP
07C0
1830
2008
4004
4384
8442
8442
8442
8442
8442
4384
4004
2008
1830
07C0
ENDCHAR
STARTCHAR 24DF
ENCODING 9439
SWIDTH 960 0
DWIDTH 16 0
BBX 15 15 1 -2
BITMAP
07C0
1830
2008
4004
4784
8442
8442
8442
8442
8782
4404
4404
2008
1830
07C0
ENDCHAR
STARTCHAR 24E0
ENCODING 9440
SWIDTH 960 0
DWIDTH 16 0
BBX 15 15 1 -2
BITMAP
07C0
1830
2008
4004
43C4
8442
8442
8442
8442
83C2
4044
4044
2008
1830
07C0
ENDCHAR
STARTCHAR 24E1
ENCODING 9441
SWIDTH 960 0
DWIDTH 16 0
BBX 15 15 1 -2
BITMAP
07C0
1830
2008
4004
4004
82C2
8302
8202
8202
8202
4204
4004
2008
1830
07C0
ENDCHAR
STARTCHAR 24E2
ENCODING 9442
SWIDTH 960 0
DWIDTH 16 0
BBX 15 15 1 -2
BITMAP
07C0
1830
2008
4004
4384
8442
8402
8382
8042
8442
4384
4004
2008
1830
07C0
ENDCHAR
STARTCHAR 24E3
ENCODING 9443
SWIDTH 960 0
DWIDTH 16 0
BBX 15 15 1 -2
BITMAP
07C0
1830
2008
4104
4104
87C2
8102
8102
8102
8102
40C4
4004
2008
1830
07C0
ENDCHAR
STARTCHAR 24E4
ENCODING 9444
SWIDTH 960 0
DWIDTH 16 0
BBX 15 15 1 -2
BITMAP
07C0
1830
2008
4004
4004
8442
8442
8442
8442
8442
43C4
4004
2008
1830
07C0
ENDCHAR
STARTCHAR 24E5
ENCODING 9445
SWIDTH 960 0
DWIDTH 16 0
BBX 15 15 1 -2
BITMAP
07C0
1830
2008
4004
4004
8442
8442
8282
8282
8102
4104
4004
2008
1830
07C0
ENDCHAR
STARTCHAR 24E6
ENCODING 9446
SWIDTH 960 0
DWIDTH 16 0
BBX 15 15 1 -2
BITMAP
07C0
1830
2008
4004
4004
8922
8922
8AA2
86C2
8442
4444
4004
2008
1830
07C0
ENDCHAR
STARTCHAR 24E7
ENCODING 9447
SWIDTH 960 0
DWIDTH 16 0
BBX 15 15 1 -2
BITMAP
07C0
1830
2008
4004
4004
8442
8282
8102
8102
8282
4444
4004
2008
1830
07C0
ENDCHAR
STARTCHAR 24E8
ENCODING 9448
SWIDTH 960 0
DWIDTH 16 0
BBX 15 15 1 -2
BITMAP
07C0
1830
2008
4004
4004
8442
8442
8282
8282
8102
4204
4C04
2008
1830
07C0
ENDCHAR
STARTCHAR 24E9
ENCODING 9449
SWIDTH 960 0
DWIDTH 16 0
BBX 15 15 1 -2
BITMAP
07C0
1830
2008
4004
4004
87C2
8082
8102
8202
8402
47C4
4004
2008
1830
07C0
ENDCHAR
STARTCHAR 2500
ENCODING 9472
SWIDTH 960 0
DWIDTH 16 0
BBX 16 1 0 6
BITMAP
FFFF
ENDCHAR
STARTCHAR 2501
ENCODING 9473
SWIDTH 960 0
DWIDTH 16 0
BBX 16 2 0 5
BITMAP
FFFF
FFFF
ENDCHAR
STARTCHAR 2502
ENCODING 9474
SWIDTH 960 0
DWIDTH 16 0
BBX 1 16 8 -2
BITMAP
80
80
80
80
80
80
80
80
80
80
80
80
80
80
80
80
ENDCHAR
STARTCHAR 2503
ENCODING 9475
SWIDTH 960 0
DWIDTH 16 0
BBX 2 16 7 -2
BITMAP
C0
C0
C0
C0
C0
C0
C0
C0
C0
C0
C0
C0
C0
C0
C0
C0
ENDCHAR
STARTCHAR 250C
ENCODING 9484
SWIDTH 960 0
DWIDTH 16 0
BBX 8 9 8 -2
BITMAP
FF
80
80
80
80
80
80
80
80
ENDCHAR
STARTCHAR 250D
ENCODING 9485
SWIDTH 960 0
DWIDTH 16 0
BBX 8 9 8 5
BITMAP
FF
FF
80
80
80
80
80
80
80
ENDCHAR
STARTCHAR 250E
ENCODING 9486
SWIDTH 960 0
DWIDTH 16 0
BBX 9 9 7 5
BITMAP
FF80
C000
C000
C000
C000
C000
C000
C000
C000
ENDCHAR
STARTCHAR 250F
ENCODING 9487
SWIDTH 960 0
DWIDTH 16 0
BBX 9 9 7 5
BITMAP
FF80
FF80
C000
C000
C000
C000
C000
C000
C000
ENDCHAR
STARTCHAR 2510
ENCODING 9488
SWIDTH 960 0
DWIDTH 16 0
BBX 9 9 0 -2
BITMAP
FF80
0080
0080
0080
0080
0080
0080
0080
0080
ENDCHAR
STARTCHAR 2511
ENCODING 9489
SWIDTH 960 0
DWIDTH 16 0
BBX 9 9 0 5
BITMAP
FF80
FF80
0080
0080
0080
0080
0080
0080
0080
ENDCHAR
STARTCHAR 2512
ENCODING 9490
SWIDTH 960 0
DWIDTH 16 0
BBX 9 9 0 5
BITMAP
FF80
0180
0180
0180
0180
0180
0180
0180
0180
ENDCHAR
STARTCHAR 2513
ENCODING 9491
SWIDTH 960 0
DWIDTH 16 0
BBX 9 9 0 5
BITMAP
FF80
FF80
0180
0180
0180
0180
0180
0180
0180
ENDCHAR
STARTCHAR 2514
ENCODING 9492
SWIDTH 960 0
DWIDTH 16 0
BBX 8 8 8 6
BITMAP
80
80
80
80
80
80
80
FF
ENDCHAR
STARTCHAR 2515
ENCODING 9493
SWIDTH 960 0
DWIDTH 16 0
BBX 8 9 8 -2
BITMAP
80
80
80
80
80
80
80
FF
FF
ENDCHAR
STARTCHAR 2516
ENCODING 9494
SWIDTH 960 0
DWIDTH 16 0
BBX 9 8 7 -2
BITMAP
C000
C000
C000
C000
C000
C000
C000
FF80
ENDCHAR
STARTCHAR 2517
ENCODING 9495
SWIDTH 960 0
DWIDTH 16 0
BBX 9 9 7 -2
BITMAP
C000
C000
C000
C000
C000
C000
C000
FF80
FF80
ENDCHAR
STARTCHAR 2518
ENCODING 9496
SWIDTH 960 0
DWIDTH 16 0
BBX 9 8 0 6
BITMAP
0080
0080
0080
0080
0080
0080
0080
FF80
ENDCHAR
STARTCHAR 2519
ENCODING 9497
SWIDTH 960 0
DWIDTH 16 0
BBX 9 9 0 -2
BITMAP
0080
0080
0080
0080
0080
0080
0080
FF80
FF80
ENDCHAR
STARTCHAR 251A
ENCODING 9498
SWIDTH 960 0
DWIDTH 16 0
BBX 9 8 0 -2
BITMAP
0180
0180
0180
0180
0180
0180
0180
FF80
ENDCHAR
STARTCHAR 251B
ENCODING 9499
SWIDTH 960 0
DWIDTH 16 0
BBX 9 9 0 -2
BITMAP
0180
0180
0180
0180
0180
0180
0180
FF80
FF80
ENDCHAR
STARTCHAR 251C
ENCODING 9500
SWIDTH 960 0
DWIDTH 16 0
BBX 8 16 8 -2
BITMAP
80
80
80
80
80
80
80
FF
80
80
80
80
80
80
80
80
ENDCHAR
STARTCHAR 251D
ENCODING 9501
SWIDTH 960 0
DWIDTH 16 0
BBX 8 16 8 -2
BITMAP
80
80
80
80
80
80
80
FF
FF
80
80
80
80
80
80
80
ENDCHAR
STARTCHAR 251E
ENCODING 9502
SWIDTH 960 0
DWIDTH 16 0
BBX 9 16 7 -2
BITMAP
C000
C000
C000
C000
C000
C000
C000
FF80
4000
4000
4000
4000
4000
4000
4000
4000
ENDCHAR
STARTCHAR 251F
ENCODING 9503
SWIDTH 960 0
DWIDTH 16 0
BBX 9 16 7 -2
BITMAP
4000
4000
4000
4000
4000
4000
4000
FF80
C000
C000
C000
C000
C000
C000
C000
C000
ENDCHAR
STARTCHAR 2520
ENCODING 9504
SWIDTH 960 0
DWIDTH 16 0
BBX 9 16 7 -2
BITMAP
C000
C000
C000
C000
C000
C000
C000
FF80
C000
C000
C000
C000
C000
C000
C000
C000
ENDCHAR
STARTCHAR 2521
ENCODING 9505
SWIDTH 960 0
DWIDTH 16 0
BBX 9 16 7 -2
BITMAP
C000
C000
C000
C000
C000
C000
C000
FF80
FF80
4000
4000
4000
4000
4000
4000
4000
ENDCHAR
STARTCHAR 2522
ENCODING 9506
SWIDTH 960 0
DWIDTH 16 0
BBX 9 16 7 -2
BITMAP
4000
4000
4000
4000
4000
4000
4000
FF80
FF80
C000
C000
C000
C000
C000
C000
C000
ENDCHAR
STARTCHAR 2523
ENCODING 9507
SWIDTH 960 0
DWIDTH 16 0
BBX 9 16 7 -2
BITMAP
C000
C000
C000
C000
C000
C000
C000
FF80
FF80
C000
C000
C000
C000
C000
C000
C000
ENDCHAR
STARTCHAR 2524
ENCODING 9508
SWIDTH 960 0
DWIDTH 16 0
BBX 9 16 0 -2
BITMAP
0080
0080
0080
0080
0080
0080
0080
FF80
0080
0080
0080
0080
0080
0080
0080
0080
ENDCHAR
STARTCHAR 2525
ENCODING 9509
SWIDTH 960 0
DWIDTH 16 0
BBX 9 16 0 -2
BITMAP
0080
0080
0080
0080
0080
0080
0080
FF80
FF80
0080
0080
0080
0080
0080
0080
0080
ENDCHAR
STARTCHAR 2526
ENCODING 9510
SWIDTH 960 0
DWIDTH 16 0
BBX 9 16 0 -2
BITMAP
0180
0180
0180
0180
0180
0180
0180
FF80
0080
0080
0080
0080
0080
0080
0080
0080
ENDCHAR
STARTCHAR 2527
ENCODING 9511
SWIDTH 960 0
DWIDTH 16 0
BBX 9 16 0 -2
BITMAP
0080
0080
0080
0080
0080
0080
0080
FF80
0180
0180
0180
0180
0180
0180
0180
0180
ENDCHAR
STARTCHAR 2528
ENCODING 9512
SWIDTH 960 0
DWIDTH 16 0
BBX 9 16 0 -2
BITMAP
0180
0180
0180
0180
0180
0180
0180
FF80
0180
0180
0180
0180
0180
0180
0180
0180
ENDCHAR
STARTCHAR 2529
ENCODING 9513
SWIDTH 960 0
DWIDTH 16 0
BBX 9 16 0 -2
BITMAP
0180
0180
0180
0180
0180
0180
0180
FF80
FF80
0080
0080
0080
0080
0080
0080
0080
ENDCHAR
STARTCHAR 252A
ENCODING 9514
SWIDTH 960 0
DWIDTH 16 0
BBX 9 16 0 -2
BITMAP
0080
0080
0080
0080
0080
0080
0080
FF80
FF80
0180
0180
0180
0180
0180
0180
0180
ENDCHAR
STARTCHAR 252B
ENCODING 9515
SWIDTH 960 0
DWIDTH 16 0
BBX 9 16 0 -2
BITMAP
0180
0180
0180
0180
0180
0180
0180
FF80
FF80
0180
0180
0180
0180
0180
0180
0180
ENDCHAR
STARTCHAR 252C
ENCODING 9516
SWIDTH 960 0
DWIDTH 16 0
BBX 16 9 0 -2
BITMAP
FFFF
0080
0080
0080
0080
0080
0080
0080
0080
ENDCHAR
STARTCHAR 252D
ENCODING 9517
SWIDTH 960 0
DWIDTH 16 0
BBX 16 9 0 5
BITMAP
FFFF
FF80
0080
0080
0080
0080
0080
0080
0080
ENDCHAR
STARTCHAR 252E
ENCODING 9518
SWIDTH 960 0
DWIDTH 16 0
BBX 16 9 0 5
BITMAP
FFFF
00FF
0080
0080
0080
0080
0080
0080
0080
ENDCHAR
STARTCHAR 252F
ENCODING 9519
SWIDTH 960 0
DWIDTH 16 0
BBX 16 9 0 5
BITMAP
FFFF
FFFF
0080
0080
0080
0080
0080
0080
0080
ENDCHAR
STARTCHAR 2530
ENCODING 9520
SWIDTH 960 0
DWIDTH 16 0
BBX 16 9 0 5
BITMAP
FFFF
0180
0180
0180
0180
0180
0180
0180
0180
ENDCHAR
STARTCHAR 2531
ENCODING 9521
SWIDTH 960 0
DWIDTH 16 0
BBX 16 9 0 5
BITMAP
FFFF
FF80
0180
0180
0180
0180
0180
0180
0180
ENDCHAR
STARTCHAR 2532
ENCODING 9522
SWIDTH 960 0
DWIDTH 16 0
BBX 16 9 0 5
BITMAP
FFFF
01FF
0180
0180
0180
0180
0180
0180
0180
ENDCHAR
STARTCHAR 2533
ENCODING 9523
SWIDTH 960 0
DWIDTH 16 0
BBX 16 9 0 5
BITMAP
FFFF
FFFF
0180
0180
0180
0180
0180
0180
0180
ENDCHAR
STARTCHAR 2534
ENCODING 9524
SWIDTH 960 0
DWIDTH 16 0
BBX 16 8 0 6
BITMAP
0080
0080
0080
0080
0080
0080
0080
FFFF
ENDCHAR
STARTCHAR 2535
ENCODING 9525
SWIDTH 960 0
DWIDTH 16 0
BBX 16 9 0 -2
BITMAP
0080
0080
0080
0080
0080
0080
0080
FFFF
FF80
ENDCHAR
STARTCHAR 2536
ENCODING 9526
SWIDTH 960 0
DWIDTH 16 0
BBX 16 9 0 -2
BITMAP
0080
0080
0080
0080
0080
0080
0080
FFFF
00FF
ENDCHAR
STARTCHAR 2537
ENCODING 9527
SWIDTH 960 0
DWIDTH 16 0
BBX 16 9 0 -2
BITMAP
0080
0080
0080
0080
0080
0080
0080
FFFF
FFFF
ENDCHAR
STARTCHAR 2538
ENCODING 9528
SWIDTH 960 0
DWIDTH 16 0
BBX 16 8 0 -2
BITMAP
0180
0180
0180
0180
0180
0180
0180
FFFF
ENDCHAR
STARTCHAR 2539
ENCODING 9529
SWIDTH 960 0
DWIDTH 16 0
BBX 16 9 0 -2
BITMAP
0180
0180
0180
0180
0180
0180
0180
FFFF
FF80
ENDCHAR
STARTCHAR 253A
ENCODING 9530
SWIDTH 960 0
DWIDTH 16 0
BBX 16 9 0 -2
BITMAP
0180
0180
0180
0180
0180
0180
0180
FFFF
01FF
ENDCHAR
STARTCHAR 253B
ENCODING 9531
SWIDTH 960 0
DWIDTH 16 0
BBX 16 9 0 -2
BITMAP
0180
0180
0180
0180
0180
0180
0180
FFFF
FFFF
ENDCHAR
STARTCHAR 253C
ENCODING 9532
SWIDTH 960 0
DWIDTH 16 0
BBX 16 16 0 -2
BITMAP
0080
0080
0080
0080
0080
0080
0080
FFFF
0080
0080
0080
0080
0080
0080
0080
0080
ENDCHAR
STARTCHAR 253D
ENCODING 9533
SWIDTH 960 0
DWIDTH 16 0
BBX 16 16 0 -2
BITMAP
0080
0080
0080
0080
0080
0080
0080
FFFF
FF80
0080
0080
0080
0080
0080
0080
0080
ENDCHAR
STARTCHAR 253E
ENCODING 9534
SWIDTH 960 0
DWIDTH 16 0
BBX 16 16 0 -2
BITMAP
0080
0080
0080
0080
0080
0080
0080
FFFF
00FF
0080
0080
0080
0080
0080
0080
0080
ENDCHAR
STARTCHAR 253F
ENCODING 9535
SWIDTH 960 0
DWIDTH 16 0
BBX 16 16 0 -2
BITMAP
0080
0080
0080
0080
0080
0080
0080
FFFF
FFFF
0080
0080
0080
0080
0080
0080
0080
ENDCHAR
STARTCHAR 2540
ENCODING 9536
SWIDTH 960 0
DWIDTH 16 0
BBX 16 16 0 -2
BITMAP
0180
0180
0180
0180
0180
0180
0180
FFFF
0080
0080
0080
0080
0080
0080
0080
0080
ENDCHAR
STARTCHAR 2541
ENCODING 9537
SWIDTH 960 0
DWIDTH 16 0
BBX 16 16 0 -2
BITMAP
0080
0080
0080
0080
0080
0080
0080
FFFF
0180
0180
0180
0180
0180
0180
0180
0180
ENDCHAR
STARTCHAR 2542
ENCODING 9538
SWIDTH 960 0
DWIDTH 16 0
BBX 16 16 0 -2
BITMAP
0180
0180
0180
0180
0180
0180
0180
FFFF
0180
0180
0180
0180
0180
0180
0180
0180
ENDCHAR
STARTCHAR 2543
ENCODING 9539
SWIDTH 960 0
DWIDTH 16 0
BBX 16 16 0 -2
BITMAP
0180
0180
0180
0180
0180
0180
0180
FFFF
FF80
0080
0080
0080
0080
0080
0080
0080
ENDCHAR
STARTCHAR 2544
ENCODING 9540
SWIDTH 960 0
DWIDTH 16 0
BBX 16 16 0 -2
BITMAP
0180
0180
0180
0180
0180
0180
0180
FFFF
01FF
0080
0080
0080
0080
0080
0080
0080
ENDCHAR
STARTCHAR 2545
ENCODING 9541
SWIDTH 960 0
DWIDTH 16 0
BBX 16 16 0 -2
BITMAP
0080
0080
0080
0080
0080
0080
0080
FFFF
FF80
0180
0180
0180
0180
0180
0180
0180
ENDCHAR
STARTCHAR 2546
ENCODING 9542
SWIDTH 960 0
DWIDTH 16 0
BBX 16 16 0 -2
BITMAP
0080
0080
0080
0080
0080
0080
0080
FFFF
01FF
0180
0180
0180
0180
0180
0180
0180
ENDCHAR
STARTCHAR 2547
ENCODING 9543
SWIDTH 960 0
DWIDTH 16 0
BBX 16 16 0 -2
BITMAP
0180
0180
0180
0180
0180
0180
0180
FFFF
FFFF
0080
0080
0080
0080
0080
0080
0080
ENDCHAR
STARTCHAR 2548
ENCODING 9544
SWIDTH 960 0
DWIDTH 16 0
BBX 16 16 0 -2
BITMAP
0080
0080
0080
0080
0080
0080
0080
FFFF
FFFF
0180
0180
0180
0180
0180
0180
0180
ENDCHAR
STARTCHAR 2549
ENCODING 9545
SWIDTH 960 0
DWIDTH 16 0
BBX 16 16 0 -2
BITMAP
0180
0180
0180
0180
0180
0180
0180
FFFF
FF80
0180
0180
0180
0180
0180
0180
0180
ENDCHAR
STARTCHAR 254A
ENCODING 9546
SWIDTH 960 0
DWIDTH 16 0
BBX 16 16 0 -2
BITMAP
0180
0180
0180
0180
0180
0180
0180
FFFF
01FF
0180
0180
0180
0180
0180
0180
0180
ENDCHAR
STARTCHAR 254B
ENCODING 9547
SWIDTH 960 0
DWIDTH 16 0
BBX 16 16 0 -2
BITMAP
0180
0180
0180
0180
0180
0180
0180
FFFF
FFFF
0180
0180
0180
0180
0180
0180
0180
ENDCHAR
STARTCHAR 2550
ENCODING 9552
SWIDTH 960 0
DWIDTH 16 0
BBX 16 3 0 5
BITMAP
FFFF
0000
FFFF
ENDCHAR
STARTCHAR 2551
ENCODING 9553
SWIDTH 960 0
DWIDTH 16 0
BBX 3 16 7 -2
BITMAP
A0
A0
A0
A0
A0
A0
A0
A0
A0
A0
A0
A0
A0
A0
A0
A0
ENDCHAR
STARTCHAR 2552
ENCODING 9554
SWIDTH 960 0
DWIDTH 16 0
BBX 8 10 8 -2
BITMAP
FF
80
FF
80
80
80
80
80
80
80
ENDCHAR
STARTCHAR 2553
ENCODING 9555
SWIDTH 960 0
DWIDTH 16 0
BBX 9 9 7 -2
BITMAP
FF80
A000
A000
A000
A000
A000
A000
A000
A000
ENDCHAR
STARTCHAR 2554
ENCODING 9556
SWIDTH 960 0
DWIDTH 16 0
BBX 9 10 7 -2
BITMAP
FF80
8000
BF80
A000
A000
A000
A000
A000
A000
A000
ENDCHAR
STARTCHAR 2555
ENCODING 9557
SWIDTH 960 0
DWIDTH 16 0
BBX 9 10 0 -2
BITMAP
FF80
0080
FF80
0080
0080
0080
0080
0080
0080
0080
ENDCHAR
STARTCHAR 2556
ENCODING 9558
SWIDTH 960 0
DWIDTH 16 0
BBX 9 9 0 -2
BITMAP
FF80
0280
0280
0280
0280
0280
0280
0280
0280
ENDCHAR
STARTCHAR 2557
ENCODING 9559
SWIDTH 960 0
DWIDTH 16 0
BBX 9 10 0 -2
BITMAP
FF80
0080
FE80
0280
0280
0280
0280
0280
0280
0280
ENDCHAR
STARTCHAR 2558
ENCODING 9560
SWIDTH 960 0
DWIDTH 16 0
BBX 8 9 8 5
BITMAP
80
80
80
80
80
80
FF
80
FF
ENDCHAR
STARTCHAR 2559
ENCODING 9561
SWIDTH 960 0
DWIDTH 16 0
BBX 9 8 7 6
BITMAP
A000
A000
A000
A000
A000
A000
A000
FF80
ENDCHAR
STARTCHAR 255A
ENCODING 9562
SWIDTH 960 0
DWIDTH 16 0
BBX 9 9 7 5
BITMAP
A000
A000
A000
A000
A000
A000
BF80
8000
FF80
ENDCHAR
STARTCHAR 255B
ENCODING 9563
SWIDTH 960 0
DWIDTH 16 0
BBX 9 9 0 5
BITMAP
0080
0080
0080
0080
0080
0080
FF80
0080
FF80
ENDCHAR
STARTCHAR 255C
ENCODING 9564
SWIDTH 960 0
DWIDTH 16 0
BBX 9 8 0 6
BITMAP
0280
0280
0280
0280
0280
0280
0280
FF80
ENDCHAR
STARTCHAR 255D
ENCODING 9565
SWIDTH 960 0
DWIDTH 16 0
BBX 9 9 0 5
BITMAP
0280
0280
0280
0280
0280
0280
FE80
0080
FF80
ENDCHAR
STARTCHAR 255E
ENCODING 9566
SWIDTH 960 0
DWIDTH 16 0
BBX 8 16 8 -2
BITMAP
80
80
80
80
80
80
FF
80
FF
80
80
80
80
80
80
80
ENDCHAR
STARTCHAR 255F
ENCODING 9567
SWIDTH 960 0
DWIDTH 16 0
BBX 9 16 7 -2
BITMAP
A000
A000
A000
A000
A000
A000
A000
BF80
A000
A000
A000
A000
A000
A000
A000
A000
ENDCHAR
STARTCHAR 2560
ENCODING 9568
SWIDTH 960 0
DWIDTH 16 0
BBX 9 16 7 -2
BITMAP
A000
A000
A000
A000
A000
A000
BF80
8000
BF80
A000
A000
A000
A000
A000
A000
A000
ENDCHAR
STARTCHAR 2561
ENCODING 9569
SWIDTH 960 0
DWIDTH 16 0
BBX 9 16 0 -2
BITMAP
0080
0080
0080
0080
0080
0080
FF80
0080
FF80
0080
0080
0080
0080
0080
0080
0080
ENDCHAR
STARTCHAR 2562
ENCODING 9570
SWIDTH 960 0
DWIDTH 16 0
BBX 9 16 0 -2
BITMAP
0280
0280
0280
0280
0280
0280
0280
FE80
0280
0280
0280
0280
0280
0280
0280
0280
ENDCHAR
STARTCHAR 2563
ENCODING 9571
SWIDTH 960 0
DWIDTH 16 0
BBX 9 16 0 -2
BITMAP
0280
0280
0280
0280
0280
0280
FE80
0080
FE80
0280
0280
0280
0280
0280
0280
0280
ENDCHAR
STARTCHAR 2564
ENCODING 9572
SWIDTH 960 0
DWIDTH 16 0
BBX 16 10 0 -2
BITMAP
FFFF
0000
FFFF
0080
0080
0080
0080
0080
0080
0080
ENDCHAR
STARTCHAR 2565
ENCODING 9573
SWIDTH 960 0
DWIDTH 16 0
BBX 16 9 0 -2
BITMAP
FFFF
0140
0140
0140
0140
0140
0140
0140
0140
ENDCHAR
STARTCHAR 2566
ENCODING 9574
SWIDTH 960 0
DWIDTH 16 0
BBX 16 10 0 -2
BITMAP
FFFF
0000
FF7F
0140
0140
0140
0140
0140
0140
0140
ENDCHAR
STARTCHAR 2567
ENCODING 9575
SWIDTH 960 0
DWIDTH 16 0
BBX 16 9 0 5
BITMAP
0080
0080
0080
0080
0080
0080
FFFF
0000
FFFF
ENDCHAR
STARTCHAR 2568
ENCODING 9576
SWIDTH 960 0
DWIDTH 16 0
BBX 16 8 0 6
BITMAP
0140
0140
0140
0140
0140
0140
0140
FFFF
ENDCHAR
STARTCHAR 2569
ENCODING 9577
SWIDTH 960 0
DWIDTH 16 0
BBX 16 9 0 5
BITMAP
0140
0140
0140
0140
0140
0140
FF7F
0000
FFFF
ENDCHAR
STARTCHAR 256A
ENCODING 9578
SWIDTH 960 0
DWIDTH 16 0
BBX 16 16 0 -2
BITMAP
0080
0080
0080
0080
0080
0080
FFFF
0080
FFFF
0080
0080
0080
0080
0080
0080
0080
ENDCHAR
STARTCHAR 256B
ENCODING 9579
SWIDTH 960 0
DWIDTH 16 0
BBX 16 16 0 -2
BITMAP
0140
0140
0140
0140
0140
0140
0140
FFFF
0140
0140
0140
0140
0140
0140
0140
0140
ENDCHAR
STARTCHAR 256C
ENCODING 9580
SWIDTH 960 0
DWIDTH 16 0
BBX 16 16 0 -2
BITMAP
0140
0140
0140
0140
0140
0140
FF7F
0000
FF7F
0140
0140
0140
0140
0140
0140
0140
ENDCHAR
STARTCHAR 2580
ENCODING 9600
SWIDTH 960 0
DWIDTH 16 0
BBX 16 8 0 6
BITMAP
FFFF
FFFF
FFFF
FFFF
FFFF
FFFF
FFFF
FFFF
ENDCHAR
STARTCHAR 2584
ENCODING 9604
SWIDTH 960 0
DWIDTH 16 0
BBX 16 8 0 -2
BITMAP
FFFF
FFFF
FFFF
FFFF
FFFF
FFFF
FFFF
FFFF
ENDCHAR
STARTCHAR 2588
ENCODING 9608
SWIDTH 960 0
DWIDTH 16 0
BBX 16 16 0 -2
BITMAP
FFFF
FFFF
FFFF
FFFF
FFFF
FFFF
FFFF
FFFF
FFFF
FFFF
FFFF
FFFF
FFFF
FFFF
FFFF
FFFF
ENDCHAR
STARTCHAR 258C
ENCODING 9612
SWIDTH 960 0
DWIDTH 16 0
BBX 8 16 0 -2
BITMAP
FF
FF
FF
FF
FF
FF
FF
FF
FF
FF
FF
FF
FF
FF
FF
FF
ENDCHAR
STARTCHAR 2590
ENCODING 9616
SWIDTH 960 0
DWIDTH 16 0
BBX 8 16 8 -2
BITMAP
FF
FF
FF
FF
FF
FF
FF
FF
FF
FF
FF
FF
FF
FF
FF
FF
ENDCHAR
STARTCHAR 2591
ENCODING 9617
SWIDTH 900 0
DWIDTH 15 0
BBX 13 13 1 0
BITMAP
9248
0000
0000
9248
0000
0000
9248
0000
0000
9248
0000
0000
9248
ENDCHAR
STARTCHAR 2592
ENCODING 9618
SWIDTH 900 0
DWIDTH 15 0
BBX 13 15 1 -1
BITMAP
9248
0000
9248
0000
9248
0000
9248
0000
9248
0000
9248
0000
9248
0000
9248
ENDCHAR
STARTCHAR 2593
ENCODING 9619
SWIDTH 960 0
DWIDTH 16 0
BBX 15 15 1 -1
BITMAP
AAAA
0000
AAAA
0000
AAAA
0000
AAAA
0000
AAAA
0000
AAAA
0000
AAAA
0000
AAAA
ENDCHAR
STARTCHAR 25A0
ENCODING 9632
SWIDTH 840 0
DWIDTH 14 0
BBX 12 12 1 0
BITMAP
FFF0
FFF0
FFF0
FFF0
FFF0
FFF0
FFF0
FFF0
FFF0
FFF0
FFF0
FFF0
ENDCHAR
STARTCHAR 25A1
ENCODING 9633
SWIDTH 840 0
DWIDTH 14 0
BBX 12 12 1 0
BITMAP
FFF0
8010
8010
8010
8010
8010
8010
8010
8010
8010
8010
FFF0
ENDCHAR
STARTCHAR 25A3
ENCODING 9635
SWIDTH 960 0
DWIDTH 16 0
BBX 14 14 1 -1
BITMAP
FFFC
8004
8004
8004
8FC4
8FC4
8FC4
8FC4
8FC4
8FC4
8004
8004
8004
FFFC
ENDCHAR
STARTCHAR 25A4
ENCODING 9636
SWIDTH 960 0
DWIDTH 16 0
BBX 14 14 1 -1
BITMAP
FFFC
8004
8004
FFFC
8004
8004
FFFC
8004
8004
FFFC
8004
8004
8004
FFFC
ENDCHAR
STARTCHAR 25A5
ENCODING 9637
SWIDTH 960 0
DWIDTH 16 0
BBX 14 14 1 -1
BITMAP
FFFC
9244
9244
9244
9244
9244
9244
9244
9244
9244
9244
9244
9244
FFFC
ENDCHAR
STARTCHAR 25A6
ENCODING 9638
SWIDTH 960 0
DWIDTH 16 0
BBX 14 14 1 -1
BITMAP
FFFC
9244
9244
FFFC
9244
9244
FFFC
9244
9244
FFFC
9244
9244
9244
FFFC
ENDCHAR
STARTCHAR 25A7
ENCODING 9639
SWIDTH 960 0
DWIDTH 16 0
BBX 14 14 1 -1
BITMAP
FFFC
C104
A084
9044
8824
8414
820C
C104
A084
9044
8824
8414
820C
FFFC
ENDCHAR
STARTCHAR 25A8
ENCODING 9640
SWIDTH 960 0
DWIDTH 16 0
BBX 14 14 1 -1
BITMAP
FFFC
820C
8414
8824
9044
A084
C104
820C
8414
8824
9044
A084
C104
FFFC
ENDCHAR
STARTCHAR 25A9
ENCODING 9641
SWIDTH 960 0
DWIDTH 16 0
BBX 14 14 1 -1
BITMAP
FFFC
C104
A28C
9454
8824
9454
A28C
C104
A28C
9454
8824
9454
A28C
FFFC
ENDCHAR
STARTCHAR 25AA
ENCODING 9642
SWIDTH 360 0
DWIDTH 6 0
BBX 4 4 1 4
BITMAP
F0
F0
F0
F0
ENDCHAR
STARTCHAR 25AB
ENCODING 9643
SWIDTH 360 0
DWIDTH 6 0
BBX 4 4 1 4
BITMAP
F0
90
90
F0
ENDCHAR
STARTCHAR 25AC
ENCODING 9644
SWIDTH 960 0
DWIDTH 16 0
BBX 16 3 0 5
BITMAP
FFFF
FFFF
FFFF
ENDCHAR
STARTCHAR 25B2
ENCODING 9650
SWIDTH 840 0
DWIDTH 14 0
BBX 13 10 1 1
BITMAP
0200
0700
0F80
0F80
1FC0
3FE0
3FE0
7FF0
FFF8
FFF8
ENDCHAR
STARTCHAR 25B3
ENCODING 9651
SWIDTH 960 0
DWIDTH 16 0
BBX 13 13 2 0
BITMAP
0200
0200
0500
0500
0880
0880
1040
1040
2020
2020
4010
4010
FFF8
ENDCHAR
STARTCHAR 25B6
ENCODING 9654
SWIDTH 960 0
DWIDTH 16 0
BBX 13 13 3 -1
BITMAP
8000
E000
F800
FE00
FF80
FFE0
FFF8
FFE0
FF80
FE00
F800
E000
8000
ENDCHAR
STARTCHAR 25B7
ENCODING 9655
SWIDTH 960 0
DWIDTH 16 0
BBX 13 13 3 -1
BITMAP
8000
E000
9800
8600
8180
8060
8018
8060
8180
8600
9800
E000
8000
ENDCHAR
STARTCHAR 25BA
ENCODING 9658
SWIDTH 720 0
DWIDTH 12 0
BBX 10 7 1 3
BITMAP
C000
F800
FF00
FFC0
FF00
F800
C000
ENDCHAR
STARTCHAR 25BC
ENCODING 9660
SWIDTH 840 0
DWIDTH 14 0
BBX 13 10 1 1
BITMAP
FFF8
FFF8
7FF0
3FE0
3FE0
1FC0
0F80
0F80
0700
0200
ENDCHAR
STARTCHAR 25BD
ENCODING 9661
SWIDTH 960 0
DWIDTH 16 0
BBX 13 13 2 -1
BITMAP
FFF8
4010
4010
2020
2020
1040
1040
0880
0880
0500
0500
0200
0200
ENDCHAR
STARTCHAR 25C0
ENCODING 9664
SWIDTH 960 0
DWIDTH 16 0
BBX 13 13 1 -1
BITMAP
0008
0038
00F8
03F8
0FF8
3FF8
FFF8
3FF8
0FF8
03F8
00F8
0038
0008
ENDCHAR
STARTCHAR 25C1
ENCODING 9665
SWIDTH 960 0
DWIDTH 16 0
BBX 13 13 1 -1
BITMAP
0008
0038
00C8
0308
0C08
3008
C008
3008
0C08
0308
00C8
0038
0008
ENDCHAR
STARTCHAR 25C4
ENCODING 9668
SWIDTH 720 0
DWIDTH 12 0
BBX 10 7 1 3
BITMAP
00C0
07C0
3FC0
FFC0
3FC0
07C0
00C0
ENDCHAR
STARTCHAR 25C6
ENCODING 9670
SWIDTH 960 0
DWIDTH 16 0
BBX 15 15 1 -1
BITMAP
0100
0380
07C0
0FE0
1FF0
3FF8
7FFC
FFFE
7FFC
3FF8
1FF0
0FE0
07C0
0380
0100
ENDCHAR
STARTCHAR 25C7
ENCODING 9671
SWIDTH 960 0
DWIDTH 16 0
BBX 15 15 1 -1
BITMAP
0100
0280
0440
0820
1010
2008
4004
8002
4004
2008
1010
0820
0440
0280
0100
ENDCHAR
STARTCHAR 25C8
ENCODING 9672
SWIDTH 960 0
DWIDTH 16 0
BBX 15 15 1 -2
BITMAP
0100
0280
0440
0920
1390
27C8
4FE4
9FF2
4FE4
27C8
1390
0920
0440
0280
0100
ENDCHAR
STARTCHAR 25CA
ENCODING 9674
SWIDTH 720 0
DWIDTH 12 0
BBX 11 12 1 0
BITMAP
0400
0A00
1100
2080
4040
8020
8020
4040
2080
1100
0A00
0400
ENDCHAR
STARTCHAR 25CB
ENCODING 9675
SWIDTH 960 0
DWIDTH 16 0
BBX 14 14 1 -1
BITMAP
0780
1860
2010
4008
4008
8004
8004
8004
8004
4008
4008
2010
1860
0780
ENDCHAR
STARTCHAR 25CE
ENCODING 9678
SWIDTH 960 0
DWIDTH 16 0
BBX 13 13 2 0
BITMAP
0F80
3060
4010
4710
8888
9048
9048
9048
8888
4710
4010
3060
0F80
ENDCHAR
STARTCHAR 25CF
ENCODING 9679
SWIDTH 960 0
DWIDTH 16 0
BBX 14 14 1 -1
BITMAP
0780
1FE0
3FF0
7FF8
7FF8
FFFC
FFFC
FFFC
FFFC
7FF8
7FF8
3FF0
1FE0
0780
ENDCHAR
STARTCHAR 25D0
ENCODING 9680
SWIDTH 960 0
DWIDTH 16 0
BBX 14 14 1 -1
BITMAP
0780
1E60
3E10
7E08
7E08
FE04
FE04
FE04
FE04
7E08
7E08
3E10
1E60
0780
ENDCHAR
STARTCHAR 25D1
ENCODING 9681
SWIDTH 960 0
DWIDTH 16 0
BBX 14 14 1 -1
BITMAP
0780
19E0
21F0
41F8
41F8
81FC
81FC
81FC
81FC
41F8
41F8
21F0
19E0
0780
ENDCHAR
STARTCHAR 25D8
ENCODING 9688
SWIDTH 960 0
DWIDTH 16 0
BBX 16 16 0 -2
BITMAP
FFFF
FFFF
FFFF
FFFF
FFFF
FE3F
FC1F
FC1F
FC1F
FE3F
FFFF
FFFF
FFFF
FFFF
FFFF
FFFF
ENDCHAR
STARTCHAR 25D9
ENCODING 9689
SWIDTH 960 0
DWIDTH 16 0
BBX 16 16 0 -2
BITMAP
FFFF
FC3F
F3CF
EFF7
DFFB
DFFB
BFFD
BFFD
BFFD
BFFD
DFFB
DFFB
EFF7
F3CF
FC3F
FFFF
ENDCHAR
STARTCHAR 25E6
ENCODING 9702
SWIDTH 420 0
DWIDTH 7 0
BBX 5 5 1 4
BITMAP
70
88
88
88
70
ENDCHAR
STARTCHAR 2605
ENCODING 9733
SWIDTH 960 0
DWIDTH 16 0
BBX 15 14 1 -1
BITMAP
0100
0100
0380
0380
07C0
FFFE
3FF8
1FF0
0FE0
0FE0
0FE0
1EF0
1830
2008
ENDCHAR
STARTCHAR 2606
ENCODING 9734
SWIDTH 960 0
DWIDTH 16 0
BBX 15 14 1 -1
BITMAP
0100
0100
0280
0280
0440
FC7E
2008
1010
0820
0820
0920
16D0
1830
2008
ENDCHAR
STARTCHAR 260E
ENCODING 9742
SWIDTH 960 0
DWIDTH 16 0
BBX 15 13 1 -1
BITMAP
3FF8
7FFC
F83E
FFFE
EFEE
1C70
3838
3838
783C
783C
7C7C
7FFC
7FFC
ENDCHAR
STARTCHAR 260F
ENCODING 9743
SWIDTH 960 0
DWIDTH 16 0
BBX 15 13 1 -1
BITMAP
3FF8
4004
87C2
9012
E82E
1390
2448
2828
4824
4444
4384
4004
7FFC
ENDCHAR
STARTCHAR 261C
ENCODING 9756
SWIDTH 960 0
DWIDTH 16 0
BBX 15 9 1 2
BITMAP
7FE0
819E
7A0A
14CA
0F4A
102A
0F0A
081E
07E0
ENDCHAR
STARTCHAR 261E
ENCODING 9758
SWIDTH 960 0
DWIDTH 16 0
BBX 15 9 1 2
BITMAP
0FFC
F302
A0BC
A648
A5F0
A810
A1E0
F020
0FC0
ENDCHAR
STARTCHAR 263A
ENCODING 9786
SWIDTH 960 0
DWIDTH 16 0
BBX 12 12 2 0
BITMAP
0F00
30C0
4020
4920
8910
8010
8010
9090
4F20
4020
30C0
0F00
ENDCHAR
STARTCHAR 263B
ENCODING 9787
SWIDTH 960 0
DWIDTH 16 0
BBX 12 12 2 0
BITMAP
0F00
3FC0
7FE0
76E0
F6F0
FFF0
FFF0
EF70
70E0
7FE0
3FC0
0F00
ENDCHAR
STARTCHAR 263C
ENCODING 9788
SWIDTH 960 0
DWIDTH 16 0
BBX 13 13 1 -1
BITMAP
0200
0200
2720
18C0
1040
2020
E038
2020
1040
18C0
2720
0200
0200
ENDCHAR
STARTCHAR 2640
ENCODING 9792
SWIDTH 600 0
DWIDTH 10 0
BBX 7 12 2 0
BITMAP
38
44
82
82
44
38
10
FE
10
10
10
10
ENDCHAR
STARTCHAR 2642
ENCODING 9794
SWIDTH 600 0
DWIDTH 10 0
BBX 9 12 0 0
BITMAP
0380
1D80
0280
0280
0480
3400
4800
8400
8400
8400
4800
3000
ENDCHAR
STARTCHAR 2660
ENCODING 9824
SWIDTH 720 0
DWIDTH 12 0
BBX 11 12 1 0
BITMAP
0400
0E00
1F00
3F80
7FC0
7FC0
FFE0
FFE0
FFE0
75C0
0400
0E00
ENDCHAR
STARTCHAR 2661
ENCODING 9825
SWIDTH 960 0
DWIDTH 16 0
BBX 13 14 2 -1
BITMAP
38E0
4510
8208
8008
8008
8008
8008
4010
4010
2020
1040
0880
0500
0200
ENDCHAR
STARTCHAR 2663
ENCODING 9827
SWIDTH 780 0
DWIDTH 13 0
BBX 11 12 1 0
BITMAP
0E00
1F00
1F00
1F00
0E00
75C0
FFE0
FFE0
FFE0
75C0
0400
0E00
ENDCHAR
STARTCHAR 2664
ENCODING 9828
SWIDTH 960 0
DWIDTH 16 0
BBX 11 14 3 -1
BITMAP
0400
0A00
1100
2080
4040
4040
8020
8020
8020
8A20
75C0
0400
0A00
3F80
ENDCHAR
STARTCHAR 2665
ENCODING 9829
SWIDTH 720 0
DWIDTH 12 0
BBX 11 12 1 0
BITMAP
71C0
FBE0
FFE0
FFE0
7FC0
7FC0
3F80
3F80
1F00
0E00
0400
0400
ENDCHAR
STARTCHAR 2666
ENCODING 9830
SWIDTH 720 0
DWIDTH 12 0
BBX 11 12 1 0
BITMAP
0400
0E00
1F00
3F80
7FC0
FFE0
FFE0
7FC0
3F80
1F00
0E00
0400
ENDCHAR
STARTCHAR 2667
ENCODING 9831
SWIDTH 960 0
DWIDTH 16 0
BBX 13 14 2 -1
BITMAP
0700
0880
1040
1040
0880
3560
4D90
8008
8708
4A90
3260
0200
0500
0F80
ENDCHAR
STARTCHAR 2668
ENCODING 9832
SWIDTH 960 0
DWIDTH 16 0
BBX 14 14 1 -1
BITMAP
0540
0A80
0A80
0A80
0A80
0540
0540
3570
4548
8A84
C00C
703C
3FF8
0FC0
ENDCHAR
STARTCHAR 2669
ENCODING 9833
SWIDTH 960 0
DWIDTH 16 0
BBX 4 14 6 -1
BITMAP
10
10
10
10
10
10
10
10
10
10
10
70
F0
E0
ENDCHAR
STARTCHAR 266A
ENCODING 9834
SWIDTH 660 0
DWIDTH 11 0
BBX 8 14 1 -1
BITMAP
10
10
18
1C
16
13
11
11
12
14
10
70
E0
C0
ENDCHAR
STARTCHAR 266B
ENCODING 9835
SWIDTH 720 0
DWIDTH 12 0
BBX 10 14 1 -1
BITMAP
1E00
1FC0
13C0
1040
1040
1040
1040
1040
1040
1040
7040
E1C0
C380
0300
ENDCHAR
STARTCHAR 266C
ENCODING 9836
SWIDTH 960 0
DWIDTH 16 0
BBX 11 14 2 -1
BITMAP
00E0
0720
3820
2020
20E0
2720
3820
2020
2020
2020
2060
60E0
E0C0
C000
ENDCHAR
STARTCHAR 266D
ENCODING 9837
SWIDTH 960 0
DWIDTH 16 0
BBX 6 13 5 -1
BITMAP
80
80
80
80
80
B0
C8
84
84
84
88
90
E0
ENDCHAR
STARTCHAR 3000
ENCODING 12288
SWIDTH 960 0
DWIDTH 16 0
BBX 0 0 0 0
BITMAP
ENDCHAR
STARTCHAR 3001
ENCODING 12289
SWIDTH 960 0
DWIDTH 16 0
BBX 4 4 1 -1
BITMAP
80
60
30
10
ENDCHAR
STARTCHAR 3002
ENCODING 12290
SWIDTH 960 0
DWIDTH 16 0
BBX 4 4 1 -1
BITMAP
60
90
90
60
ENDCHAR
STARTCHAR 3003
ENCODING 12291
SWIDTH 960 0
DWIDTH 16 0
BBX 5 6 6 3
BITMAP
48
48
48
90
90
90
ENDCHAR
STARTCHAR 3008
ENCODING 12296
SWIDTH 960 0
DWIDTH 16 0
BBX 6 15 9 -1
BITMAP
04
08
08
10
20
20
40
80
40
20
20
10
08
08
04
ENDCHAR
STARTCHAR 3009
ENCODING 12297
SWIDTH 960 0
DWIDTH 16 0
BBX 6 15 1 -1
BITMAP
80
40
40
20
10
10
08
04
08
10
10
20
40
40
80
ENDCHAR
STARTCHAR 300A
ENCODING 12298
SWIDTH 960 0
DWIDTH 16 0
BBX 8 15 7 -1
BITMAP
09
12
12
24
24
48
48
90
48
48
24
24
12
12
09
ENDCHAR
STARTCHAR 300B
ENCODING 12299
SWIDTH 960 0
DWIDTH 16 0
BBX 8 15 1 -1
BITMAP
90
48
48
24
24
12
12
09
12
12
24
24
48
48
90
ENDCHAR
STARTCHAR 300C
ENCODING 12300
SWIDTH 960 0
DWIDTH 16 0
BBX 5 7 10 6
BITMAP
F8
80
80
80
80
80
80
ENDCHAR
STARTCHAR 300D
ENCODING 12301
SWIDTH 960 0
DWIDTH 16 0
BBX 5 7 1 -1
BITMAP
08
08
08
08
08
08
F8
ENDCHAR
STARTCHAR 300E
ENCODING 12302
SWIDTH 960 0
DWIDTH 16 0
BBX 6 7 10 6
BITMAP
FC
84
BC
A0
A0
A0
E0
ENDCHAR
STARTCHAR 300F
ENCODING 12303
SWIDTH 960 0
DWIDTH 16 0
BBX 6 7 1 -1
BITMAP
1C
14
14
14
F4
84
FC
ENDCHAR
STARTCHAR 3010
ENCODING 12304
SWIDTH 960 0
DWIDTH 16 0
BBX 4 15 11 -1
BITMAP
F0
E0
E0
C0
C0
C0
C0
C0
C0
C0
C0
C0
E0
E0
F0
ENDCHAR
STARTCHAR 3011
ENCODING 12305
SWIDTH 960 0
DWIDTH 16 0
BBX 4 15 1 -1
BITMAP
F0
70
70
30
30
30
30
30
30
30
30
30
70
70
F0
ENDCHAR
STARTCHAR 3013
ENCODING 12307
SWIDTH 960 0
DWIDTH 16 0
BBX 16 5 0 3
BITMAP
FFFF
0000
0000
0000
FFFF
ENDCHAR
STARTCHAR 3014
ENCODING 12308
SWIDTH 960 0
DWIDTH 16 0
BBX 4 16 11 -2
BITMAP
30
C0
80
80
80
80
80
80
80
80
80
80
80
80
C0
30
ENDCHAR
STARTCHAR 3015
ENCODING 12309
SWIDTH 960 0
DWIDTH 16 0
BBX 4 16 1 -2
BITMAP
C0
30
10
10
10
10
10
10
10
10
10
10
10
10
30
C0
ENDCHAR
STARTCHAR 3041
ENCODING 12353
SWIDTH 960 0
DWIDTH 16 0
BBX 10 11 4 1
BITMAP
1000
1000
7E00
1000
1200
3F80
5240
9440
9840
6880
0300
ENDCHAR
STARTCHAR 3042
ENCODING 12354
SWIDTH 960 0
DWIDTH 16 0
BBX 12 13 2 -1
BITMAP
0800
0800
0F80
7800
0900
0FC0
1920
2910
4A10
8A10
8C10
9820
64C0
ENDCHAR
STARTCHAR 3043
ENCODING 12355
SWIDTH 960 0
DWIDTH 16 0
BBX 9 8 4 4
BITMAP
8000
8200
8100
8080
8080
8000
4800
3000
ENDCHAR
STARTCHAR 3044
ENCODING 12356
SWIDTH 960 0
DWIDTH 16 0
BBX 11 10 2 2
BITMAP
8000
8080
8040
8040
8020
8020
4000
4200
2400
1800
ENDCHAR
STARTCHAR 3045
ENCODING 12357
SWIDTH 960 0
DWIDTH 16 0
BBX 6 11 5 1
BITMAP
20
18
00
38
C4
04
04
08
08
10
20
ENDCHAR
STARTCHAR 3046
ENCODING 12358
SWIDTH 960 0
DWIDTH 16 0
BBX 7 13 4 -1
BITMAP
20
1C
00
00
3C
C2
02
02
02
04
04
08
10
ENDCHAR
STARTCHAR 3047
ENCODING 12359
SWIDTH 960 0
DWIDTH 16 0
BBX 10 11 4 1
BITMAP
0C00
0200
0000
1E00
6400
0800
1800
2400
4400
8400
03C0
ENDCHAR
STARTCHAR 3048
ENCODING 12360
SWIDTH 960 0
DWIDTH 16 0
BBX 11 13 3 -1
BITMAP
1800
0700
0000
0000
1F00
6200
0400
0800
1C00
2200
4200
8200
01E0
ENDCHAR
STARTCHAR 3049
ENCODING 12361
SWIDTH 960 0
DWIDTH 16 0
BBX 10 11 4 1
BITMAP
2000
2000
2C80
F040
2000
3E00
6100
A080
A080
A080
6300
ENDCHAR
STARTCHAR 304A
ENCODING 12362
SWIDTH 960 0
DWIDTH 16 0
BBX 13 13 2 -1
BITMAP
1000
1000
1F30
F008
1000
1000
1FC0
3020
5010
9010
9010
9020
70C0
ENDCHAR
STARTCHAR 304B
ENCODING 12363
SWIDTH 960 0
DWIDTH 16 0
BBX 13 12 2 0
BITMAP
1000
1000
1020
1E10
F108
1108
1100
1100
2100
2100
4100
8600
ENDCHAR
STARTCHAR 304C
ENCODING 12364
SWIDTH 960 0
DWIDTH 16 0
BBX 14 13 2 -1
BITMAP
0008
1024
1010
1040
1E20
F110
1110
1100
1100
2100
2100
4100
8600
ENDCHAR
STARTCHAR 304D
ENCODING 12365
SWIDTH 960 0
DWIDTH 16 0
BBX 8 13 4 -1
BITMAP
20
20
1E
F0
0F
F8
04
3E
41
80
80
40
3C
ENDCHAR
STARTCHAR 304E
ENCODING 12366
SWIDTH 960 0
DWIDTH 16 0
BBX 12 13 4 -1
BITMAP
2020
2090
1E40
F000
0F00
F800
0400
3E00
4100
8000
8000
4000
3C00
ENDCHAR
STARTCHAR 304F
ENCODING 12367
SWIDTH 960 0
DWIDTH 16 0
BBX 5 13 5 -1
BITMAP
08
08
10
10
20
40
80
40
20
10
10
08
08
ENDCHAR
STARTCHAR 3050
ENCODING 12368
SWIDTH 960 0
DWIDTH 16 0
BBX 9 13 5 -1
BITMAP
0800
0800
1000
1100
2480
4200
8000
4000
2000
1000
1000
0800
0800
ENDCHAR
STARTCHAR 3051
ENCODING 12369
SWIDTH 960 0
DWIDTH 16 0
BBX 12 12 3 0
BITMAP
4080
4080
4080
80F0
8F80
8080
8080
8080
A100
A100
4100
4200
ENDCHAR
STARTCHAR 3052
ENCODING 12370
SWIDTH 960 0
DWIDTH 16 0
BBX 13 13 3 -1
BITMAP
0010
4148
4120
4100
81E0
8F00
8100
8100
8100
A200
A200
4200
4400
ENDCHAR
STARTCHAR 3053
ENCODING 12371
SWIDTH 960 0
DWIDTH 16 0
BBX 10 9 3 2
BITMAP
3F80
0100
0200
0000
0000
0000
0000
C000
3FC0
ENDCHAR
STARTCHAR 3054
ENCODING 12372
SWIDTH 960 0
DWIDTH 16 0
BBX 14 10 2 1
BITMAP
0008
3FA4
0110
0200
0000
0000
0000
0000
C000
3FE0
ENDCHAR
STARTCHAR 3055
ENCODING 12373
SWIDTH 960 0
DWIDTH 16 0
BBX 9 13 3 -1
BITMAP
0800
0800
0780
FC00
0200
0200
0100
3F80
4000
8000
8000
4000
3E00
ENDCHAR
STARTCHAR 3056
ENCODING 12374
SWIDTH 960 0
DWIDTH 16 0
BBX 13 14 3 -2
BITMAP
0010
0848
0820
0780
FC00
0200
0200
0100
3F80
4000
8000
8000
4000
3E00
ENDCHAR
STARTCHAR 3057
ENCODING 12375
SWIDTH 960 0
DWIDTH 16 0
BBX 9 13 4 -1
BITMAP
8000
8000
8000
8000
8000
8000
8000
8000
8000
8080
8100
4200
3C00
ENDCHAR
STARTCHAR 3058
ENCODING 12376
SWIDTH 960 0
DWIDTH 16 0
BBX 9 12 4 0
BITMAP
8100
8080
8200
8100
8000
8000
8000
8000
8000
8100
4200
3C00
ENDCHAR
STARTCHAR 3059
ENCODING 12377
SWIDTH 960 0
DWIDTH 16 0
BBX 12 13 2 -1
BITMAP
0200
0200
03F0
FE00
0200
0E00
1300
1300
0E00
0200
0400
0400
0800
ENDCHAR
STARTCHAR 305A
ENCODING 12378
SWIDTH 960 0
DWIDTH 16 0
BBX 13 15 2 -2
BITMAP
0010
0248
0220
0200
03E0
FE00
0200
0E00
1300
1300
0E00
0200
0400
0400
0800
ENDCHAR
STARTCHAR 305B
ENCODING 12379
SWIDTH 960 0
DWIDTH 16 0
BBX 14 12 1 0
BITMAP
0840
0840
0840
0840
FFFC
0840
0840
0840
0980
0800
0400
03F8
ENDCHAR
STARTCHAR 305C
ENCODING 12380
SWIDTH 960 0
DWIDTH 16 0
BBX 15 13 1 -1
BITMAP
0004
1092
1088
1080
1080
FFF8
1080
1080
1080
1300
1000
0800
07F0
ENDCHAR
STARTCHAR 305D
ENCODING 12381
SWIDTH 960 0
DWIDTH 16 0
BBX 12 13 2 0
BITMAP
0040
3040
0880
0100
0230
0FC0
F100
0200
0400
0400
0400
0200
01E0
ENDCHAR
STARTCHAR 305E
ENCODING 12382
SWIDTH 960 0
DWIDTH 16 0
BBX 15 14 1 -1
BITMAP
0004
0052
3048
0880
0100
0230
0FC0
F100
0200
0400
0400
0400
0200
01E0
ENDCHAR
STARTCHAR 305F
ENCODING 12383
SWIDTH 960 0
DWIDTH 16 0
BBX 12 13 2 -1
BITMAP
1000
1000
1000
1E00
F000
11F0
1000
2000
2000
2000
4000
4600
81F0
ENDCHAR
STARTCHAR 3060
ENCODING 12384
SWIDTH 960 0
DWIDTH 16 0
BBX 14 13 2 -1
BITMAP
1008
1004
1010
1E08
F000
11F0
1000
2000
2000
2000
4000
4600
81F0
ENDCHAR
STARTCHAR 3061
ENCODING 12385
SWIDTH 960 0
DWIDTH 16 0
BBX 11 13 2 -1
BITMAP
1000
1000
1300
FC00
1000
1000
1780
3840
2020
0020
0020
0040
0780
ENDCHAR
STARTCHAR 3062
ENCODING 12386
SWIDTH 960 0
DWIDTH 16 0
BBX 13 12 2 0
BITMAP
1010
1348
FC20
1000
1000
2380
2C40
3020
2020
0020
00C0
0700
ENDCHAR
STARTCHAR 3063
ENCODING 12387
SWIDTH 960 0
DWIDTH 16 0
BBX 10 8 3 4
BITMAP
0F00
3080
C040
0040
0040
0080
0100
0600
ENDCHAR
STARTCHAR 3064
ENCODING 12388
SWIDTH 960 0
DWIDTH 16 0
BBX 12 10 2 2
BITMAP
07C0
1820
E010
0010
0010
0010
0020
0040
0080
0700
ENDCHAR
STARTCHAR 3065
ENCODING 12389
SWIDTH 960 0
DWIDTH 16 0
BBX 14 13 2 -1
BITMAP
0008
0024
0010
07C0
1820
E010
0010
0010
0010
0020
0040
0080
0700
ENDCHAR
STARTCHAR 3066
ENCODING 12390
SWIDTH 960 0
DWIDTH 16 0
BBX 11 11 2 1
BITMAP
00E0
FF00
0200
0400
0800
0800
0800
0800
0400
0200
01C0
ENDCHAR
STARTCHAR 3067
ENCODING 12391
SWIDTH 960 0
DWIDTH 16 0
BBX 13 12 2 0
BITMAP
03E0
FF00
0210
0408
0420
0810
0800
0800
0800
0400
0300
00C0
ENDCHAR
STARTCHAR 3068
ENCODING 12392
SWIDTH 960 0
DWIDTH 16 0
BBX 9 12 3 0
BITMAP
2000
2000
2380
1C00
2000
4000
8000
8000
8000
8000
4000
3F80
ENDCHAR
STARTCHAR 3069
ENCODING 12393
SWIDTH 960 0
DWIDTH 16 0
BBX 13 13 3 -1
BITMAP
0010
2048
2020
2380
1C00
2000
4000
8000
8000
8000
8000
4000
3F80
ENDCHAR
STARTCHAR 306A
ENCODING 12394
SWIDTH 960 0
DWIDTH 16 0
BBX 11 13 2 -1
BITMAP
1000
1000
1000
FCC0
2020
2000
2080
4080
4080
87C0
08A0
0920
0600
ENDCHAR
STARTCHAR 306B
ENCODING 12395
SWIDTH 960 0
DWIDTH 16 0
BBX 12 12 2 0
BITMAP
4000
43E0
4400
4000
8000
8000
8000
8000
8400
A200
41F0
4000
ENDCHAR
STARTCHAR 306C
ENCODING 12396
SWIDTH 960 0
DWIDTH 16 0
BBX 13 12 2 0
BITMAP
0200
4200
4F80
5240
2220
6410
9410
8C10
8BD0
9230
6230
01C8
ENDCHAR
STARTCHAR 306D
ENCODING 12397
SWIDTH 960 0
DWIDTH 16 0
BBX 14 13 1 -1
BITMAP
0800
0800
0C00
1BE0
EC10
0808
1808
2808
4808
88E8
0910
0918
08E4
ENDCHAR
STARTCHAR 306E
ENCODING 12398
SWIDTH 960 0
DWIDTH 16 0
BBX 13 10 2 2
BITMAP
0FC0
3220
4210
8208
8408
8408
8808
8810
9020
60C0
ENDCHAR
STARTCHAR 306F
ENCODING 12399
SWIDTH 960 0
DWIDTH 16 0
BBX 12 12 2 0
BITMAP
2080
4080
40B0
8FC0
8080
8080
8080
8080
A7C0
A8A0
4890
4700
ENDCHAR
STARTCHAR 3070
ENCODING 12400
SWIDTH 960 0
DWIDTH 16 0
BBX 14 14 2 -2
BITMAP
0008
0024
2090
4080
40B0
8FC0
8080
8080
8080
8080
A7C0
A8A0
4890
4700
ENDCHAR
STARTCHAR 3071
ENCODING 12401
SWIDTH 960 0
DWIDTH 16 0
BBX 14 14 2 -2
BITMAP
0008
0014
2088
4080
40B0
8FC0
8080
8080
8080
8080
A7C0
A8A0
4890
4700
ENDCHAR
STARTCHAR 3072
ENCODING 12402
SWIDTH 960 0
DWIDTH 16 0
BBX 12 12 2 0
BITMAP
1080
F080
2040
4060
4050
8040
8040
8080
8080
8100
4200
3C00
ENDCHAR
STARTCHAR 3073
ENCODING 12403
SWIDTH 960 0
DWIDTH 16 0
BBX 14 13 2 -1
BITMAP
0008
10A4
F090
2040
4060
4050
8040
8040
8080
8080
8100
4200
3C00
ENDCHAR
STARTCHAR 3074
ENCODING 12404
SWIDTH 960 0
DWIDTH 16 0
BBX 14 13 2 -1
BITMAP
0008
1094
F088
2040
4060
4050
8040
8040
8080
8080
8100
4200
3C00
ENDCHAR
STARTCHAR 3075
ENCODING 12405
SWIDTH 960 0
DWIDTH 16 0
BBX 14 13 1 -1
BITMAP
0400
0300
0000
0000
0200
0200
0210
0108
8084
9040
6040
0040
0380
ENDCHAR
STARTCHAR 3076
ENCODING 12406
SWIDTH 960 0
DWIDTH 16 0
BBX 15 13 1 -1
BITMAP
0400
0304
0012
0008
0200
0200
0210
0108
8084
9040
6040
0040
0380
ENDCHAR
STARTCHAR 3077
ENCODING 12407
SWIDTH 960 0
DWIDTH 16 0
BBX 14 13 1 -1
BITMAP
0400
0308
0014
0008
0200
0200
0210
0108
8084
9040
6040
0040
0380
ENDCHAR
STARTCHAR 3078
ENCODING 12408
SWIDTH 960 0
DWIDTH 16 0
BBX 14 6 1 3
BITMAP
0C00
1200
2100
C0C0
0030
000C
ENDCHAR
STARTCHAR 3079
ENCODING 12409
SWIDTH 960 0
DWIDTH 16 0
BBX 14 8 1 1
BITMAP
0010
0008
0C20
1210
2100
C0C0
0030
000C
ENDCHAR
STARTCHAR 307A
ENCODING 12410
SWIDTH 960 0
DWIDTH 16 0
BBX 14 8 1 1
BITMAP
0020
0050
0C20
1200
2100
C0C0
0030
000C
ENDCHAR
STARTCHAR 307B
ENCODING 12411
SWIDTH 960 0
DWIDTH 16 0
BBX 13 13 2 -1
BITMAP
4000
47F0
4080
8080
8080
87F0
8080
8080
8080
A3E0
A490
4488
4300
ENDCHAR
STARTCHAR 307C
ENCODING 12412
SWIDTH 960 0
DWIDTH 16 0
BBX 14 14 2 -2
BITMAP
0008
4024
4FD0
4100
8100
8100
8FE0
8100
8100
8100
A7C0
A920
4910
4600
ENDCHAR
STARTCHAR 307D
ENCODING 12413
SWIDTH 960 0
DWIDTH 16 0
BBX 14 14 2 -2
BITMAP
0008
4014
4FE8
4100
8100
8100
8FE0
8100
8100
8100
A7C0
A920
4910
4600
ENDCHAR
STARTCHAR 307E
ENCODING 12414
SWIDTH 960 0
DWIDTH 16 0
BBX 8 13 4 -1
BITMAP
08
08
0F
F8
08
0F
F8
08
08
7C
8A
89
70
ENDCHAR
STARTCHAR 307F
ENCODING 12415
SWIDTH 960 0
DWIDTH 16 0
BBX 12 11 2 0
BITMAP
0180
3F00
0200
0220
0420
3F40
44C0
8860
8890
9080
6100
ENDCHAR
STARTCHAR 3080
ENCODING 12416
SWIDTH 960 0
DWIDTH 16 0
BBX 12 13 2 -1
BITMAP
1000
1000
FC40
1020
1010
7000
9000
9000
9020
6020
2020
2040
1F80
ENDCHAR
STARTCHAR 3081
ENCODING 12417
SWIDTH 960 0
DWIDTH 16 0
BBX 12 13 2 -1
BITMAP
0100
0100
4100
4FC0
3220
2210
5410
9410
8810
8810
9420
6240
0080
ENDCHAR
STARTCHAR 3082
ENCODING 12418
SWIDTH 960 0
DWIDTH 16 0
BBX 11 12 2 0
BITMAP
0400
0800
0800
7F00
1000
1000
FE40
1020
1020
1020
0840
0780
ENDCHAR
STARTCHAR 3083
ENCODING 12419
SWIDTH 960 0
DWIDTH 16 0
BBX 11 11 3 2
BITMAP
0800
4400
47C0
3A20
E220
1040
1180
0800
0800
0400
0400
ENDCHAR
STARTCHAR 3084
ENCODING 12420
SWIDTH 960 0
DWIDTH 16 0
BBX 14 11 1 1
BITMAP
0400
2200
23F0
1D08
3004
C804
0808
0470
0400
0200
0200
ENDCHAR
STARTCHAR 3085
ENCODING 12421
SWIDTH 960 0
DWIDTH 16 0
BBX 10 11 4 1
BITMAP
0400
8400
9F00
A480
C440
C440
8440
9480
8F00
0800
0800
ENDCHAR
STARTCHAR 3086
ENCODING 12422
SWIDTH 960 0
DWIDTH 16 0
BBX 12 12 2 0
BITMAP
8100
8100
87C0
8920
9110
A110
A110
4910
4620
43C0
4200
0400
ENDCHAR
STARTCHAR 3087
ENCODING 12423
SWIDTH 960 0
DWIDTH 16 0
BBX 8 10 4 2
BITMAP
08
08
0F
08
08
08
78
8E
89
70
ENDCHAR
STARTCHAR 3088
ENCODING 12424
SWIDTH 960 0
DWIDTH 16 0
BBX 11 13 3 -1
BITMAP
0400
0400
0400
0460
0780
0400
0400
0400
0400
7E00
8580
8440
7800
ENDCHAR
STARTCHAR 3089
ENCODING 12425
SWIDTH 960 0
DWIDTH 16 0
BBX 8 13 5 -1
BITMAP
C0
20
00
80
80
80
BC
C2
81
01
01
02
1C
ENDCHAR
STARTCHAR 308A
ENCODING 12426
SWIDTH 960 0
DWIDTH 16 0
BBX 7 13 5 -1
BITMAP
04
84
82
82
82
A2
C2
C2
84
84
04
08
10
ENDCHAR
STARTCHAR 308B
ENCODING 12427
SWIDTH 960 0
DWIDTH 16 0
BBX 10 12 4 0
BITMAP
FE00
0400
0800
1000
3E00
4180
8040
0040
3840
4480
4700
3C00
ENDCHAR
STARTCHAR 308C
ENCODING 12428
SWIDTH 960 0
DWIDTH 16 0
BBX 14 13 1 -1
BITMAP
0800
0800
0C00
1C00
69C0
0E20
1820
1020
3020
5024
9024
1018
1000
ENDCHAR
STARTCHAR 308D
ENCODING 12429
SWIDTH 960 0
DWIDTH 16 0
BBX 9 12 4 0
BITMAP
FE00
0400
0800
1000
3E00
4100
8080
0080
0080
0080
0100
1E00
ENDCHAR
STARTCHAR 308E
ENCODING 12430
SWIDTH 960 0
DWIDTH 16 0
BBX 11 10 3 2
BITMAP
1000
1000
1800
F780
1840
1020
3020
5020
9040
1180
ENDCHAR
STARTCHAR 308F
ENCODING 12431
SWIDTH 960 0
DWIDTH 16 0
BBX 14 13 1 -1
BITMAP
0800
0800
0800
0C00
7DF0
0A08
1C04
1804
2804
2804
4808
8810
0820
ENDCHAR
STARTCHAR 3090
ENCODING 12432
SWIDTH 960 0
DWIDTH 16 0
BBX 12 13 2 -1
BITMAP
0700
3900
0200
0200
0FC0
1420
2410
4810
4810
8B10
9490
9460
63C0
ENDCHAR
STARTCHAR 3091
ENCODING 12433
SWIDTH 960 0
DWIDTH 16 0
BBX 12 12 3 0
BITMAP
3E00
0400
0F00
1080
2040
4C40
1280
0F00
1000
39C0
4620
8410
ENDCHAR
STARTCHAR 3092
ENCODING 12434
SWIDTH 960 0
DWIDTH 16 0
BBX 12 13 2 -1
BITMAP
0800
0800
0800
FF00
1000
1C00
22F0
2300
4500
0900
1100
1000
0FC0
ENDCHAR
STARTCHAR 3093
ENCODING 12435
SWIDTH 960 0
DWIDTH 16 0
BBX 12 12 2 0
BITMAP
0400
0400
0800
0800
1000
1000
2E00
3100
6110
4110
8120
80C0
ENDCHAR
STARTCHAR 30A1
ENCODING 12449
SWIDTH 960 0
DWIDTH 16 0
BBX 9 9 5 3
BITMAP
FF80
0080
1100
1200
1000
1000
2000
2000
4000
ENDCHAR
STARTCHAR 30A2
ENCODING 12450
SWIDTH 960 0
DWIDTH 16 0
BBX 12 12 2 0
BITMAP
FFF0
0010
0020
0440
0480
0400
0400
0400
0800
0800
1000
2000
ENDCHAR
STARTCHAR 30A3
ENCODING 12451
SWIDTH 960 0
DWIDTH 16 0
BBX 9 10 4 2
BITMAP
0080
0100
0200
0C00
3400
C400
0400
0400
0400
0400
ENDCHAR
STARTCHAR 30A4
ENCODING 12452
SWIDTH 960 0
DWIDTH 16 0
BBX 10 12 3 0
BITMAP
0040
0080
0100
0200
0C00
3400
C400
0400
0400
0400
0400
0400
ENDCHAR
STARTCHAR 30A5
ENCODING 12453
SWIDTH 960 0
DWIDTH 16 0
BBX 9 10 4 2
BITMAP
0800
0800
FF80
8080
8080
0080
0100
0100
0200
0400
ENDCHAR
STARTCHAR 30A6
ENCODING 12454
SWIDTH 960 0
DWIDTH 16 0
BBX 10 12 3 0
BITMAP
0400
0400
FFC0
8040
8040
8040
0040
0080
0080
0100
0200
0C00
ENDCHAR
STARTCHAR 30A7
ENCODING 12455
SWIDTH 960 0
DWIDTH 16 0
BBX 10 7 3 4
BITMAP
7F80
0400
0400
0400
0400
0400
FFC0
ENDCHAR
STARTCHAR 30A8
ENCODING 12456
SWIDTH 960 0
DWIDTH 16 0
BBX 13 8 2 2
BITMAP
3FE0
0200
0200
0200
0200
0200
0200
FFF8
ENDCHAR
STARTCHAR 30A9
ENCODING 12457
SWIDTH 960 0
DWIDTH 16 0
BBX 9 9 4 3
BITMAP
0400
0400
FF80
0C00
1400
2400
4400
8400
1800
ENDCHAR
STARTCHAR 30AA
ENCODING 12458
SWIDTH 960 0
DWIDTH 16 0
BBX 12 12 2 0
BITMAP
0100
0100
0100
FFF0
0300
0500
0900
1100
2100
C100
0100
0600
ENDCHAR
STARTCHAR 30AB
ENCODING 12459
SWIDTH 960 0
DWIDTH 16 0
BBX 10 12 3 0
BITMAP
0800
0800
0800
FFC0
0840
0840
0840
1040
1040
2080
4080
8300
ENDCHAR
STARTCHAR 30AC
ENCODING 12460
SWIDTH 960 0
DWIDTH 16 0
BBX 13 13 3 -1
BITMAP
0010
0848
0820
0800
FFC0
0840
0840
0840
1040
1040
2080
4080
8300
ENDCHAR
STARTCHAR 30AD
ENCODING 12461
SWIDTH 960 0
DWIDTH 16 0
BBX 12 12 2 0
BITMAP
0800
0800
09C0
0E00
7400
0470
0780
FA00
0200
0100
0100
0100
ENDCHAR
STARTCHAR 30AE
ENCODING 12462
SWIDTH 960 0
DWIDTH 16 0
BBX 14 13 2 -1
BITMAP
0008
0824
0810
09C0
0E00
7400
0470
0780
FA00
0200
0100
0100
0100
ENDCHAR
STARTCHAR 30AF
ENCODING 12463
SWIDTH 960 0
DWIDTH 16 0
BBX 10 12 3 0
BITMAP
0800
0800
0FC0
1040
2040
4080
0080
0100
0200
0400
1800
E000
ENDCHAR
STARTCHAR 30B0
ENCODING 12464
SWIDTH 960 0
DWIDTH 16 0
BBX 14 13 2 -1
BITMAP
0008
0824
0810
0FC0
1040
2040
4080
0080
0100
0200
0400
1800
E000
ENDCHAR
STARTCHAR 30B1
ENCODING 12465
SWIDTH 960 0
DWIDTH 16 0
BBX 12 12 2 0
BITMAP
0800
0800
1000
1FF0
2100
4100
8100
0100
0200
0200
0400
0800
ENDCHAR
STARTCHAR 30B2
ENCODING 12466
SWIDTH 960 0
DWIDTH 16 0
BBX 14 13 2 -1
BITMAP
0008
0824
0810
1000
1FF0
2100
4100
8100
0100
0200
0200
0400
0800
ENDCHAR
STARTCHAR 30B3
ENCODING 12467
SWIDTH 960 0
DWIDTH 16 0
BBX 10 9 3 2
BITMAP
FFC0
0040
0040
0040
0040
0040
0040
FFC0
0040
ENDCHAR
STARTCHAR 30B4
ENCODING 12468
SWIDTH 960 0
DWIDTH 16 0
BBX 14 12 2 -1
BITMAP
0008
0024
0010
FFC0
0040
0040
0040
0040
0040
0040
FFC0
0040
ENDCHAR
STARTCHAR 30B5
ENCODING 12469
SWIDTH 960 0
DWIDTH 16 0
BBX 14 12 1 0
BITMAP
0840
0840
0840
FFFC
0840
0840
0840
0840
0080
0080
0100
0200
ENDCHAR
STARTCHAR 30B6
ENCODING 12470
SWIDTH 960 0
DWIDTH 16 0
BBX 15 14 1 -2
BITMAP
0004
0012
0848
0840
0840
FFFC
0840
0840
0840
0840
0080
0080
0100
0200
ENDCHAR
STARTCHAR 30B7
ENCODING 12471
SWIDTH 960 0
DWIDTH 16 0
BBX 13 10 2 1
BITMAP
1000
0800
8400
4008
2010
0020
0040
0180
0600
7800
ENDCHAR
STARTCHAR 30B8
ENCODING 12472
SWIDTH 960 0
DWIDTH 16 0
BBX 13 11 2 0
BITMAP
1010
0848
0420
8000
4008
2010
0020
0040
0180
0600
7800
ENDCHAR
STARTCHAR 30B9
ENCODING 12473
SWIDTH 960 0
DWIDTH 16 0
BBX 12 10 3 1
BITMAP
7FC0
0040
0080
0080
0100
0300
0480
0840
3020
C010
ENDCHAR
STARTCHAR 30BA
ENCODING 12474
SWIDTH 960 0
DWIDTH 16 0
BBX 14 13 2 -2
BITMAP
0008
0024
0010
7FC0
0040
0080
0080
0100
0300
0480
0840
3020
C010
ENDCHAR
STARTCHAR 30BB
ENCODING 12475
SWIDTH 960 0
DWIDTH 16 0
BBX 12 12 2 0
BITMAP
0800
0800
0800
08F0
0F10
F820
0840
0880
0800
0800
0800
07F0
ENDCHAR
STARTCHAR 30BC
ENCODING 12476
SWIDTH 960 0
DWIDTH 16 0
BBX 14 13 1 -1
BITMAP
0008
0824
0810
0800
08F0
0F10
F820
0840
0880
0800
0800
0800
07F0
ENDCHAR
STARTCHAR 30BD
ENCODING 12477
SWIDTH 960 0
DWIDTH 16 0
BBX 10 10 3 1
BITMAP
8040
4040
2040
2080
0080
0100
0200
0400
0800
3000
ENDCHAR
STARTCHAR 30BE
ENCODING 12478
SWIDTH 960 0
DWIDTH 16 0
BBX 13 14 2 -2
BITMAP
0010
0048
0020
8000
4040
2040
2040
0080
0080
0100
0200
0400
0800
3000
ENDCHAR
STARTCHAR 30BF
ENCODING 12479
SWIDTH 960 0
DWIDTH 16 0
BBX 10 12 3 0
BITMAP
0800
0800
0FC0
1040
2040
4880
0500
0200
0500
0880
3000
C000
ENDCHAR
STARTCHAR 30C0
ENCODING 12480
SWIDTH 960 0
DWIDTH 16 0
BBX 13 14 3 -2
BITMAP
0010
0048
0820
0800
0FC0
1040
2040
4880
0500
0200
0500
0880
3000
C000
ENDCHAR
STARTCHAR 30C1
ENCODING 12481
SWIDTH 960 0
DWIDTH 16 0
BBX 12 12 2 0
BITMAP
01C0
3E00
0200
0200
0200
FFF0
0200
0200
0400
0400
0800
3000
ENDCHAR
STARTCHAR 30C2
ENCODING 12482
SWIDTH 960 0
DWIDTH 16 0
BBX 14 13 2 -1
BITMAP
0008
01C4
3E10
0208
0200
0200
FFF0
0200
0200
0400
0400
0800
3000
ENDCHAR
STARTCHAR 30C3
ENCODING 12483
SWIDTH 960 0
DWIDTH 16 0
BBX 9 8 4 4
BITMAP
1080
8880
4100
0100
0200
0400
1800
6000
ENDCHAR
STARTCHAR 30C4
ENCODING 12484
SWIDTH 960 0
DWIDTH 16 0
BBX 11 12 2 0
BITMAP
0800
8420
4220
2220
2020
0040
0040
0080
0100
0200
0400
1800
ENDCHAR
STARTCHAR 30C5
ENCODING 12485
SWIDTH 960 0
DWIDTH 16 0
BBX 14 14 2 -2
BITMAP
0008
0024
0010
0800
8420
4420
4020
0040
0040
0080
0100
0200
0400
1800
ENDCHAR
STARTCHAR 30C6
ENCODING 12486
SWIDTH 960 0
DWIDTH 16 0
BBX 12 11 2 1
BITMAP
3FC0
0000
0000
FFF0
0200
0200
0200
0400
0400
0800
3000
ENDCHAR
STARTCHAR 30C7
ENCODING 12487
SWIDTH 960 0
DWIDTH 16 0
BBX 14 13 2 -1
BITMAP
0008
0004
3F90
0008
0000
FFE0
0200
0200
0200
0400
0400
0800
3000
ENDCHAR
STARTCHAR 30C8
ENCODING 12488
SWIDTH 960 0
DWIDTH 16 0
BBX 4 12 7 0
BITMAP
80
80
80
80
C0
A0
90
80
80
80
80
80
ENDCHAR
STARTCHAR 30C9
ENCODING 12489
SWIDTH 960 0
DWIDTH 16 0
BBX 7 13 7 -1
BITMAP
04
82
88
84
80
C0
A0
90
80
80
80
80
80
ENDCHAR
STARTCHAR 30CA
ENCODING 12490
SWIDTH 960 0
DWIDTH 16 0
BBX 12 12 2 0
BITMAP
0200
0200
0200
FFF0
0200
0200
0200
0400
0400
0800
1000
6000
ENDCHAR
STARTCHAR 30CB
ENCODING 12491
SWIDTH 960 0
DWIDTH 16 0
BBX 12 8 2 2
BITMAP
3FC0
0000
0000
0000
0000
0000
0000
FFF0
ENDCHAR
STARTCHAR 30CC
ENCODING 12492
SWIDTH 960 0
DWIDTH 16 0
BBX 10 12 3 0
BITMAP
7F80
0080
0080
2100
1900
0600
0300
0480
0840
1000
2000
C000
ENDCHAR
STARTCHAR 30CD
ENCODING 12493
SWIDTH 960 0
DWIDTH 16 0
BBX 10 12 3 0
BITMAP
0400
0400
7F80
0100
0200
0400
0D00
3480
C440
0400
0400
0400
ENDCHAR
STARTCHAR 30CE
ENCODING 12494
SWIDTH 960 0
DWIDTH 16 0
BBX 9 11 3 0
BITMAP
0080
0080
0080
0100
0100
0200
0200
0400
0800
3000
C000
ENDCHAR
STARTCHAR 30CF
ENCODING 12495
SWIDTH 960 0
DWIDTH 16 0
BBX 12 8 2 2
BITMAP
1080
1040
1020
2020
2010
4010
4010
8010
ENDCHAR
STARTCHAR 30D0
ENCODING 12496
SWIDTH 960 0
DWIDTH 16 0
BBX 14 11 2 -1
BITMAP
0008
0004
0010
1008
1080
1040
2020
2020
4010
4010
8010
ENDCHAR
STARTCHAR 30D1
ENCODING 12497
SWIDTH 960 0
DWIDTH 16 0
BBX 13 10 2 0
BITMAP
0010
0028
1010
1080
1040
2020
2020
4010
4010
8010
ENDCHAR
STARTCHAR 30D2
ENCODING 12498
SWIDTH 960 0
DWIDTH 16 0
BBX 9 11 4 0
BITMAP
8000
8000
8000
8600
9800
E000
8000
8000
8000
8000
7F80
ENDCHAR
STARTCHAR 30D3
ENCODING 12499
SWIDTH 960 0
DWIDTH 16 0
BBX 12 12 4 -1
BITMAP
0020
8090
8040
8000
8600
9800
E000
8000
8000
8000
8000
7F80
ENDCHAR
STARTCHAR 30D4
ENCODING 12500
SWIDTH 960 0
DWIDTH 16 0
BBX 11 12 4 -1
BITMAP
0040
80A0
8040
8000
8600
9800
E000
8000
8000
8000
8000
7F80
ENDCHAR
STARTCHAR 30D5
ENCODING 12501
SWIDTH 960 0
DWIDTH 16 0
BBX 10 11 3 1
BITMAP
FFC0
0040
0040
0040
0080
0080
0100
0200
0400
0800
3000
ENDCHAR
STARTCHAR 30D6
ENCODING 12502
SWIDTH 960 0
DWIDTH 16 0
BBX 14 14 2 -2
BITMAP
0008
0024
0010
FFC0
0040
0040
0040
0080
0080
0100
0200
0400
0800
3000
ENDCHAR
STARTCHAR 30D7
ENCODING 12503
SWIDTH 960 0
DWIDTH 16 0
BBX 14 14 2 -2
BITMAP
0008
0014
0008
FFC0
0040
0040
0040
0080
0080
0100
0200
0400
0800
3000
ENDCHAR
STARTCHAR 30D8
ENCODING 12504
SWIDTH 960 0
DWIDTH 16 0
BBX 14 6 1 2
BITMAP
0C00
1200
2100
4080
8060
001C
ENDCHAR
STARTCHAR 30D9
ENCODING 12505
SWIDTH 960 0
DWIDTH 16 0
BBX 14 9 1 -1
BITMAP
0020
0090
0040
0C00
1200
2100
4080
8060
001C
ENDCHAR
STARTCHAR 30DA
ENCODING 12506
SWIDTH 960 0
DWIDTH 16 0
BBX 14 8 1 0
BITMAP
0020
0050
0C20
1200
2100
4080
8060
001C
ENDCHAR
STARTCHAR 30DB
ENCODING 12507
SWIDTH 960 0
DWIDTH 16 0
BBX 12 12 2 0
BITMAP
0200
0200
0200
FFF0
0200
0200
2240
2220
4210
8210
0200
0C00
ENDCHAR
STARTCHAR 30DC
ENCODING 12508
SWIDTH 960 0
DWIDTH 16 0
BBX 12 14 2 -2
BITMAP
0020
0010
0240
0220
0200
FFF0
0200
0200
2240
2220
4210
8210
0200
0C00
ENDCHAR
STARTCHAR 30DD
ENCODING 12509
SWIDTH 960 0
DWIDTH 16 0
BBX 13 13 2 -1
BITMAP
0010
0228
0210
0200
FFF0
0200
0200
2240
2220
4210
8210
0200
0C00
ENDCHAR
STARTCHAR 30DE
ENCODING 12510
SWIDTH 960 0
DWIDTH 16 0
BBX 12 8 2 2
BITMAP
FFF0
0020
0040
0080
0900
0600
0200
0100
ENDCHAR
STARTCHAR 30DF
ENCODING 12511
SWIDTH 960 0
DWIDTH 16 0
BBX 7 12 5 0
BITMAP
60
18
04
00
C0
30
08
00
C0
30
0C
02
ENDCHAR
STARTCHAR 30E0
ENCODING 12512
SWIDTH 960 0
DWIDTH 16 0
BBX 12 11 2 0
BITMAP
0400
0400
0400
0400
0800
0800
1080
1040
2020
7FF0
8010
ENDCHAR
STARTCHAR 30E1
ENCODING 12513
SWIDTH 960 0
DWIDTH 16 0
BBX 10 11 2 0
BITMAP
0040
0040
0040
0880
0480
0300
0300
0480
0880
3000
C000
ENDCHAR
STARTCHAR 30E2
ENCODING 12514
SWIDTH 960 0
DWIDTH 16 0
BBX 12 10 2 1
BITMAP
3FE0
0400
0400
0400
FFF0
0400
0400
0400
0400
03F0
ENDCHAR
STARTCHAR 30E3
ENCODING 12515
SWIDTH 960 0
DWIDTH 16 0
BBX 10 11 3 2
BITMAP
1000
1000
13C0
FC40
1080
0900
0800
0800
0400
0400
0400
ENDCHAR
STARTCHAR 30E4
ENCODING 12516
SWIDTH 960 0
DWIDTH 16 0
BBX 12 13 2 0
BITMAP
1000
1000
11F0
1E10
E820
0840
0480
0400
0400
0400
0200
0200
0200
ENDCHAR
STARTCHAR 30E5
ENCODING 12517
SWIDTH 960 0
DWIDTH 16 0
BBX 10 7 3 4
BITMAP
3F00
0100
0100
0100
0100
0100
FFC0
ENDCHAR
STARTCHAR 30E6
ENCODING 12518
SWIDTH 960 0
DWIDTH 16 0
BBX 13 9 2 1
BITMAP
3F80
0080
0080
0080
0080
0080
0080
0080
FFF8
ENDCHAR
STARTCHAR 30E7
ENCODING 12519
SWIDTH 960 0
DWIDTH 16 0
BBX 8 8 4 3
BITMAP
FF
01
01
FF
01
01
FF
01
ENDCHAR
STARTCHAR 30E8
ENCODING 12520
SWIDTH 960 0
DWIDTH 16 0
BBX 9 10 3 1
BITMAP
FF80
0080
0080
0080
FF80
0080
0080
0080
FF80
0080
ENDCHAR
STARTCHAR 30E9
ENCODING 12521
SWIDTH 960 0
DWIDTH 16 0
BBX 9 11 3 0
BITMAP
3F00
0000
0000
FF80
0080
0080
0100
0100
0200
0400
1800
ENDCHAR
STARTCHAR 30EA
ENCODING 12522
SWIDTH 960 0
DWIDTH 16 0
BBX 7 12 5 0
BITMAP
82
82
82
82
82
82
82
82
04
04
08
10
ENDCHAR
STARTCHAR 30EB
ENCODING 12523
SWIDTH 960 0
DWIDTH 16 0
BBX 13 10 2 1
BITMAP
1200
1200
1200
1200
1200
1208
2210
2220
4240
8380
ENDCHAR
STARTCHAR 30EC
ENCODING 12524
SWIDTH 960 0
DWIDTH 16 0
BBX 10 11 3 0
BITMAP
8000
8000
8000
8000
8000
8040
8080
8100
8600
9800
E000
ENDCHAR
STARTCHAR 30ED
ENCODING 12525
SWIDTH 960 0
DWIDTH 16 0
BBX 9 10 4 1
BITMAP
FF80
8080
8080
8080
8080
8080
8080
8080
FF80
8080
ENDCHAR
STARTCHAR 30EE
ENCODING 12526
SWIDTH 960 0
DWIDTH 16 0
BBX 9 8 4 3
BITMAP
FF80
8080
8080
8080
0100
0100
0200
0400
ENDCHAR
STARTCHAR 30EF
ENCODING 12527
SWIDTH 960 0
DWIDTH 16 0
BBX 10 11 3 0
BITMAP
FFC0
8040
8040
8040
8040
8040
0080
0080
0100
0200
0400
ENDCHAR
STARTCHAR 30F0
ENCODING 12528
SWIDTH 960 0
DWIDTH 16 0
BBX 12 13 2 -1
BITMAP
0100
0100
0100
FFE0
2100
2100
2100
2100
FFF0
0100
0100
0100
0100
ENDCHAR
STARTCHAR 30F1
ENCODING 12529
SWIDTH 960 0
DWIDTH 16 0
BBX 13 9 2 1
BITMAP
7FE0
0020
0040
0480
0500
0400
0400
0400
FFF8
ENDCHAR
STARTCHAR 30F2
ENCODING 12530
SWIDTH 960 0
DWIDTH 16 0
BBX 10 11 3 0
BITMAP
FFC0
0040
0040
0040
FF80
0080
0100
0200
0400
0800
3000
ENDCHAR
STARTCHAR 30F3
ENCODING 12531
SWIDTH 960 0
DWIDTH 16 0
BBX 11 10 3 1
BITMAP
4000
2000
1000
0020
0040
0080
0100
0600
1800
E000
ENDCHAR
STARTCHAR 30F4
ENCODING 12532
SWIDTH 960 0
DWIDTH 16 0
BBX 13 14 3 -2
BITMAP
0010
0008
0420
0410
FFC0
8040
8040
8040
8040
0080
0080
0100
0200
0400
ENDCHAR
STARTCHAR 30F5
ENCODING 12533
SWIDTH 960 0
DWIDTH 16 0
BBX 8 9 4 2
BITMAP
10
10
FF
11
11
11
21
21
46
ENDCHAR
STARTCHAR 30F6
ENCODING 12534
SWIDTH 960 0
DWIDTH 16 0
BBX 10 9 3 2
BITMAP
1000
1000
2000
3FC0
4200
8200
0400
0400
0800
ENDCHAR
STARTCHAR 3131
ENCODING 12593
SWIDTH 960 0
DWIDTH 16 0
BBX 9 7 3 3
BITMAP
FF00
0080
0080
0080
0080
0080
0080
ENDCHAR
STARTCHAR 3132
ENCODING 12594
SWIDTH 960 0
DWIDTH 16 0
BBX 11 7 2 3
BITMAP
F3C0
0820
0820
0820
0820
0820
0820
ENDCHAR
STARTCHAR 3133
ENCODING 12595
SWIDTH 960 0
DWIDTH 16 0
BBX 12 7 2 3
BITMAP
F080
0880
0880
0940
0940
0A20
0C10
ENDCHAR
STARTCHAR 3134
ENCODING 12596
SWIDTH 960 0
DWIDTH 16 0
BBX 9 7 4 3
BITMAP
8000
8000
8000
8000
8000
8000
7F80
ENDCHAR
STARTCHAR 3135
ENCODING 12597
SWIDTH 960 0
DWIDTH 16 0
BBX 12 7 2 3
BITMAP
87F0
8080
8080
8140
8140
8220
7C10
ENDCHAR
STARTCHAR 3136
ENCODING 12598
SWIDTH 960 0
DWIDTH 16 0
BBX 12 8 2 2
BITMAP
03C0
8000
8FF0
8000
83C0
8420
8420
7BC0
ENDCHAR
STARTCHAR 3137
ENCODING 12599
SWIDTH 960 0
DWIDTH 16 0
BBX 9 7 4 3
BITMAP
7F80
8000
8000
8000
8000
8000
7F80
ENDCHAR
STARTCHAR 3138
ENCODING 12600
SWIDTH 960 0
DWIDTH 16 0
BBX 11 7 3 3
BITMAP
79E0
8200
8200
8200
8200
8200
79E0
ENDCHAR
STARTCHAR 3139
ENCODING 12601
SWIDTH 960 0
DWIDTH 16 0
BBX 8 7 4 3
BITMAP
FE
01
01
7E
80
80
7F
ENDCHAR
STARTCHAR 313A
ENCODING 12602
SWIDTH 960 0
DWIDTH 16 0
BBX 11 7 3 3
BITMAP
F3C0
0820
0820
7020
8020
8020
7C20
ENDCHAR
STARTCHAR 313B
ENCODING 12603
SWIDTH 960 0
DWIDTH 16 0
BBX 11 7 3 3
BITMAP
F3E0
0A20
0A20
7220
8220
8220
7BE0
ENDCHAR
STARTCHAR 313C
ENCODING 12604
SWIDTH 960 0
DWIDTH 16 0
BBX 11 7 3 3
BITMAP
F220
0A20
0BE0
7220
8220
8220
79C0
ENDCHAR
STARTCHAR 313D
ENCODING 12605
SWIDTH 960 0
DWIDTH 16 0
BBX 12 7 3 3
BITMAP
F080
0880
0880
7080
8140
8220
7C10
ENDCHAR
STARTCHAR 313E
ENCODING 12606
SWIDTH 960 0
DWIDTH 16 0
BBX 11 7 3 3
BITMAP
F1E0
0A00
0A00
73E0
8200
8200
79E0
ENDCHAR
STARTCHAR 313F
ENCODING 12607
SWIDTH 960 0
DWIDTH 16 0
BBX 12 7 3 3
BITMAP
F3F0
0800
0920
7120
8120
8120
7BF0
ENDCHAR
STARTCHAR 3140
ENCODING 12608
SWIDTH 960 0
DWIDTH 16 0
BBX 13 7 2 3
BITMAP
F1E0
0800
0FF8
7000
81E0
8210
79E0
ENDCHAR
STARTCHAR 3141
ENCODING 12609
SWIDTH 960 0
DWIDTH 16 0
BBX 9 7 4 3
BITMAP
FF80
8080
8080
8080
8080
8080
FF80
ENDCHAR
STARTCHAR 3142
ENCODING 12610
SWIDTH 960 0
DWIDTH 16 0
BBX 9 7 4 3
BITMAP
8080
8080
FF80
8080
8080
8080
7F00
ENDCHAR
STARTCHAR 3143
ENCODING 12611
SWIDTH 960 0
DWIDTH 16 0
BBX 11 7 3 3
BITMAP
8A20
8A20
FBE0
8A20
8A20
8A20
71C0
ENDCHAR
STARTCHAR 3144
ENCODING 12612
SWIDTH 960 0
DWIDTH 16 0
BBX 12 7 3 3
BITMAP
8880
8880
F880
8940
8940
8A20
7410
ENDCHAR
STARTCHAR 3145
ENCODING 12613
SWIDTH 960 0
DWIDTH 16 0
BBX 11 7 3 3
BITMAP
0400
0400
0400
0A00
1100
2080
C060
ENDCHAR
STARTCHAR 3146
ENCODING 12614
SWIDTH 960 0
DWIDTH 16 0
BBX 12 7 2 3
BITMAP
1080
1080
1080
2940
2940
4620
8410
ENDCHAR
STARTCHAR 3147
ENCODING 12615
SWIDTH 960 0
DWIDTH 16 0
BBX 10 7 3 3
BITMAP
3F00
4080
8040
8040
8040
4080
3F00
ENDCHAR
STARTCHAR 3148
ENCODING 12616
SWIDTH 960 0
DWIDTH 16 0
BBX 11 7 2 3
BITMAP
7FC0
0400
0400
0A00
1100
2080
C060
ENDCHAR
STARTCHAR 3149
ENCODING 12617
SWIDTH 960 0
DWIDTH 16 0
BBX 11 7 3 3
BITMAP
FBE0
2080
2080
2080
5140
5140
8A20
ENDCHAR
STARTCHAR 314A
ENCODING 12618
SWIDTH 960 0
DWIDTH 16 0
BBX 11 8 3 2
BITMAP
1F00
0000
7FC0
0400
0400
0A00
3180
C060
ENDCHAR
STARTCHAR 314B
ENCODING 12619
SWIDTH 960 0
DWIDTH 16 0
BBX 9 7 4 3
BITMAP
FF00
0080
0080
FF80
0080
0080
0080
ENDCHAR
STARTCHAR 314C
ENCODING 12620
SWIDTH 960 0
DWIDTH 16 0
BBX 9 7 4 3
BITMAP
7F80
8000
8000
FF80
8000
8000
7F80
ENDCHAR
STARTCHAR 314D
ENCODING 12621
SWIDTH 960 0
DWIDTH 16 0
BBX 10 7 4 3
BITMAP
FFC0
0000
2100
2100
2100
2100
FFC0
ENDCHAR
STARTCHAR 314E
ENCODING 12622
SWIDTH 960 0
DWIDTH 16 0
BBX 11 8 3 2
BITMAP
1F00
0000
FFE0
0000
1F00
2080
2080
1F00
ENDCHAR
STARTCHAR 314F
ENCODING 12623
SWIDTH 960 0
DWIDTH 16 0
BBX 5 14 7 -1
BITMAP
80
80
80
80
80
80
F8
80
80
80
80
80
80
80
ENDCHAR
STARTCHAR 3150
ENCODING 12624
SWIDTH 960 0
DWIDTH 16 0
BBX 5 14 6 -1
BITMAP
08
88
88
88
88
88
F8
88
88
88
88
88
88
08
ENDCHAR
STARTCHAR 3151
ENCODING 12625
SWIDTH 960 0
DWIDTH 16 0
BBX 5 14 7 -1
BITMAP
80
80
80
F8
80
80
80
80
F8
80
80
80
80
80
ENDCHAR
STARTCHAR 3152
ENCODING 12626
SWIDTH 960 0
DWIDTH 16 0
BBX 5 14 6 -1
BITMAP
08
88
88
88
F8
88
88
88
F8
88
88
88
88
08
ENDCHAR
STARTCHAR 3153
ENCODING 12627
SWIDTH 960 0
DWIDTH 16 0
BBX 6 14 5 -1
BITMAP
04
04
04
04
04
04
FC
04
04
04
04
04
04
04
ENDCHAR
STARTCHAR 3154
ENCODING 12628
SWIDTH 960 0
DWIDTH 16 0
BBX 8 14 4 -1
BITMAP
01
09
09
09
09
09
F9
09
09
09
09
09
09
01
ENDCHAR
STARTCHAR 3155
ENCODING 12629
SWIDTH 960 0
DWIDTH 16 0
BBX 5 14 5 -1
BITMAP
08
08
08
08
F8
08
08
08
F8
08
08
08
08
08
ENDCHAR
STARTCHAR 3156
ENCODING 12630
SWIDTH 960 0
DWIDTH 16 0
BBX 8 14 4 -1
BITMAP
01
09
09
09
F9
09
09
09
F9
09
09
09
09
01
ENDCHAR
STARTCHAR 3157
ENCODING 12631
SWIDTH 960 0
DWIDTH 16 0
BBX 14 6 1 3
BITMAP
0100
0100
0100
0100
0100
FFFC
ENDCHAR
STARTCHAR 3158
ENCODING 12632
SWIDTH 960 0
DWIDTH 16 0
BBX 15 14 1 -1
BITMAP
0010
0010
0010
0010
0810
0810
081E
0810
0810
08D0
FF10
0010
0010
0010
ENDCHAR
STARTCHAR 3159
ENCODING 12633
SWIDTH 960 0
DWIDTH 16 0
BBX 13 14 1 -1
BITMAP
0008
0048
0048
0048
1048
1048
1078
1048
1048
1348
FC48
0048
0048
0008
ENDCHAR
STARTCHAR 315A
ENCODING 12634
SWIDTH 960 0
DWIDTH 16 0
BBX 12 14 1 -1
BITMAP
0010
0010
0010
0010
0810
0810
0810
0810
0810
08D0
FF10
0010
0010
0010
ENDCHAR
STARTCHAR 315B
ENCODING 12635
SWIDTH 960 0
DWIDTH 16 0
BBX 14 6 1 3
BITMAP
0840
0840
0840
0840
0840
FFFC
ENDCHAR
STARTCHAR 315C
ENCODING 12636
SWIDTH 960 0
DWIDTH 16 0
BBX 14 8 1 4
BITMAP
FFFC
0100
0100
0100
0100
0100
0100
0100
ENDCHAR
STARTCHAR 315D
ENCODING 12637
SWIDTH 960 0
DWIDTH 16 0
BBX 12 14 1 -1
BITMAP
0010
0010
0010
0010
0010
0010
FFD0
0410
0410
04F0
0410
0810
0810
0010
ENDCHAR
STARTCHAR 315E
ENCODING 12638
SWIDTH 960 0
DWIDTH 16 0
BBX 13 14 1 -1
BITMAP
0008
0048
0048
0048
0048
0048
FF48
0848
0848
0BC8
0848
1048
1048
0008
ENDCHAR
STARTCHAR 315F
ENCODING 12639
SWIDTH 960 0
DWIDTH 16 0
BBX 12 14 1 -1
BITMAP
0010
0010
0010
0010
0010
0010
FFD0
0410
0410
0410
0410
0810
0810
0010
ENDCHAR
STARTCHAR 3160
ENCODING 12640
SWIDTH 960 0
DWIDTH 16 0
BBX 14 7 1 5
BITMAP
FFFC
0840
0840
0840
0840
0840
0840
ENDCHAR
STARTCHAR 3161
ENCODING 12641
SWIDTH 960 0
DWIDTH 16 0
BBX 14 1 1 5
BITMAP
FFFC
ENDCHAR
STARTCHAR 3162
ENCODING 12642
SWIDTH 960 0
DWIDTH 16 0
BBX 12 14 1 -1
BITMAP
0010
0010
0010
0010
0010
0010
0010
0010
0010
FFD0
0010
0010
0010
0010
ENDCHAR
STARTCHAR 3163
ENCODING 12643
SWIDTH 960 0
DWIDTH 16 0
BBX 1 14 8 -1
BITMAP
80
80
80
80
80
80
80
80
80
80
80
80
80
80
ENDCHAR
STARTCHAR 3164
ENCODING 12644
SWIDTH 960 0
DWIDTH 16 0
BBX 0 0 0 -2
BITMAP
ENDCHAR
STARTCHAR 3165
ENCODING 12645
SWIDTH 960 0
DWIDTH 16 0
BBX 11 7 3 3
BITMAP
8200
8200
8200
8200
8200
8200
79E0
ENDCHAR
STARTCHAR 3166
ENCODING 12646
SWIDTH 960 0
DWIDTH 16 0
BBX 11 7 3 3
BITMAP
81E0
8200
8200
8200
8200
8200
79E0
ENDCHAR
STARTCHAR 3167
ENCODING 12647
SWIDTH 960 0
DWIDTH 16 0
BBX 12 7 3 3
BITMAP
8080
8080
8080
8140
8140
8220
7C10
ENDCHAR
STARTCHAR 3168
ENCODING 12648
SWIDTH 960 0
DWIDTH 16 0
BBX 12 7 3 3
BITMAP
8080
8140
8140
8220
8220
8410
7FF0
ENDCHAR
STARTCHAR 3169
ENCODING 12649
SWIDTH 960 0
DWIDTH 16 0
BBX 13 7 2 3
BITMAP
EE20
1120
1120
6120
8150
8150
7988
ENDCHAR
STARTCHAR 316A
ENCODING 12650
SWIDTH 960 0
DWIDTH 16 0
BBX 11 7 3 3
BITMAP
F1E0
0A00
0A00
7200
8200
8200
79E0
ENDCHAR
STARTCHAR 316B
ENCODING 12651
SWIDTH 960 0
DWIDTH 16 0
BBX 14 7 2 3
BITMAP
E490
1490
1790
6490
84A8
84A8
7344
ENDCHAR
STARTCHAR 316C
ENCODING 12652
SWIDTH 960 0
DWIDTH 16 0
BBX 12 7 3 3
BITMAP
F080
0940
0940
7220
8220
8410
7FF0
ENDCHAR
STARTCHAR 316D
ENCODING 12653
SWIDTH 960 0
DWIDTH 16 0
BBX 12 7 2 3
BITMAP
F3F0
0800
0800
71E0
8210
8210
79E0
ENDCHAR
STARTCHAR 316E
ENCODING 12654
SWIDTH 960 0
DWIDTH 16 0
BBX 11 7 3 3
BITMAP
FA20
8A20
8BE0
8A20
8A20
8A20
F9C0
ENDCHAR
STARTCHAR 316F
ENCODING 12655
SWIDTH 960 0
DWIDTH 16 0
BBX 12 7 3 3
BITMAP
F880
8880
8880
8940
8940
8A20
FC10
ENDCHAR
STARTCHAR 3170
ENCODING 12656
SWIDTH 960 0
DWIDTH 16 0
BBX 13 7 2 3
BITMAP
F840
88A0
88A0
8910
8910
8A08
FBF8
ENDCHAR
STARTCHAR 3171
ENCODING 12657
SWIDTH 960 0
DWIDTH 16 0
BBX 9 13 4 -1
BITMAP
FF80
8080
8080
8080
FF80
0000
0800
1C00
2200
4100
4100
2200
1C00
ENDCHAR
STARTCHAR 3172
ENCODING 12658
SWIDTH 960 0
DWIDTH 16 0
BBX 11 7 3 3
BITMAP
8BC0
8820
F820
8820
8820
8820
7020
ENDCHAR
STARTCHAR 3173
ENCODING 12659
SWIDTH 960 0
DWIDTH 16 0
BBX 11 7 3 3
BITMAP
89E0
8A00
FA00
8A00
8A00
8A00
71E0
ENDCHAR
STARTCHAR 3174
ENCODING 12660
SWIDTH 960 0
DWIDTH 16 0
BBX 12 7 2 3
BITMAP
92E0
9210
F210
9210
9510
9510
6890
ENDCHAR
STARTCHAR 3175
ENCODING 12661
SWIDTH 960 0
DWIDTH 16 0
BBX 13 7 2 3
BITMAP
9238
9240
F240
9240
9540
9540
68B8
ENDCHAR
STARTCHAR 3176
ENCODING 12662
SWIDTH 960 0
DWIDTH 16 0
BBX 11 7 3 3
BITMAP
8BE0
8880
F880
8880
8940
8940
7220
ENDCHAR
STARTCHAR 3177
ENCODING 12663
SWIDTH 960 0
DWIDTH 16 0
BBX 11 7 3 3
BITMAP
89E0
8A00
FA00
8BE0
8A00
8A00
71E0
ENDCHAR
STARTCHAR 3178
ENCODING 12664
SWIDTH 960 0
DWIDTH 16 0
BBX 9 13 4 -1
BITMAP
8080
FF80
8080
8080
7F00
0000
0800
1C00
2200
4100
4100
2200
1C00
ENDCHAR
STARTCHAR 3179
ENCODING 12665
SWIDTH 960 0
DWIDTH 16 0
BBX 11 13 3 -1
BITMAP
8A20
FBE0
8A20
8A20
71C0
0000
0400
0E00
1100
2080
2080
1100
0E00
ENDCHAR
STARTCHAR 317A
ENCODING 12666
SWIDTH 960 0
DWIDTH 16 0
BBX 11 7 3 3
BITMAP
13C0
1020
1020
2820
2820
4420
8220
ENDCHAR
STARTCHAR 317B
ENCODING 12667
SWIDTH 960 0
DWIDTH 16 0
BBX 13 7 2 3
BITMAP
1080
1080
1080
2880
2880
4480
8278
ENDCHAR
STARTCHAR 317C
ENCODING 12668
SWIDTH 960 0
DWIDTH 16 0
BBX 13 7 2 3
BITMAP
1078
1080
1080
2880
2880
4480
8278
ENDCHAR
STARTCHAR 317D
ENCODING 12669
SWIDTH 960 0
DWIDTH 16 0
BBX 11 7 3 3
BITMAP
2220
2220
23E0
2220
5220
5220
89C0
ENDCHAR
STARTCHAR 317E
ENCODING 12670
SWIDTH 960 0
DWIDTH 16 0
BBX 13 7 2 3
BITMAP
11F0
1040
1040
28A0
28A0
4510
8208
ENDCHAR
STARTCHAR 317F
ENCODING 12671
SWIDTH 960 0
DWIDTH 16 0
BBX 7 8 5 2
BITMAP
10
10
28
28
44
44
82
FE
ENDCHAR
STARTCHAR 3180
ENCODING 12672
SWIDTH 960 0
DWIDTH 16 0
BBX 11 8 3 2
BITMAP
2080
71C0
8A20
8A20
8A20
8A20
8A20
71C0
ENDCHAR
STARTCHAR 3181
ENCODING 12673
SWIDTH 960 0
DWIDTH 16 0
BBX 9 8 4 2
BITMAP
0800
3E00
4100
8080
8080
8080
4100
3E00
ENDCHAR
STARTCHAR 3182
ENCODING 12674
SWIDTH 960 0
DWIDTH 16 0
BBX 11 8 3 2
BITMAP
2080
7080
8880
8880
8940
8940
8A20
7220
ENDCHAR
STARTCHAR 3183
ENCODING 12675
SWIDTH 960 0
DWIDTH 16 0
BBX 11 8 3 2
BITMAP
2080
7080
8940
8940
8940
8A20
8A20
73E0
ENDCHAR
STARTCHAR 3184
ENCODING 12676
SWIDTH 960 0
DWIDTH 16 0
BBX 9 13 4 -1
BITMAP
FF80
2200
2200
2200
FF80
0000
0800
1C00
2200
4100
4100
2200
1C00
ENDCHAR
STARTCHAR 3185
ENCODING 12677
SWIDTH 960 0
DWIDTH 16 0
BBX 11 8 3 2
BITMAP
71C0
0000
FBE0
0000
71C0
8A20
8A20
71C0
ENDCHAR
STARTCHAR 3186
ENCODING 12678
SWIDTH 960 0
DWIDTH 16 0
BBX 11 8 3 2
BITMAP
FFE0
0000
0000
1F00
2080
2080
2080
1F00
ENDCHAR
STARTCHAR 3187
ENCODING 12679
SWIDTH 960 0
DWIDTH 16 0
BBX 15 14 1 -1
BITMAP
0010
0010
0010
1210
121E
1210
1210
1210
121E
FFD0
0010
0010
0010
0010
ENDCHAR
STARTCHAR 3188
ENCODING 12680
SWIDTH 960 0
DWIDTH 16 0
BBX 13 14 1 -1
BITMAP
0008
0048
0048
2448
2478
2448
2448
2448
2478
FF48
0048
0048
0048
0008
ENDCHAR
STARTCHAR 3189
ENCODING 12681
SWIDTH 960 0
DWIDTH 16 0
BBX 12 14 1 -1
BITMAP
0010
0010
0010
1110
1110
1110
1110
1110
1110
FFF0
0010
0010
0010
0010
ENDCHAR
STARTCHAR 318A
ENCODING 12682
SWIDTH 960 0
DWIDTH 16 0
BBX 12 14 1 -1
BITMAP
0010
0010
0010
0010
0010
FFD0
1210
12F0
1210
1210
12F0
1210
1210
0010
ENDCHAR
STARTCHAR 318B
ENCODING 12683
SWIDTH 960 0
DWIDTH 16 0
BBX 13 14 1 -1
BITMAP
0008
0048
0048
0048
0048
FF48
2448
25C8
2448
25C8
2448
2448
0048
0008
ENDCHAR
STARTCHAR 318C
ENCODING 12684
SWIDTH 960 0
DWIDTH 16 0
BBX 12 14 1 -1
BITMAP
0010
0010
0010
0010
0010
FFF0
1110
1110
1110
1110
1110
1110
1110
0010
ENDCHAR
STARTCHAR 318D
ENCODING 12685
SWIDTH 960 0
DWIDTH 16 0
BBX 3 3 7 4
BITMAP
40
E0
40
ENDCHAR
STARTCHAR 318E
ENCODING 12686
SWIDTH 960 0
DWIDTH 16 0
BBX 8 14 5 -1
BITMAP
01
01
01
01
01
41
E1
41
01
01
01
01
01
01
ENDCHAR
STARTCHAR 3200
ENCODING 12800
SWIDTH 960 0
DWIDTH 16 0
BBX 15 13 1 -1
BITMAP
1010
2008
4004
4004
8FC2
8022
8022
8022
8022
4024
4004
2008
1010
ENDCHAR
STARTCHAR 3201
ENCODING 12801
SWIDTH 960 0
DWIDTH 16 0
BBX 15 13 1 -1
BITMAP
1010
2008
4004
4804
8802
8802
8802
8802
87E2
4004
4004
2008
1010
ENDCHAR
STARTCHAR 3202
ENCODING 12802
SWIDTH 960 0
DWIDTH 16 0
BBX 15 13 1 -1
BITMAP
1010
2008
4004
47E4
8802
8802
8802
8802
87E2
4004
4004
2008
1010
ENDCHAR
STARTCHAR 3203
ENCODING 12803
SWIDTH 960 0
DWIDTH 16 0
BBX 15 13 1 -1
BITMAP
1010
2008
4004
4FC4
8022
8022
87C2
8802
8802
47E4
4004
2008
1010
ENDCHAR
STARTCHAR 3204
ENCODING 12804
SWIDTH 960 0
DWIDTH 16 0
BBX 15 13 1 -1
BITMAP
1010
2008
4004
4FE4
8822
8822
8822
8822
8FE2
4004
4004
2008
1010
ENDCHAR
STARTCHAR 3205
ENCODING 12805
SWIDTH 960 0
DWIDTH 16 0
BBX 15 13 1 -1
BITMAP
1010
2008
4004
4824
8822
8FE2
8822
8822
87C2
4004
4004
2008
1010
ENDCHAR
STARTCHAR 3206
ENCODING 12806
SWIDTH 960 0
DWIDTH 16 0
BBX 15 13 1 -1
BITMAP
1010
2008
4004
4104
8102
8102
8282
8442
9832
4004
4004
2008
1010
ENDCHAR
STARTCHAR 3207
ENCODING 12807
SWIDTH 960 0
DWIDTH 16 0
BBX 15 13 1 -1
BITMAP
1010
2008
4004
4384
8442
8822
8822
8822
8442
4384
4004
2008
1010
ENDCHAR
STARTCHAR 3208
ENCODING 12808
SWIDTH 960 0
DWIDTH 16 0
BBX 15 13 1 -1
BITMAP
1010
2008
4004
4FE4
8102
8102
8102
8282
8442
5834
4004
2008
1010
ENDCHAR
STARTCHAR 3209
ENCODING 12809
SWIDTH 960 0
DWIDTH 16 0
BBX 15 13 1 -1
BITMAP
1010
2008
4384
4004
8FE2
8102
8102
8282
8442
5834
4004
2008
1010
ENDCHAR
STARTCHAR 320A
ENCODING 12810
SWIDTH 960 0
DWIDTH 16 0
BBX 15 13 1 -1
BITMAP
1010
2008
4004
4FC4
8022
8022
8FE2
8022
8022
4024
4004
2008
1010
ENDCHAR
STARTCHAR 320B
ENCODING 12811
SWIDTH 960 0
DWIDTH 16 0
BBX 15 13 1 -1
BITMAP
1010
2008
4004
47E4
8802
8802
8FE2
8802
8802
47E4
4004
2008
1010
ENDCHAR
STARTCHAR 320C
ENCODING 12812
SWIDTH 960 0
DWIDTH 16 0
BBX 15 13 1 -1
BITMAP
1010
2008
4004
5FF4
8002
8442
8442
8442
8442
5FF4
4004
2008
1010
ENDCHAR
STARTCHAR 320D
ENCODING 12813
SWIDTH 960 0
DWIDTH 16 0
BBX 15 13 1 -1
BITMAP
1010
2008
4384
4004
9FF2
8002
87C2
8822
8822
47C4
4004
2008
1010
ENDCHAR
STARTCHAR 320E
ENCODING 12814
SWIDTH 960 0
DWIDTH 16 0
BBX 15 13 1 -1
BITMAP
1010
2028
5E24
4124
8122
813A
8222
8222
8422
5824
4024
2008
1010
ENDCHAR
STARTCHAR 320F
ENCODING 12815
SWIDTH 960 0
DWIDTH 16 0
BBX 15 13 1 -1
BITMAP
1010
2028
5024
5024
9022
903A
9022
9022
9022
4FA4
4024
2008
1010
ENDCHAR
STARTCHAR 3210
ENCODING 12816
SWIDTH 960 0
DWIDTH 16 0
BBX 15 13 1 -1
BITMAP
1010
2028
4F24
5024
9022
903A
9022
9022
9022
4FA4
4024
2008
1010
ENDCHAR
STARTCHAR 3211
ENCODING 12817
SWIDTH 960 0
DWIDTH 16 0
BBX 15 13 1 -1
BITMAP
1010
2028
5E24
4124
8122
8E3A
9022
9022
9022
4FA4
4024
2008
1010
ENDCHAR
STARTCHAR 3212
ENCODING 12818
SWIDTH 960 0
DWIDTH 16 0
BBX 15 13 1 -1
BITMAP
1010
2028
5F24
5124
9122
913A
9122
9122
9122
5F24
4024
2008
1010
ENDCHAR
STARTCHAR 3213
ENCODING 12819
SWIDTH 960 0
DWIDTH 16 0
BBX 15 13 1 -1
BITMAP
1010
2028
5124
5124
9F22
913A
9122
9122
9122
4E24
4024
2008
1010
ENDCHAR
STARTCHAR 3214
ENCODING 12820
SWIDTH 960 0
DWIDTH 16 0
BBX 15 13 1 -1
BITMAP
1010
2028
4424
4424
8422
843A
8A22
8A22
9122
5124
4024
2008
1010
ENDCHAR
STARTCHAR 3215
ENCODING 12821
SWIDTH 960 0
DWIDTH 16 0
BBX 15 13 1 -1
BITMAP
1010
2028
4E24
5124
9122
913A
9122
9122
9122
4E24
4024
2008
1010
ENDCHAR
STARTCHAR 3216
ENCODING 12822
SWIDTH 960 0
DWIDTH 16 0
BBX 15 13 1 -1
BITMAP
1010
2028
5F24
4424
8422
843A
8A22
8A22
9122
5124
4024
2008
1010
ENDCHAR
STARTCHAR 3217
ENCODING 12823
SWIDTH 960 0
DWIDTH 16 0
BBX 15 13 1 -1
BITMAP
1010
2E28
4024
5F24
8422
843A
8A22
8A22
9122
5124
4024
2008
1010
ENDCHAR
STARTCHAR 3218
ENCODING 12824
SWIDTH 960 0
DWIDTH 16 0
BBX 15 13 1 -1
BITMAP
1010
2028
5E24
4124
8122
9F3A
8222
8222
8422
5824
4024
2008
1010
ENDCHAR
STARTCHAR 3219
ENCODING 12825
SWIDTH 960 0
DWIDTH 16 0
BBX 15 13 1 -1
BITMAP
1010
2028
4F24
5024
9022
9F3A
9022
9022
9022
4FA4
4024
2008
1010
ENDCHAR
STARTCHAR 321A
ENCODING 12826
SWIDTH 960 0
DWIDTH 16 0
BBX 15 13 1 -1
BITMAP
1010
2028
5FA4
4024
8922
893A
8922
8922
8922
5FA4
4024
2008
1010
ENDCHAR
STARTCHAR 321B
ENCODING 12827
SWIDTH 960 0
DWIDTH 16 0
BBX 15 13 1 -1
BITMAP
1010
2E28
4024
7FA4
8022
8E3A
9122
9122
9122
4E24
4024
2008
1010
ENDCHAR
STARTCHAR 321C
ENCODING 12828
SWIDTH 960 0
DWIDTH 16 0
BBX 15 14 1 -1
BITMAP
2008
4004
4FE4
8102
8102
86C2
9832
8002
BFFA
8102
8102
4104
4104
2008
ENDCHAR
STARTCHAR 3260
ENCODING 12896
SWIDTH 960 0
DWIDTH 16 0
BBX 15 15 1 -2
BITMAP
07C0
1830
2008
4004
4004
8FC2
8022
8022
8022
8022
4024
4004
2008
1830
07C0
ENDCHAR
STARTCHAR 3261
ENCODING 12897
SWIDTH 960 0
DWIDTH 16 0
BBX 15 15 1 -2
BITMAP
07C0
1830
2008
4004
4804
8802
8802
8802
8802
87E2
4004
4004
2008
1830
07C0
ENDCHAR
STARTCHAR 3262
ENCODING 12898
SWIDTH 960 0
DWIDTH 16 0
BBX 15 15 1 -2
BITMAP
07C0
1830
2008
4004
47E4
8802
8802
8802
8802
87E2
4004
4004
2008
1830
07C0
ENDCHAR
STARTCHAR 3263
ENCODING 12899
SWIDTH 960 0
DWIDTH 16 0
BBX 15 15 1 -2
BITMAP
07C0
1830
2008
4004
4FC4
8022
8022
87C2
8802
8802
47E4
4004
2008
1830
07C0
ENDCHAR
STARTCHAR 3264
ENCODING 12900
SWIDTH 960 0
DWIDTH 16 0
BBX 15 15 1 -2
BITMAP
07C0
1830
2008
4004
4FE4
8822
8822
8822
8822
8FE2
4004
4004
2008
1830
07C0
ENDCHAR
STARTCHAR 3265
ENCODING 12901
SWIDTH 960 0
DWIDTH 16 0
BBX 15 15 1 -2
BITMAP
07C0
1830
2008
4004
4824
8822
8FE2
8822
8822
87C2
4004
4004
2008
1830
07C0
ENDCHAR
STARTCHAR 3266
ENCODING 12902
SWIDTH 960 0
DWIDTH 16 0
BBX 15 15 1 -2
BITMAP
07C0
1830
2008
4004
4104
8102
8102
8282
8442
9832
4004
4004
2008
1830
07C0
ENDCHAR
STARTCHAR 3267
ENCODING 12903
SWIDTH 960 0
DWIDTH 16 0
BBX 15 15 1 -2
BITMAP
07C0
1830
2008
4004
4384
8442
8822
8822
8822
8442
4384
4004
2008
1830
07C0
ENDCHAR
STARTCHAR 3268
ENCODING 12904
SWIDTH 960 0
DWIDTH 16 0
BBX 15 15 1 -2
BITMAP
07C0
1830
2008
4004
4FE4
8102
8102
8102
8282
8442
5834
4004
2008
1830
07C0
ENDCHAR
STARTCHAR 3269
ENCODING 12905
SWIDTH 960 0
DWIDTH 16 0
BBX 15 15 1 -2
BITMAP
07C0
1830
2008
4384
4004
8FE2
8102
8102
8282
8442
5834
4004
2008
1830
07C0
ENDCHAR
STARTCHAR 326A
ENCODING 12906
SWIDTH 960 0
DWIDTH 16 0
BBX 15 15 1 -2
BITMAP
07C0
1830
2008
4004
4FC4
8022
8022
8FE2
8022
8022
4024
4004
2008
1830
07C0
ENDCHAR
STARTCHAR 326B
ENCODING 12907
SWIDTH 960 0
DWIDTH 16 0
BBX 15 15 1 -2
BITMAP
07C0
1830
2008
4004
47E4
8802
8802
8FE2
8802
8802
47E4
4004
2008
1830
07C0
ENDCHAR
STARTCHAR 326C
ENCODING 12908
SWIDTH 960 0
DWIDTH 16 0
BBX 15 15 1 -2
BITMAP
07C0
1830
2008
4004
5FF4
8002
8442
8442
8442
8442
5FF4
4004
2008
1830
07C0
ENDCHAR
STARTCHAR 326D
ENCODING 12909
SWIDTH 960 0
DWIDTH 16 0
BBX 15 15 1 -2
BITMAP
07C0
1830
2008
4384
4004
9FF2
8002
87C2
8822
8822
47C4
4004
2008
1830
07C0
ENDCHAR
STARTCHAR 326E
ENCODING 12910
SWIDTH 960 0
DWIDTH 16 0
BBX 15 15 1 -2
BITMAP
07C0
1830
2028
5E24
4124
8122
813A
8222
8222
8422
5824
4024
2008
1830
07C0
ENDCHAR
STARTCHAR 326F
ENCODING 12911
SWIDTH 960 0
DWIDTH 16 0
BBX 15 15 1 -2
BITMAP
07C0
1830
2028
5024
5024
9022
903A
9022
9022
9022
4FA4
4024
2008
1830
07C0
ENDCHAR
STARTCHAR 3270
ENCODING 12912
SWIDTH 960 0
DWIDTH 16 0
BBX 15 15 1 -2
BITMAP
07C0
1830
2028
4F24
5024
9022
903A
9022
9022
9022
4FA4
4024
2008
1830
07C0
ENDCHAR
STARTCHAR 3271
ENCODING 12913
SWIDTH 960 0
DWIDTH 16 0
BBX 15 15 1 -2
BITMAP
07C0
1830
2028
5E24
4124
8122
8E3A
9022
9022
9022
4FA4
4024
2008
1830
07C0
ENDCHAR
STARTCHAR 3272
ENCODING 12914
SWIDTH 960 0
DWIDTH 16 0
BBX 15 15 1 -2
BITMAP
07C0
1830
2028
5F24
5124
9122
913A
9122
9122
9122
5F24
4024
2008
1830
07C0
ENDCHAR
STARTCHAR 3273
ENCODING 12915
SWIDTH 960 0
DWIDTH 16 0
BBX 15 15 1 -2
BITMAP
07C0
1830
2028
5124
5124
9F22
913A
9122
9122
9122
4E24
4024
2008
1830
07C0
ENDCHAR
STARTCHAR 3274
ENCODING 12916
SWIDTH 960 0
DWIDTH 16 0
BBX 15 15 1 -2
BITMAP
07C0
1830
2028
4424
4424
8422
843A
8A22
8A22
9122
5124
4024
2008
1830
07C0
ENDCHAR
STARTCHAR 3275
ENCODING 12917
SWIDTH 960 0
DWIDTH 16 0
BBX 15 15 1 -2
BITMAP
07C0
1830
2028
4E24
5124
9122
913A
9122
9122
9122
4E24
4024
2008
1830
07C0
ENDCHAR
STARTCHAR 3276
ENCODING 12918
SWIDTH 960 0
DWIDTH 16 0
BBX 15 15 1 -2
BITMAP
07C0
1830
2028
5F24
4424
8422
843A
8A22
8A22
9122
5124
4024
2008
1830
07C0
ENDCHAR
STARTCHAR 3277
ENCODING 12919
SWIDTH 960 0
DWIDTH 16 0
BBX 15 15 1 -2
BITMAP
07C0
1830
2E28
4024
5F24
8422
843A
8A22
8A22
9122
5124
4024
2008
1830
07C0
ENDCHAR
STARTCHAR 3278
ENCODING 12920
SWIDTH 960 0
DWIDTH 16 0
BBX 15 15 1 -2
BITMAP
07C0
1830
2028
5E24
4124
8122
9F3A
8222
8222
8422
5824
4024
2008
1830
07C0
ENDCHAR
STARTCHAR 3279
ENCODING 12921
SWIDTH 960 0
DWIDTH 16 0
BBX 15 15 1 -2
BITMAP
07C0
1830
2028
4F24
5024
9022
9F3A
9022
9022
9022
4FA4
4024
2008
1830
07C0
ENDCHAR
STARTCHAR 327A
ENCODING 12922
SWIDTH 960 0
DWIDTH 16 0
BBX 15 15 1 -2
BITMAP
07C0
1830
2028
5FA4
4024
8922
893A
8922
8922
8922
5FA4
4024
2008
1830
07C0
ENDCHAR
STARTCHAR 327B
ENCODING 12923
SWIDTH 960 0
DWIDTH 16 0
BBX 15 15 1 -2
BITMAP
07C0
1830
2E28
4024
7FA4
8022
8E3A
9122
9122
9122
4E24
4024
2008
1830
07C0
ENDCHAR
STARTCHAR 327F
ENCODING 12927
SWIDTH 960 0
DWIDTH 16 0
BBX 14 15 1 -2
BITMAP
0780
1860
2010
4008
4008
8480
8500
F63C
0504
0484
4008
4008
2010
1860
0780
ENDCHAR
STARTCHAR 3380
ENCODING 13184
SWIDTH 960 0
DWIDTH 16 0
BBX 14 13 1 0
BITMAP
0020
0020
0050
0050
B050
C888
8488
84F8
8504
C904
B104
8000
8000
ENDCHAR
STARTCHAR 3381
ENCODING 13185
SWIDTH 960 0
DWIDTH 16 0
BBX 14 11 1 0
BITMAP
0020
0020
0050
0050
F050
8888
8888
88F8
8904
8904
8904
ENDCHAR
STARTCHAR 3382
ENCODING 13186
SWIDTH 960 0
DWIDTH 16 0
BBX 15 13 1 0
BITMAP
0010
0010
0028
0028
2228
2244
2244
447C
4482
4482
BB82
8000
8000
ENDCHAR
STARTCHAR 3383
ENCODING 13187
SWIDTH 960 0
DWIDTH 16 0
BBX 15 11 1 0
BITMAP
0010
0010
0028
0028
EC28
9244
9244
927C
9282
9282
9282
ENDCHAR
STARTCHAR 3384
ENCODING 13188
SWIDTH 960 0
DWIDTH 16 0
BBX 13 11 2 0
BITMAP
8040
8040
80A0
80A0
88A0
9110
A110
C1F0
A208
9208
8A08
ENDCHAR
STARTCHAR 3388
ENCODING 13192
SWIDTH 960 0
DWIDTH 16 0
BBX 14 11 1 0
BITMAP
0004
0004
0004
0004
71C4
8A24
8024
81E4
8224
8A24
71D4
ENDCHAR
STARTCHAR 3389
ENCODING 13193
SWIDTH 960 0
DWIDTH 16 0
BBX 15 11 1 0
BITMAP
8002
8002
8002
8002
8B32
94CA
A40A
C43A
A44A
94CA
8B36
ENDCHAR
STARTCHAR 338A
ENCODING 13194
SWIDTH 960 0
DWIDTH 16 0
BBX 13 13 2 0
BITMAP
01F8
0100
0100
0100
B100
C9F0
8500
8500
8500
C900
B100
8000
8000
ENDCHAR
STARTCHAR 338B
ENCODING 13195
SWIDTH 960 0
DWIDTH 16 0
BBX 13 11 2 0
BITMAP
01F8
0100
0100
0100
F100
89F0
8900
8900
8900
8900
8900
ENDCHAR
STARTCHAR 338C
ENCODING 13196
SWIDTH 960 0
DWIDTH 16 0
BBX 15 13 1 0
BITMAP
007E
0040
0040
0040
2240
227C
2240
4440
4440
4540
BA40
8000
8000
ENDCHAR
STARTCHAR 338D
ENCODING 13197
SWIDTH 960 0
DWIDTH 16 0
BBX 13 9 1 4
BITMAP
2278
2288
2288
4488
4488
4478
BB08
8088
8070
ENDCHAR
STARTCHAR 338E
ENCODING 13198
SWIDTH 960 0
DWIDTH 16 0
BBX 13 9 1 4
BITMAP
EC78
9288
9288
9288
9288
9278
9208
0088
0070
ENDCHAR
STARTCHAR 338F
ENCODING 13199
SWIDTH 960 0
DWIDTH 16 0
BBX 11 13 3 0
BITMAP
8000
8000
8000
8000
89E0
9220
A220
C220
A220
91E0
8820
0220
01C0
ENDCHAR
STARTCHAR 3390
ENCODING 13200
SWIDTH 960 0
DWIDTH 16 0
BBX 14 11 1 0
BITMAP
8200
8200
8200
8200
82FC
FE08
8210
8220
8240
8280
82FC
ENDCHAR
STARTCHAR 3391
ENCODING 13201
SWIDTH 960 0
DWIDTH 16 0
BBX 15 11 1 0
BITMAP
8440
8440
8440
8440
8FDE
9442
A444
C444
A448
9448
8C5E
ENDCHAR
STARTCHAR 3392
ENCODING 13202
SWIDTH 960 0
DWIDTH 16 0
BBX 15 11 1 0
BITMAP
8A40
8A40
DA40
DA40
DA5E
ABC2
AA44
AA44
AA48
8A48
8A5E
ENDCHAR
STARTCHAR 3393
ENCODING 13203
SWIDTH 960 0
DWIDTH 16 0
BBX 15 11 1 0
BITMAP
7240
8A40
8A40
8240
83DE
9E42
8A44
8A44
8A48
9A48
6A5E
ENDCHAR
STARTCHAR 3394
ENCODING 13204
SWIDTH 960 0
DWIDTH 16 0
BBX 15 11 1 0
BITMAP
FA40
2240
2240
2240
23DE
2242
2244
2244
2248
2248
225E
ENDCHAR
STARTCHAR 3395
ENCODING 13205
SWIDTH 960 0
DWIDTH 16 0
BBX 14 13 1 0
BITMAP
0018
0024
0024
0044
2248
2248
2250
4460
4444
44A8
BB10
8000
8000
ENDCHAR
ENDFONT
